<?xml version="1.0" standalone="no"?>
<!DOCTYPE svg PUBLIC "-//W3C//DTD SVG 1.1//EN" "http://www.w3.org/Graphics/SVG/1.1/DTD/svg11.dtd" >
<svg>
<metadata>
Created by FontForge 20090914 at Thu Sep 15 09:29:07 2011
 By www-data
Copyright (c) 5-3-05M. Klein \(Blended between Light and Bold\)
</metadata>
<defs>
<font id="PetitaMedium" horiz-adv-x="350" >
  <font-face 
    font-family="PetitaMedium"
    font-weight="500"
    font-stretch="normal"
    units-per-em="1000"
    panose-1="2 0 6 4 6 0 0 2 0 3"
    ascent="800"
    descent="-200"
    x-height="461.999"
    cap-height="695"
    bbox="-236 -295 1077 931"
    underline-thickness="20"
    underline-position="-123"
    unicode-range="U+0005-U+E00E"
  />
<missing-glyph horiz-adv-x="1000" 
 />
    <glyph glyph-name=".notdef" horiz-adv-x="1000" 
 />
    <glyph glyph-name="breve" 
d="M329 660l-66.9971 -0.000976562c-7.33301 -14.667 -14 -26 -20 -34s-12.667 -14.667 -20 -20c-15.333 -9.33301 -31.333 -14 -48 -14c-17.333 0 -33.333 5 -48 15c-7.33301 5.33301 -13.833 11.833 -19.5 19.5s-12.167 18.834 -19.5 33.501h-66
c9.33301 -27.333 19.166 -49 29.499 -65s22.166 -29.667 35.499 -41c28 -22.667 57.333 -34 88 -34c31.333 0 61 11.333 89 34c13.333 11.333 25.166 25 35.499 41s20.5 37.667 30.5 65z" />
    <glyph glyph-name="dotaccent" 
d="M231 536v113h-113v-114z" />
    <glyph glyph-name="ring" 
d="M274 592c0 26.667 -10.001 49.999 -30.001 69.999c-19.333 19.333 -42.666 29 -69.999 29c-26 0 -49.333 -9.66699 -70 -29c-18.667 -19.333 -28 -42.666 -28 -69.999s9.33301 -50.666 28 -69.999c20.667 -19.333 44 -29 70 -29c28 0 51.667 9.66699 71 29
s29 42.666 29 69.999zM221.999 591.999c0 -12.667 -4.66895 -23.667 -14.002 -33s-20.666 -14 -33.999 -14c-12.667 0 -23.667 4.66699 -33 14c-8.66699 8.66699 -13 19.667 -13 33s4.33301 24.333 13 33c9.33301 9.33301 20.333 14 33 14s24.334 -4.66699 35.001 -14
c8.66699 -8.66699 13 -19.667 13 -33z" />
    <glyph glyph-name="hungarumlaut" unicode="&#xa;" 
d="M409 690h-117l-120 -182h63l40 44l37 38l40 40zM257 690h-118l-120 -182h62z" />
    <glyph glyph-name="ogonek" 
d="M251 -176l0.000976562 62.002l-31 -2c-8 0 -15.167 1.16699 -21.5 3.5s-12.5 5.16602 -18.5 8.49902c-8.66699 6.66699 -13 17.667 -13 33c0 11.333 5.33301 23.666 16 36.999l21 22.5c7.33301 7.66699 20.333 19.167 39 34.5h-71
c-26.667 -10.667 -47.334 -26 -62.001 -46c-7.33301 -9.33301 -12.5 -19.333 -15.5 -30s-4.5 -21.667 -4.5 -33c0 -30 11 -54 33 -72c19.333 -16.667 44.333 -25 75 -25z" />
    <glyph glyph-name="caron" 
d="M336 689h-67l-95 -103l-93 103h-67l125 -190h71z" />
    <glyph glyph-name="dotlessi" unicode="&#xd;" horiz-adv-x="197" 
d="M135 -13v475h-73v-475h73z" />
    <glyph glyph-name="fraction" horiz-adv-x="142" 
d="M378 704h-71l-543 -744h70z" />
    <glyph glyph-name="fi" horiz-adv-x="503" 
d="M448 -13v475h-73v-475h73zM449 553c-6 59.333 -24.332 98.9961 -54.999 118.996c-30.667 21.333 -68.334 32 -113.001 32c-52 0 -94.333 -17 -127 -51c-16 -17.333 -27.667 -37.666 -35 -60.999s-11 -49.666 -11 -78.999v-52h-83v-64h83v-410h73v411h94v64h-94v51
c0 43.333 8.66699 75.333 26 96c16.667 20 40.667 30 72 30s54.333 -6.33301 69 -19c7.33301 -5.33301 13.333 -13.166 18 -23.499s8 -25.166 10 -44.499h48z" />
    <glyph glyph-name="Lslash" horiz-adv-x="492" 
d="M504 -13v70h-337v239l167 136v84l-167 -136v315h-78v-378l-121 -99v-84l121 99v-246h415z" />
    <glyph glyph-name="lslash" horiz-adv-x="197" 
d="M234 405v81l-100 -83v292h-73v-353l-97 -81v-81l97 81v-274h73v335z" />
    <glyph glyph-name="Zcaron" horiz-adv-x="667" 
d="M499 922h-67l-95 -103l-93 103h-67l125 -190h71zM644 -13v70h-501l499 603l-9 35h-593v-70h474l-499 -607l10 -31h619z" />
    <glyph glyph-name="zcaron" horiz-adv-x="416" 
d="M372 689h-67l-95 -103l-93 103h-67l125 -190h71zM409 431l-8 31h-377v-70h268l-286 -375l10 -30h392v70h-283z" />
    <glyph glyph-name="space" unicode=" " horiz-adv-x="292" 
 />
    <glyph glyph-name="exclam" unicode="!" horiz-adv-x="186" 
d="M138 695h-91l18 -516h55zM138 -13v123h-90v-123h90z" />
    <glyph glyph-name="quotedbl" unicode="&#x22;" horiz-adv-x="292" 
d="M260 640l-37 57h-54v-127l13 -133h65l10 103zM123 640l-37 57h-54v-127l13 -133h65l10 103z" />
    <glyph glyph-name="numbersign" unicode="#" horiz-adv-x="693" 
d="M612 198v71h-128l34 166h94v71h-79l42 205h-73l-42 -206h-162l42 206h-73l-42 -206h-144v-71h129l-34 -166h-95v-71h80l-43 -210h73l43 211h162l-43 -211h73l43 211h143zM445 435l-34 -167h-162l34 167h162z" />
    <glyph glyph-name="dollar" unicode="$" horiz-adv-x="547" 
d="M503 165c0 55.333 -17.334 97.3311 -52.001 125.998c-33.333 29.333 -89.666 56 -168.999 80c-28.667 9.33301 -53.167 18.5 -73.5 27.5s-37.166 17.833 -50.499 26.5c-22.667 16 -34 39 -34 69s13.667 55.333 41 76c29.333 22 64 33 104 33
c21.333 0 40.666 -1.83301 57.999 -5.5s33.666 -9.16699 48.999 -16.5s30.333 -15.5 45 -24.5s32 -21.5 52 -37.5v87c-12.667 10 -25.667 18.667 -39 26s-28.333 14.666 -45 21.999c-23.333 9.33301 -49.666 15.333 -78.999 18l1 82h-73l-1 -82
c-47.333 -6 -88.666 -23.333 -123.999 -52c-44 -37.333 -66 -81.333 -66 -132c0 -52.667 16.667 -92.667 50 -120c32 -25.333 81.667 -47.666 149 -66.999c63.333 -19.333 109.666 -38.666 138.999 -57.999c28 -19.333 42 -45.666 42 -78.999
c0 -31.333 -14.333 -58.333 -43 -81c-28.667 -23.333 -64.334 -35 -107.001 -35c-28.667 0 -62.334 7.66699 -101.001 23c-19.333 7.33301 -39.166 17 -59.499 29s-45.166 29 -74.499 51v-85c13.333 -13.333 28.333 -25 45 -35s34.667 -19.333 54 -28
c30 -13.333 62.333 -21.333 97 -24v-109h73v109c46.667 6 88 23.333 124 52c45.333 37.333 68 82 68 134z" />
    <glyph glyph-name="percent" unicode="%" horiz-adv-x="733" 
d="M371 531c0 47.333 -17 88 -51 122s-75 51 -123 51c-46 0 -86.667 -17 -122 -51c-34 -33.333 -51 -74 -51 -122c0 -47.333 16.667 -88.333 50 -123c35.333 -34 76.333 -51 123 -51c47.333 0 88.333 17.333 123 52c34 34 51 74.667 51 122zM689 700h-83l-569 -724h82z
M710 147c0 46.667 -17.3311 87.334 -51.998 122.001c-34 34 -75 51 -123 51c-46 0 -86.667 -17 -122 -51c-34 -33.333 -51 -74 -51 -122c0 -46 17.333 -86.333 52 -121c34 -34 74.333 -51 121 -51c47.333 0 88.666 17 123.999 51c17.333 16.667 30.166 35.167 38.499 55.5
s12.5 42.166 12.5 65.499zM303.002 529c0 -27.333 -10.667 -51.667 -32 -73c-20 -20.667 -44.333 -31 -73 -31s-53.667 10.667 -75 32c-20.667 20.667 -31 45.667 -31 75c0 28 10.333 52.333 31 73s46 31 76 31c28.667 0 53 -10.667 73 -32c20.667 -20 31 -45 31 -75z
M642.002 144.999c0 -28 -10.333 -52 -31 -72c-21.333 -20 -46.333 -30 -75 -30s-53.667 10.667 -75 32c-20.667 20.667 -31 45 -31 73s10.667 52.333 32 73c22 20.667 47 31 75 31c29.333 0 54 -10.667 74 -32c20.667 -20.667 31 -45.667 31 -75z" />
    <glyph glyph-name="ampersand" unicode="&#x26;" horiz-adv-x="646" 
d="M640 -13l-153.999 162.001l22 33.5c7.33301 11.667 14.333 24.167 21 37.5c9.33301 19.333 18.333 39.166 27 59.499s17.667 44.833 27 73.5h-82c-8 -23.333 -15.667 -43.666 -23 -60.999s-14.666 -32.666 -21.999 -45.999c-3.33301 -6.66699 -7 -13.334 -11 -20.001
l-13 -21l-132 139c32.667 17.333 61.334 38.333 86.001 63c33.333 34.667 50 75.334 50 122.001c0 47.333 -17 85 -51 113c-16.667 13.333 -34.334 23.333 -53.001 30s-39 10 -61 10c-44.667 0 -84.334 -15.667 -119.001 -47c-34.667 -30.667 -52 -68 -52 -112
c0 -30.667 7.66699 -59.667 23 -87c6.66699 -11.333 13.5 -22 20.5 -32s15.167 -20 24.5 -30l9 -9c-42.667 -18.667 -78.667 -44.334 -108 -77.001c-35.333 -39.333 -53 -84 -53 -134c0 -46.667 16 -87.334 48 -122.001c32 -36 79.333 -54 142 -54
c54 0 102.667 12.333 146 37c31.333 18.667 60.666 43.667 87.999 75l99 -103h101zM362.001 524.001c0 -26.667 -11.332 -51.332 -33.999 -73.999c-16.667 -18 -43.334 -35 -80.001 -51c-0.666992 0.666992 -2.16699 2 -4.5 4s-3.83301 3.66699 -4.5 5
c-8.66699 8.66699 -16.667 17.5 -24 26.5s-14 18.5 -20 28.5c-12.667 21.333 -19 41.666 -19 60.999c0 26 9.33301 46 28 60c22 16 44.667 24 68 24c24 0 45.333 -8.33301 64 -25c17.333 -14 26 -33.667 26 -59zM388.002 144.003
c-12.667 -14.667 -25.166 -27.501 -37.499 -38.501s-24.833 -20.167 -37.5 -27.5c-29.333 -17.333 -62 -26 -98 -26c-35.333 0 -64 9.33301 -86 28c-20.667 18.667 -31 46.334 -31 83.001c0 34.667 12.667 63.667 38 87s56.666 43.333 93.999 60z" />
    <glyph glyph-name="quotesingle" unicode="'" horiz-adv-x="233" 
d="M162 640l-37 57h-54v-127l13 -133h65l10 103z" />
    <glyph glyph-name="parenleft" unicode="(" 
d="M338 -233c-38 32.667 -68.998 64.9971 -92.998 96.9971s-45.667 67.667 -65 107c-38 76.667 -57 163.334 -57 260.001c0 94.667 19.333 181.334 58 260.001c19.333 39.333 41 75 65 107s54.667 64.333 92 97h-89c-50 -46 -96 -108 -138 -186
c-42.667 -78.667 -64 -171.334 -64 -278.001s21.667 -199.667 65 -279c21.333 -39.333 43.166 -74.166 65.499 -104.499s46.166 -57.166 71.499 -80.499h89z" />
    <glyph glyph-name="parenright" unicode=")" 
d="M303 231c0 107.333 -21.3291 200.337 -63.9961 279.004c-21.333 39.333 -43.5 74.166 -66.5 104.499s-47.5 57.166 -73.5 80.499h-89c38 -32.667 69.167 -65.167 93.5 -97.5s46.166 -67.833 65.499 -106.5c38.667 -76.667 58 -163.334 58 -260.001
s-19.333 -183.334 -58 -260.001c-9.33301 -19.333 -19.333 -37.833 -30 -55.5s-22.334 -34.834 -35.001 -51.501s-26.834 -33 -42.501 -49s-32.834 -32 -51.501 -48h89c26 23.333 50.5 50.333 73.5 81s45.167 65.667 66.5 105c42.667 78.667 64 171.334 64 278.001z" />
    <glyph glyph-name="asterisk" unicode="*" horiz-adv-x="492" 
d="M452 415c-16.667 6.66699 -30.6699 12.5 -42.0029 17.5s-22.333 10.167 -33 15.5l-34 17l-44 23l44 22.5l34 17.5c10.667 5.33301 21.667 10.5 33 15.5s25.333 10.833 42 17.5l-39 70l-27.5 -22c-7.66699 -6 -15 -11.333 -22 -16l-20 -13.5
c-6.33301 -4.33301 -13.5 -8.83301 -21.5 -13.5c-12.667 -7.33301 -29.334 -17.666 -50.001 -30.999c0.666992 19.333 1.33398 35.666 2.00098 48.999s1.5 26 2.5 38s2.16699 24.167 3.5 36.5l5 45.5h-78l5 -44.5c1.33301 -12.333 2.33301 -24.5 3 -36.5
s1.33398 -24.833 2.00098 -38.5s1.66699 -30.167 3 -49.5c-20.667 13.333 -37.334 23.666 -50.001 30.999c-8 4.66699 -15.167 9.16699 -21.5 13.5l-20 13.5c-7 4.66699 -14.333 10 -22 16l-27.5 22l-39 -70l41 -17.5c11.333 -5 22.333 -10.167 33 -15.5l34.5 -17.5
l44.5 -22.5l-44 -23l-34 -17c-10.667 -5.33301 -21.667 -10.5 -33 -15.5s-25.333 -10.833 -42 -17.5l39 -70l27.5 22c7.66699 6 15 11.333 22 16l20 13l21.5 14c12.667 7.33301 29.334 17.666 50.001 30.999c-1.33301 -19.333 -2.16602 -35.666 -2.49902 -48.999
s-1 -26 -2 -38s-2.16699 -24.167 -3.5 -36.5l-5 -45.5h78l-5 44.5c-1.33301 12.333 -2.33301 24.5 -3 36.5s-1.5 24.833 -2.5 38.5s-1.83301 30.167 -2.5 49.5c20.667 -13.333 37.334 -23.666 50.001 -30.999l21.5 -14l20 -13c7 -4.66699 14.333 -10 22 -16l27.5 -22z" />
    <glyph glyph-name="plus" unicode="+" horiz-adv-x="693" 
d="M621 319v69h-240v237h-69v-238h-240v-69h240v-240h69v241h240z" />
    <glyph glyph-name="comma" unicode="," horiz-adv-x="186" 
d="M140 17v93h-90v-123h21c-1.33301 -15.333 -3.33301 -27.333 -6 -36c-0.666992 -2 -2.33398 -4.5 -5.00098 -7.5s-5 -5.16699 -7 -6.5c-1.33301 -2 -3.16602 -4.16699 -5.49902 -6.5s-4.83301 -5.16602 -7.5 -8.49902v-64l29.5 21.5
c5.66699 4.33301 10.5 8.16602 14.5 11.499c7.33301 6.66699 14.333 13.5 21 20.5s12 15.167 16 24.5c12.667 25.333 19 52.333 19 81z" />
    <glyph glyph-name="hyphen" unicode="-" horiz-adv-x="329" 
d="M295 240v62h-262v-62h262z" />
    <glyph glyph-name="period" unicode="." horiz-adv-x="186" 
d="M137 -13v124h-89v-124h89z" />
    <glyph glyph-name="slash" unicode="/" horiz-adv-x="295" 
d="M296 704h-73l-228 -726h73z" />
    <glyph glyph-name="zero" unicode="0" horiz-adv-x="525" 
d="M494 338v6c0 102.667 -20.333 188 -61 256c-41.333 69.333 -98 104 -170 104s-128.667 -34.667 -170 -104c-40.667 -66.667 -61 -152 -61 -256v-6c0 -104 20.333 -189.333 61 -256c40 -69.333 96.333 -104 169 -104c72 0 129 34.667 171 104c40.667 66.667 61 152 61 256
zM417 337c0 -82 -15.335 -151.001 -46.002 -207.001c-14.667 -28 -31 -48.167 -49 -60.5s-37.667 -18.5 -59 -18.5c-44 0 -80.667 26.333 -110 79c-29.333 55.333 -44 124.333 -44 207v8c0 82.667 15 151.667 45 207c15.333 28 31.833 48.167 49.5 60.5
s37.167 18.5 58.5 18.5s41.333 -6.33301 60 -19s35.334 -32.667 50.001 -60s25.834 -58.166 33.501 -92.499s11.5 -72.5 11.5 -114.5v-8z" />
    <glyph glyph-name="one" unicode="1" horiz-adv-x="352" 
d="M295 -13v708h-77v-60l-191 -190l53 -54l138 139v-543h77z" />
    <glyph glyph-name="two" unicode="2" horiz-adv-x="525" 
d="M491 -13l0.00195312 72.999h-302l66 78l37 51l37 52c9.33301 13.333 19.5 29.333 30.5 48s22.167 40 33.5 64c22 48 33 94.667 33 140c0 59.333 -20.333 109.333 -61 150c-42 40.667 -92.667 61 -152 61c-40 0 -74.333 -8 -103 -24
c-13.333 -7.33301 -25.666 -14.5 -36.999 -21.5s-22 -15.167 -32 -24.5v-95c21.333 20.667 38.5 36 51.5 46s25.5 18.667 37.5 26c23.333 13.333 49.666 20 78.999 20c40.667 0 74 -13.333 100 -40c26.667 -26 40 -59 40 -99c0 -18.667 -1.83301 -37 -5.5 -55
s-9.83398 -36.333 -18.501 -55c-8 -18.667 -17 -37.5 -27 -56.5s-21.667 -37.833 -35 -56.5c-16.667 -24.667 -33.334 -47.667 -50.001 -69s-33.334 -41 -50.001 -59l-51.5 -56.5c-18.333 -20.333 -39.166 -42.166 -62.499 -65.499v-32h442z" />
    <glyph glyph-name="three" unicode="3" horiz-adv-x="525" 
d="M455 192c0 42.667 -12.668 80.332 -38.001 112.999c-19.333 24 -45.333 43 -78 57c34 14 59.667 33.333 77 58c20.667 30.667 31 63 31 97c0 55.333 -20.333 100.333 -61 135c-38.667 34.667 -88.667 52 -150 52c-40 0 -74.333 -6.33301 -103 -19
c-12.667 -5.33301 -23.667 -10.5 -33 -15.5s-17.666 -10.5 -24.999 -16.5v-78c13.333 9.33301 24.833 16.666 34.5 21.999s20.834 11 33.501 17c24 11.333 52.667 17 86 17c41.333 0 75.666 -11.667 102.999 -35c26 -23.333 39 -50.666 39 -81.999
c0 -33.333 -14.333 -61.333 -43 -84c-30.667 -23.333 -66.334 -35 -107.001 -35h-18v-73h22c25.333 0 47.5 -3.5 66.5 -10.5s35.167 -16.5 48.5 -28.5c26 -24 39 -57 39 -99c0 -38.667 -13.667 -70.667 -41 -96c-28 -24.667 -63.667 -37 -107 -37
c-32 0 -60.667 3.66699 -86 11c-12.667 3.33301 -24.5 7.33301 -35.5 12l-40.5 18v-74c10.667 -6 21.667 -11 33 -15s24.333 -8 39 -12c15.333 -4 30.833 -7.16699 46.5 -9.5s31.834 -3.5 48.501 -3.5c64 0 116.667 19.667 158 59c40.667 38.667 61 90.334 61 155.001z" />
    <glyph glyph-name="four" unicode="4" horiz-adv-x="525" 
d="M500 251v66h-94v387h-39l-349 -419v-35h312v-263h76v264h94zM330 317h-202l202 243v-243z" />
    <glyph glyph-name="five" unicode="5" horiz-adv-x="525" 
d="M459 212c0 68 -21.666 122.333 -64.999 163c-22 20.667 -47 36.334 -75 47.001s-60 15 -96 13l-45 -2v190h242v72h-315v-348c14.667 4.66699 26 8 34 10s15.667 3.66699 23 5s14.666 2.16602 21.999 2.49902s15 0.5 23 0.5c55.333 0 98.666 -13.667 129.999 -41
c31.333 -28 47 -66 47 -114c0 -46 -15 -84 -45 -114s-67.333 -45 -112 -45c-31.333 0 -62.333 6.66699 -93 20c-15.333 7.33301 -29.166 14.333 -41.499 21s-26.833 15.667 -43.5 27v-90c10.667 -6 22 -11.833 34 -17.5s25.667 -11.167 41 -16.5
c32 -11.333 67.333 -17 106 -17c66.667 0 121.667 22 165 66c42.667 43.333 64 99.333 64 168z" />
    <glyph glyph-name="six" unicode="6" horiz-adv-x="525" 
d="M481 176c0 61.333 -19.001 111 -57.001 149c-39.333 38 -89 57 -149 57c-25.333 0 -49 -4.33301 -71 -13c-21.333 -7.33301 -40.333 -16.333 -57 -27c10.667 42 28.334 80.667 53.001 116c24 35.333 52.167 68.833 84.5 100.5s70.833 63.167 115.5 94.5l-46 55
c-42 -30 -80 -61.667 -114 -95s-65.667 -70 -95 -110c-60 -81.333 -90 -171.333 -90 -270c0 -81.333 21.333 -144.333 64 -189c42 -44 94 -66 156 -66c57.333 0 106 19 146 57c40 36.667 60 83.667 60 141zM404.999 174c0 -36 -12.666 -65.334 -37.999 -88.001
c-25.333 -23.333 -57 -35 -95 -35c-38.667 0 -72.334 15.333 -101.001 46c-28 30 -42 73 -42 129v13c0 4 0.333008 7.66699 1 11c10.667 10.667 26.667 22.334 48 35.001c26 16 57 24 93 24c38.667 0 71 -13 97 -39c24.667 -24.667 37 -56.667 37 -96z" />
    <glyph glyph-name="seven" unicode="7" horiz-adv-x="525" 
d="M502 695h-477v-73h365l-279 -618l66 -29z" />
    <glyph glyph-name="eight" unicode="8" horiz-adv-x="525" 
d="M470 187c0 40 -10.335 76.002 -31.002 108.002c-17.333 25.333 -37.666 45.333 -60.999 60c13.333 11.333 24.833 22.833 34.5 34.5s17.834 23.834 24.501 36.501c12.667 25.333 19 53.333 19 84c0 51.333 -18.667 96.666 -56 135.999
c-37.333 38.667 -81.666 58 -132.999 58c-54.667 0 -101.667 -19 -141 -57c-37.333 -38.667 -56 -85.334 -56 -140.001c0 -29.333 7 -58 21 -86c12 -22.667 31.667 -44.667 59 -66c-26.667 -16.667 -48 -37.334 -64 -62.001c-10.667 -15.333 -18.334 -32 -23.001 -50
s-7 -37.333 -7 -58c0 -57.333 20 -106.333 60 -147c41.333 -40 90 -60 146 -60c58.667 0 108 20 148 60s60 89.667 60 149zM379.998 507.002c0 -33.333 -11.667 -61 -35 -83c-22 -23.333 -49.333 -35 -82 -35c-32 0 -59.667 11.667 -83 35c-22.667 22 -34 48.667 -34 80
c0 38 10.667 68.333 32 91c22 23.333 50.333 35 85 35c34 0 62 -11.667 84 -35c22 -22 33 -51.333 33 -88zM393.998 185.002c0 -38 -12.667 -69.668 -38 -95.001c-24 -26 -54.667 -39 -92 -39s-69 13 -95 39c-24.667 24.667 -37 56 -37 94c0 38.667 12.333 70.334 37 95.001
c25.333 25.333 57 38 95 38c36 0 66.667 -13 92 -39c25.333 -25.333 38 -56.333 38 -93z" />
    <glyph glyph-name="nine" unicode="9" horiz-adv-x="525" 
d="M468 444c0 84.667 -20.9971 149.333 -62.9971 194c-42.667 44 -96.334 66 -161.001 66c-58.667 0 -107.334 -19.333 -146.001 -58c-38.667 -38 -58 -86.667 -58 -146c0 -56.667 19.667 -103.667 59 -141c38.667 -38 87 -57 145 -57c17.333 0 34.166 1.5 50.499 4.5
s32.166 8.83301 47.499 17.5c6 1.33301 12 3.83301 18 7.5s11 7.16699 15 10.5c-12 -47.333 -31.333 -89 -58 -125c-25.333 -34 -53.833 -66 -85.5 -96s-69.167 -60 -112.5 -90l43 -57c58.667 42 107.334 82.5 146.001 121.5s69.667 78.167 93 117.5
c44.667 75.333 67 152.333 67 231zM390.003 449.999l-0.000976562 -15.999c-11.333 -11.333 -28.333 -23.333 -51 -36c-27.333 -15.333 -58.333 -23 -93 -23c-36 0 -66.667 12.667 -92 38c-25.333 24 -38 53 -38 87c0 38 12.667 69 38 93c24 25.333 54.667 38 92 38
c44.667 0 79.667 -14.333 105 -43c12.667 -14 22.334 -32.333 29.001 -55s10 -50.334 10 -83.001z" />
    <glyph glyph-name="colon" unicode=":" horiz-adv-x="186" 
d="M137 340v123h-89v-124zM137 -13v124h-89v-124h89z" />
    <glyph glyph-name="semicolon" unicode=";" horiz-adv-x="186" 
d="M139 340v123h-89v-124zM140 17v93h-90v-123h21c-1.33301 -15.333 -3.33301 -27.333 -6 -36c-0.666992 -2 -2.33398 -4.5 -5.00098 -7.5s-5 -5.16699 -7 -6.5c-1.33301 -2 -3.16602 -4.16699 -5.49902 -6.5s-4.83301 -5.16602 -7.5 -8.49902v-64l29.5 21.5
c5.66699 4.33301 10.5 8.16602 14.5 11.499c7.33301 6.66699 14.333 13.5 21 20.5s12 15.167 16 24.5c12.667 25.333 19 52.333 19 81z" />
    <glyph glyph-name="less" unicode="&#x3c;" horiz-adv-x="693" 
d="M621 91v76l-444 184l444 184v76l-549 -231v-58z" />
    <glyph glyph-name="equal" unicode="=" horiz-adv-x="693" 
d="M621 438v69h-549v-70zM621 195v70h-549v-70h549z" />
    <glyph glyph-name="greater" unicode="&#x3e;" horiz-adv-x="693" 
d="M621 322v58l-549 231v-76l443 -184l-443 -184v-76z" />
    <glyph glyph-name="question" unicode="?" horiz-adv-x="295" 
d="M265 550c0 20 -2.66504 39.0039 -7.99805 57.0039s-13.666 34.667 -24.999 50c-23.333 32 -58.333 48 -105 48c-16 0 -31.333 -2.66699 -46 -8c-3.33301 -1.33301 -10 -4.5 -20 -9.5l-25.5 -12.5l-12.5 -6l27 -67l15.5 9c7 4 14.333 7.83301 22 11.5s15 7 22 10
s12.5 4.5 16.5 4.5c18 0 33 -8 45 -24c12 -15.333 18 -34.666 18 -57.999c0 -28 -6 -55 -18 -81c-6.66699 -13.333 -14.5 -27.833 -23.5 -43.5s-19.167 -32.5 -30.5 -50.5c-8.66699 -14 -15.834 -26.667 -21.501 -38s-10.167 -21.666 -13.5 -30.999
c-6 -18 -9 -37.667 -9 -59c0 -17.333 5 -35.333 15 -54c4 -8 8.66699 -15.833 14 -23.5s12.666 -16.834 21.999 -27.501l34 30c-6.66699 12 -11.334 21.333 -14.001 28l-6 15c-0.666992 3.33301 -1.16699 6.66602 -1.5 9.99902s-0.5 6.66602 -0.5 9.99902
c0 13.333 2.33301 26.666 7 39.999c4 13.333 13.333 30.666 28 51.999c16.667 23.333 31 44.666 43 63.999s21.667 36 29 50c14.667 29.333 22 64 22 104zM174.002 -12.9961v123h-90v-123h90z" />
    <glyph glyph-name="at" unicode="@" horiz-adv-x="840" 
d="M740 97l-58 -0.000976562c-11.333 -16.667 -25.166 -31.667 -41.499 -45s-36.166 -26 -59.499 -38c-46.667 -23.333 -99 -35 -157 -35c-70 0 -134 27 -192 81c-56.667 52.667 -85 121 -85 205c0 81.333 27.333 149.666 82 204.999c54.667 56 120 84 196 84
c74 0 136 -26.667 186 -80c19.333 -21.333 34.333 -44.333 45 -69s16 -51.667 16 -81c0 -58.667 -16.333 -108.667 -49 -150c-15.333 -19.333 -30 -34.166 -44 -44.499s-28.667 -16.166 -44 -17.499c-0.666992 3.33301 -1.33398 6.5 -2.00098 9.5s-1 6.5 -1 10.5
c-0.666992 1.33301 -0.833984 3.83301 -0.500977 7.5s0.5 6.5 0.5 8.5c0 1.33301 0.5 4.83301 1.5 10.5s1.83301 9.83398 2.5 12.501l60 283h-66l-9 -45c-12 17.333 -25.333 30.333 -40 39c-24 14 -46.333 21 -67 21c-62.667 0 -112.667 -25.667 -150 -77
c-36.667 -52 -55 -105.667 -55 -161c0 -54 14.333 -96.333 43 -127c28.667 -30 61.667 -45 99 -45c24 0 47.333 6.66699 70 20c9.33301 5.33301 17.833 11.333 25.5 18s15.167 13.667 22.5 21c4.66699 -21.333 10 -35.333 16 -42
c5.33301 -5.33301 10.666 -9.83301 15.999 -13.5s11.333 -5.5 18 -5.5c25.333 0 49.333 7 72 21s44.667 33.667 66 59c42.667 51.333 64 113 64 185c0 76 -28 142 -84 198s-127.333 84 -214 84c-91.333 0 -168.666 -33.667 -231.999 -101s-95 -145.333 -95 -234
c0 -91.333 31 -170.333 93 -237c62 -68.667 142.333 -103 241 -103c68.667 0 131.667 17 189 51c28 15.333 51.667 32.166 71 50.499s36 40.5 50 66.5zM498 311.999c0 -32 -13.667 -73.668 -41 -125.001c-25.333 -48.667 -57.666 -73 -96.999 -73
c-19.333 0 -38.333 9.66699 -57 29c-18 18 -27 46.333 -27 85c0 22.667 3.16699 44.834 9.5 66.501s16.166 42.5 29.499 62.5c26 40 57.667 60 95 60c26 0 47 -10 63 -30c16.667 -20.667 25 -45.667 25 -75z" />
    <glyph glyph-name="A" unicode="A" horiz-adv-x="700" 
d="M698 -13l-325 713h-45l-327 -713h83l108 237h317l108 -237h81zM477 293h-254l127 278z" />
    <glyph glyph-name="B" unicode="B" horiz-adv-x="558" 
d="M520 185c0 50.667 -16.333 91.9971 -49 123.997c-24 22.667 -54.667 39.334 -92 50.001c28 18 48.667 39.667 62 65c13.333 24.667 20 51.334 20 80.001c0 60 -21.333 107.333 -64 142c-41.333 32.667 -98 49 -170 49h-160v-708h211c74 0 132.667 17.333 176 52
c44 34.667 66 83.334 66 146.001zM379 498.997c0 -39.333 -13.999 -69.333 -41.999 -90c-28.667 -20.667 -70.334 -31 -125.001 -31h-67v248h64c57.333 0 100.333 -10.667 129 -32c27.333 -20 41 -51.667 41 -95zM439.001 179.997
c0 -39.333 -14.668 -69.666 -44.001 -90.999c-31.333 -22 -73.666 -33 -126.999 -33h-123v254h106c32 0 59.667 -2.83301 83 -8.5s43 -13.834 59 -24.501c30.667 -20.667 46 -53 46 -97z" />
    <glyph glyph-name="C" unicode="C" horiz-adv-x="711" 
d="M678 49l0.000976562 83c-24 -13.333 -45.667 -24.5 -65 -33.5s-39.333 -17.167 -60 -24.5c-39.333 -14.667 -83 -22 -131 -22c-86 0 -156.667 27 -212 81c-54 52.667 -81 122 -81 208c0 82 27.667 150.667 83 206c28 27.333 59 48 93 62s72 21 114 21
c43.333 0 84 -6.33301 122 -19c20.667 -6.66699 41 -14.167 61 -22.5s42.667 -20.166 68 -35.499v89c-20.667 10.667 -40.834 19.667 -60.501 27s-40.5 13.666 -62.5 18.999c-42 10.667 -81.667 16 -119 16c-109.333 0 -200 -34.667 -272 -104
c-72.667 -68.667 -109 -155 -109 -259c0 -106 36.333 -193 109 -261c72 -68 163.667 -102 275 -102c38.667 0 80.667 6.66699 126 20c21.333 6.66699 42 14 62 22s39.667 17.667 59 29z" />
    <glyph glyph-name="D" unicode="D" horiz-adv-x="777" 
d="M713 340c0 109.333 -34.333 196 -103 260c-68.667 63.333 -161 95 -277 95h-255v-708h263c116 0 207 33 273 99s99 150.667 99 254zM631 340c0 -86 -27.667 -154.667 -83 -206c-56 -52 -130 -78 -222 -78h-170v570h173c92 0 165.333 -26.333 220 -79s82 -121.667 82 -207
z" />
    <glyph glyph-name="E" unicode="E" horiz-adv-x="515" 
d="M472 -13v70h-327v252h311v69h-311v248h320v69h-398v-708h405z" />
    <glyph glyph-name="F" unicode="F" horiz-adv-x="460" 
d="M437 626v69h-378v-708h78v336h269v69h-269v234h300z" />
    <glyph glyph-name="G" unicode="G" horiz-adv-x="755" 
d="M694 41v282.003h-221v-70h144v-163c-7.33301 -4.66699 -16.666 -9 -27.999 -13s-24.333 -8 -39 -12c-30 -8.66699 -64 -13 -102 -13c-47.333 0 -89.5 6.83301 -126.5 20.5s-69.833 33.5 -98.5 59.5c-56 52 -84 122 -84 210c0 83.333 27.667 152 83 206
c56.667 54.667 126.334 82 209.001 82c20 0 40 -1.66699 60 -5s40 -8 60 -14s40 -13.5 60 -22.5s43.667 -21.5 71 -37.5v89c-13.333 8 -28.333 15.167 -45 21.5s-36.334 13.166 -59.001 20.499s-46.167 12.833 -70.5 16.5s-49.833 5.5 -76.5 5.5
c-105.333 0 -194.333 -34.667 -267 -104c-71.333 -69.333 -107 -155 -107 -257c0 -104 36.667 -191 110 -261c73.333 -69.333 164.666 -104 273.999 -104c23.333 0 46.333 1.66699 69 5s44.667 7.66602 66 12.999s41.5 11.666 60.5 18.999s38.167 16 57.5 26z" />
    <glyph glyph-name="H" unicode="H" horiz-adv-x="755" 
d="M670 -13v708h-78v-316h-429v316h-78v-708h78v324h429v-324h78z" />
    <glyph glyph-name="I" unicode="I" horiz-adv-x="218" 
d="M148 -13v708h-77v-708h77z" />
    <glyph glyph-name="J" unicode="J" horiz-adv-x="218" 
d="M149 -7l-0.000976562 702h-78v-691c0 -24 -2 -45 -6 -63s-9.66699 -33.333 -17 -46c-13.333 -22 -33.333 -33 -60 -33l-47 5l8 -76l44 -2c23.333 -1.33301 44.333 2.66699 63 12s35.334 22.333 50.001 39c15.333 17.333 26.333 38.833 33 64.5s10 55.167 10 88.5z" />
    <glyph glyph-name="K" unicode="K" horiz-adv-x="566" 
d="M579 -13l-370 355l337 353h-101l-309 -322v322h-78v-708h78v326l339 -326h104z" />
    <glyph glyph-name="L" unicode="L" horiz-adv-x="492" 
d="M473 -13v70h-337v638h-78v-708h415z" />
    <glyph glyph-name="M" unicode="M" horiz-adv-x="820" 
d="M735 -13v708h-72l-253 -310l-254 310h-71v-708h78v585l247 -306l247 306v-585h78z" />
    <glyph glyph-name="N" unicode="N" horiz-adv-x="810" 
d="M726 -13v708h-78v-577l-119 139l-119 134l-130 148l-132 156h-63v-708h78v576l499 -576h64z" />
    <glyph glyph-name="O" unicode="O" horiz-adv-x="864" 
d="M806 341c0 103.333 -35.999 189.666 -107.999 258.999c-71.333 69.333 -160 104 -266 104c-105.333 0 -194 -35 -266 -105c-71.333 -68.667 -107 -154.667 -107 -258c0 -51.333 9 -98.666 27 -141.999s45 -82.333 81 -117c71.333 -69.333 159.666 -104 264.999 -104
s194 35 266 105c72 68.667 108 154.667 108 258zM724.001 341c0 -78.667 -28.668 -146.667 -86.001 -204c-56 -56.667 -124.667 -85 -206 -85s-150.333 28.333 -207 85c-56 56 -84 124 -84 204c0 79.333 28.333 147.333 85 204s125.334 85 206.001 85
c81.333 0 150 -28.333 206 -85c57.333 -57.333 86 -125.333 86 -204z" />
    <glyph glyph-name="P" unicode="P" horiz-adv-x="536" 
d="M499 500c0 63.333 -20.333 112 -61 146c-40.667 32.667 -96.667 49 -168 49h-206v-708h78v320h123c72.667 0 129.667 16.333 171 49c42 34 63 82 63 144zM418 501c0 -41.333 -13.332 -72.333 -39.999 -93c-27.333 -22 -66.333 -33 -117 -33h-119v251h125
c47.333 0 84.666 -11.667 111.999 -35c26 -21.333 39 -51.333 39 -90z" />
    <glyph glyph-name="Q" unicode="Q" horiz-adv-x="864" 
d="M806 341c0 102.667 -36 188.999 -108 258.999c-71.333 69.333 -160 104 -266 104c-105.333 0 -194 -35 -266 -105c-71.333 -68.667 -107 -154.667 -107 -258s35.667 -189.666 107 -258.999c58 -57.333 132.333 -91 223 -101c53.333 -47.333 111.333 -81.666 174 -102.999
c32.667 -11.333 61.334 -19.833 86.001 -25.5s47.667 -8.5 69 -8.5l-6 78c-2.66699 0.666992 -9.33398 1.5 -20.001 2.5s-23 2.66699 -37 5s-28.167 5 -42.5 8s-26.833 6.83301 -37.5 11.5c-13.333 5.33301 -25.833 11 -37.5 17s-23.167 12.667 -34.5 20
c76 12 141 44 195 96c36 34.667 63 73.667 81 117s27 90.666 27 141.999zM724 340.999c0 -78.667 -28.668 -146.667 -86.001 -204c-56 -56.667 -124.667 -85 -206 -85s-150.333 28.333 -207 85c-56 56 -84 124 -84 204c0 79.333 28.333 147.333 85 204
s125.334 85 206.001 85c81.333 0 150 -28.333 206 -85c57.333 -57.333 86 -125.333 86 -204z" />
    <glyph glyph-name="R" unicode="R" horiz-adv-x="602" 
d="M618 -13l-141.003 215.997l-28 42l-30 43c-8 11.333 -15.667 21 -23 29s-14.666 14.667 -21.999 20c27.333 10.667 52.666 28 75.999 52c28 30 42 68.333 42 115c0 62 -21.667 109.667 -65 143c-21.333 16.667 -46.666 28.834 -75.999 36.501s-62.666 11.5 -99.999 11.5
h-185v-708h78v328h92c22 0 40.833 -3.33301 56.5 -10s28.834 -15.667 39.501 -27c12 -13.333 23.667 -28.166 35 -44.499s23 -34.166 35 -53.499l124 -193h92zM409.997 504.997c0 -40 -14 -70.001 -42 -90.001c-28.667 -21.333 -69.667 -32 -123 -32h-101v243h106
c50 0 89.667 -11 119 -33c27.333 -19.333 41 -48.666 41 -87.999z" />
    <glyph glyph-name="S" unicode="S" horiz-adv-x="492" 
d="M450 173c0 56 -13.665 98.998 -40.998 128.998c-13.333 15.333 -32.333 29.833 -57 43.5s-54.334 26.834 -89.001 39.501c-50.667 18.667 -86.667 37 -108 55c-19.333 17.333 -29 42.333 -29 75c0 30.667 12.667 57.667 38 81c12.667 11.333 26.5 19.833 41.5 25.5
s32.167 8.5 51.5 8.5c30.667 0 58.667 -6 84 -18l38.5 -19.5c12.333 -6.33301 27.166 -14.5 44.499 -24.5l-2 87c-13.333 9.33301 -34.666 19.666 -63.999 30.999c-31.333 12 -67 18 -107 18c-56.667 0 -105.334 -19 -146.001 -57c-40.667 -37.333 -61 -82 -61 -134
c0 -52.667 14.333 -93.334 43 -122.001c13.333 -13.333 30.666 -26.166 51.999 -38.499s46.333 -23.166 75 -32.499c53.333 -18.667 93.333 -38.667 120 -60c23.333 -19.333 35 -47.333 35 -84c0 -35.333 -12.667 -64.666 -38 -87.999c-26 -24 -57.667 -36 -95 -36
c-23.333 0 -48 5.66699 -74 17c-13.333 6 -28.166 14 -44.499 24s-37.833 25 -64.5 45v-93c10 -8 21.5 -15.333 34.5 -22s27.833 -13.667 44.5 -21c34 -16 71.667 -24 113 -24c55.333 0 103.333 19.333 144 58c40.667 38 61 83.667 61 137z" />
    <glyph glyph-name="T" unicode="T" horiz-adv-x="602" 
d="M596 626v69h-590v-70h256v-638h78v639h256z" />
    <glyph glyph-name="U" unicode="U" horiz-adv-x="733" 
d="M665 296l-0.00195312 399.003h-78v-395c0 -38.667 -5.16699 -72.834 -15.5 -102.501s-25.166 -55.834 -44.499 -78.501c-39.333 -44.667 -92.333 -67 -159 -67c-68 0 -122 21.667 -162 65c-39.333 43.333 -59 102.666 -59 177.999v400h-78v-404
c0 -92.667 27.667 -168 83 -226c56 -58 127.667 -87 215 -87c88.667 0 160.334 30.333 215.001 91c55.333 59.333 83 135 83 227z" />
    <glyph glyph-name="V" unicode="V" horiz-adv-x="624" 
d="M626 695h-82l-232 -558l-233 558h-80l297 -715h32z" />
    <glyph glyph-name="W" unicode="W" horiz-adv-x="1083" 
d="M1075 695h-79l-218 -545l-220 545h-32l-221 -545l-217 545h-81l284 -715h31l220 555l221 -555h30z" />
    <glyph glyph-name="X" unicode="X" horiz-adv-x="742" 
d="M744 -13l-322 362l304 346h-102l-253 -288l-254 288h-102l304 -346l-320 -362h102l270 306l270 -306h103z" />
    <glyph glyph-name="Y" unicode="Y" horiz-adv-x="639" 
d="M639 695h-96l-221 -264l-223 264h-96l279 -334v-374h78v374z" />
    <glyph glyph-name="Z" unicode="Z" horiz-adv-x="667" 
d="M644 -13v70h-501l499 603l-9 35h-593v-70h474l-499 -607l10 -31h619z" />
    <glyph glyph-name="bracketleft" unicode="[" horiz-adv-x="317" 
d="M300 -233v73h-178v783h178v72h-251v-928h251z" />
    <glyph glyph-name="backslash" unicode="\" horiz-adv-x="295" 
d="M300 -22l-227 726h-72l226 -726h73z" />
    <glyph glyph-name="bracketright" unicode="]" horiz-adv-x="317" 
d="M269 -233v928h-251v-73h178v-783h-178v-72h251z" />
    <glyph glyph-name="asciicircum" unicode="^" horiz-adv-x="693" 
d="M584 429l-229 272h-18l-227 -272l50 -45l186 224l188 -224z" />
    <glyph glyph-name="underscore" unicode="_" horiz-adv-x="525" 
d="M532 -279v75h-538v-75h538z" />
    <glyph glyph-name="grave" unicode="`" 
d="M295 509l-120 181h-118l178 -182z" />
    <glyph glyph-name="a" unicode="a" horiz-adv-x="536" 
d="M478 -15l-0.000976562 477.001h-72v-29c-19.333 10.667 -40 19.667 -62 27c-20.667 7.33301 -41 11 -61 11c-69.333 0 -127 -24.667 -173 -74c-44 -48 -66 -109.667 -66 -185c0 -68 21.667 -124 65 -168c42.667 -44 97.667 -66 165 -66c27.333 0 54 3.66699 80 11
c8.66699 2.66699 17.334 6.16699 26.001 10.5s17 8.16602 25 11.499v-26h73zM405.999 87.001c-7.33301 -4 -15 -8.83301 -23 -14.5s-16.667 -10.167 -26 -13.5c-20 -8 -45 -12 -75 -12c-25.333 0 -47.5 3.83301 -66.5 11.5s-36.167 19.167 -51.5 34.5
c-29.333 29.333 -44 69.333 -44 120c0 54 16.667 98.333 50 133c32 35.333 73.333 53 124 53c25.333 0 49 -4.66699 71 -14c9.33301 -4 17.333 -8.5 24 -13.5l17 -12.5v-272z" />
    <glyph glyph-name="b" unicode="b" horiz-adv-x="536" 
d="M491 236c0 34.667 -4.83398 66.332 -14.501 94.999s-24.5 53.667 -44.5 75c-38.667 43.333 -90.667 65 -156 65c-15.333 0 -30.166 -1.66699 -44.499 -5s-28.833 -8 -43.5 -14c-10 -4.66699 -19.833 -10.334 -29.5 -17.001s-19.167 -14.667 -28.5 -24v284h-74l2 -678
c14.667 -7.33301 28.5 -13.166 41.5 -17.499s26.5 -8.16602 40.5 -11.499c26 -6.66699 53.667 -10 83 -10c82.667 0 148 24 196 72c48 49.333 72 111.333 72 186zM415.999 233.998c0 -52.667 -18 -96.333 -54 -131c-35.333 -35.333 -79.333 -53 -132 -53
c-26 0 -49 2.66699 -69 8c-16 4 -26.333 7.33301 -31 10v260c13.333 15.333 32 32 56 50c26 18.667 55.667 28 89 28c40.667 0 74 -16 100 -48c27.333 -32.667 41 -74 41 -124z" />
    <glyph glyph-name="c" unicode="c" horiz-adv-x="438" 
d="M407 5l0.000976562 78.0029c-14 -6 -25.833 -10.667 -35.5 -14l-29.5 -10c-20 -6 -42 -9 -66 -9c-26 0 -48.833 4 -68.5 12s-36.5 19.667 -50.5 35c-29.333 31.333 -44 73.666 -44 126.999c0 51.333 14.667 93.666 44 126.999c28 32 65.667 48 113 48
c23.333 0 44.333 -3.33301 63 -10l28.5 -10c9.66699 -3.33301 22.167 -8.66602 37.5 -15.999v82c-13.333 4.66699 -25 8.5 -35 11.5s-20 5.5 -30 7.5c-18.667 4.66699 -40.334 7 -65.001 7c-70 0 -126.667 -24.667 -170 -74c-41.333 -47.333 -62 -105 -62 -173
c0 -74.667 21 -134.334 63 -179.001c42.667 -44.667 100.667 -67 174 -67c13.333 0 26.333 0.833008 39 2.5s25.334 4.16699 38.001 7.5l29.5 8.5c8.33301 2.33301 17.166 5.16602 26.499 8.49902z" />
    <glyph glyph-name="d" unicode="d" horiz-adv-x="536" 
d="M480 -13v707.997h-73v-253c-7.33301 4 -15.333 7.5 -24 10.5l-28 9.5c-20 6 -40.667 9 -62 9c-36 0 -69 -5.66699 -99 -17s-56.333 -28.666 -79 -51.999c-46 -46 -69 -105.333 -69 -178c0 -69.333 23.333 -127.666 70 -174.999c46 -47.333 103 -71 171 -71
c12.667 0 25.167 0.833008 37.5 2.5s24.166 4.5 35.499 8.5c7.33301 2.66699 14.833 6.83398 22.5 12.501s15.834 11.167 24.501 16.5v-31h73zM406 90.9971c-3.33301 -2.66699 -7.83398 -6.49902 -13.501 -11.499s-12.5 -9.83301 -20.5 -14.5
c-9.33301 -4.66699 -20.166 -8.33398 -32.499 -11.001s-26.5 -4 -42.5 -4c-50 0 -92 17 -126 51c-32.667 32.667 -49 73.667 -49 123c0 52 16 94 48 126c30.667 32.667 71 49 121 49c26.667 0 50.334 -4.66699 71.001 -14l25 -12.5
c7.33301 -3.66699 13.666 -7.5 18.999 -11.5v-270z" />
    <glyph glyph-name="e" unicode="e" horiz-adv-x="503" 
d="M469 229c0 39.333 -5 73.168 -15 101.501s-24.667 53.166 -44 74.499c-40 44 -91 66 -153 66c-64 0 -116.667 -23.667 -158 -71c-40.667 -45.333 -61 -101.666 -61 -168.999c0 -72.667 22.667 -133.334 68 -182.001c46 -47.333 104.333 -71 175 -71
c38 0 73.333 7.66699 106 23c14 6 26.833 12.667 38.5 20s23.167 15.333 34.5 24v89c-16.667 -15.333 -31 -27.333 -43 -36s-25.333 -17 -40 -25c-27.333 -15.333 -58 -23 -92 -23c-25.333 0 -48 4.33301 -68 13s-38.333 21 -55 37c-30.667 30.667 -47 67.667 -49 111v18
h356zM381 288.002l-257 0.00195312c3.33301 11.333 7.5 22.666 12.5 33.999s10.5 20.666 16.5 27.999c26 32.667 61 49 105 49c19.333 0 36 -2.83301 50 -8.5s26 -13.5 36 -23.5c9.33301 -9.33301 17 -21 23 -35s10.667 -29 14 -45v1z" />
    <glyph glyph-name="f" unicode="f" horiz-adv-x="252" 
d="M325 610l0.00488281 69.002c-4.66699 3.33301 -9.83398 6 -15.501 8l-22.5 8c-8.66699 2.66699 -17.5 4.83398 -26.5 6.50098s-18.833 2.5 -29.5 2.5c-48.667 0 -89.334 -17 -122.001 -51c-31.333 -34.667 -47 -78 -47 -130v-62h-83v-64h83v-410h73v411h87v64h-87v46
c0 23.333 2.16699 42.666 6.5 57.999s10.166 27.666 17.499 36.999c15.333 19.333 38.333 29 69 29c17.333 0 34.666 -2.66699 51.999 -8c7.33301 -2.66699 14.166 -4.83398 20.499 -6.50098s14.5 -4.16699 24.5 -7.5z" />
    <glyph glyph-name="g" unicode="g" horiz-adv-x="536" 
d="M479 -92l-1.00195 1.00098v553h-72v-29c-19.333 10.667 -40 19.667 -62 27c-20.667 7.33301 -41 11 -61 11c-70 0 -127.667 -24.667 -173 -74c-44 -46.667 -66 -108.334 -66 -185.001c0 -67.333 21.333 -123.333 64 -168c44 -44 99 -66 165 -66
c26.667 0 53.667 3.66699 81 11l26 8c8.66699 2.66699 17 5.66699 25 9v-108c0 -15.333 -10.5 -29 -31.5 -41s-49.833 -18 -86.5 -18c-28.667 0 -52 7.5 -70 22.5s-33 35.167 -45 60.5l-75 -2c10 -30 21 -54.5 33 -73.5s26 -35.167 42 -48.5s34.333 -21.666 55 -24.999
s40.667 -5 60 -5c36 0 66 4.83301 90 14.5s42.833 21.167 56.5 34.5s23.834 27.166 30.501 41.499s10.834 26 12.501 35s2.5 13.833 2.5 14.5zM405.998 82.001l-23 -12c-8 -4 -16.667 -7.66699 -26 -11c-20 -8 -45 -12 -75 -12c-25.333 0 -47.5 3.83301 -66.5 11.5
s-36.167 19.167 -51.5 34.5c-29.333 29.333 -44 69.333 -44 120c0 54 16.333 98.333 49 133c33.333 35.333 74.666 53 123.999 53c14 0 26.833 -1.16699 38.5 -3.5s22.834 -5.83301 33.501 -10.5c9.33301 -4 17.333 -8.5 24 -13.5l17 -12.5v-277z" />
    <glyph glyph-name="h" unicode="h" horiz-adv-x="515" 
d="M453 -13l-0.00195312 284c0 30 -4 57.333 -12 82s-20.667 46 -38 64c-34 36 -78.667 54 -134 54c-30.667 0 -59 -7.33301 -85 -22c-17.333 -10 -33.666 -25.667 -48.999 -47v293h-73v-708h73v326c7.33301 11.333 15.333 22 24 32s18.334 19.333 29.001 28
c20.667 17.333 47.667 26 81 26c36 0 63.333 -12.333 82 -37c9.33301 -11.333 16.5 -26 21.5 -44s7.5 -38.667 7.5 -62v-269h73z" />
    <glyph glyph-name="i" unicode="i" horiz-adv-x="197" 
d="M135 588v107h-73v-108zM135 -13v475h-73v-475h73z" />
    <glyph glyph-name="j" unicode="j" horiz-adv-x="197" 
d="M136 588v107h-73v-108zM136 -32l0.000976562 494h-73v-509c0 -52 -7 -86.333 -21 -103c-14 -18 -33.333 -27 -58 -27h-21l21 -66c22 0 41.5 4 58.5 12s33.167 19.333 48.5 34c15.333 15.333 26.666 36.833 33.999 64.5s11 61.167 11 100.5z" />
    <glyph glyph-name="k" unicode="k" horiz-adv-x="486" 
d="M519 -13l-299 249l260 226h-101l-262 -226l298 -249h104zM141 -13v249v459h-73v-708h73z" />
    <glyph glyph-name="l" unicode="l" horiz-adv-x="197" 
d="M135 -13v708h-73v-708h73z" />
    <glyph glyph-name="m" unicode="m" horiz-adv-x="810" 
d="M741 -13l-0.00195312 283.997c0 57.333 -14 105 -42 143c-30 38 -68.333 57 -115 57h-12c-42 0 -77 -13 -105 -39c-9.33301 -9.33301 -18.166 -18.666 -26.499 -27.999s-15.5 -18.666 -21.5 -27.999c-16.667 32.667 -35.667 56.334 -57 71.001
c-12.667 7.33301 -25.667 13.166 -39 17.499s-26.666 6.5 -39.999 6.5h-12c-30.667 0 -58.667 -7.33301 -84 -22c-15.333 -8.66699 -31.333 -24 -48 -46v59h-72v-475h73v325c15.333 24.667 32.333 45.334 51 62.001s43.334 25 74.001 25c33.333 0 59 -12 77 -36
c17.333 -24.667 26 -60.334 26 -107.001v-269h73v315c14.667 24 32 46 52 66c20 20.667 42.667 31 68 31c33.333 0 59.666 -12.333 78.999 -37c18.667 -23.333 28 -58.666 28 -105.999v-269h73z" />
    <glyph glyph-name="n" unicode="n" horiz-adv-x="515" 
d="M453 -13l-0.00195312 284c0 30 -4 57.333 -12 82s-20.667 46 -38 64c-34 36 -78.667 54 -134 54c-31.333 0 -60 -7.33301 -86 -22c-17.333 -10 -33.666 -25.667 -48.999 -47v60h-72v-475h73v326c7.33301 11.333 15.333 22 24 32s18.334 19.333 29.001 28
c20.667 17.333 47.667 26 81 26c36 0 63.333 -12.333 82 -37c9.33301 -11.333 16.5 -26 21.5 -44s7.5 -38.667 7.5 -62v-269h73z" />
    <glyph glyph-name="o" unicode="o" horiz-adv-x="569" 
d="M526 224c0 69.333 -23 128 -69 176c-46 47.333 -103.333 71 -172 71c-70 0 -127.667 -23.667 -173 -71c-46 -48 -69 -106.667 -69 -176c0 -68 23.333 -126.333 70 -175c45.333 -47.333 102.666 -71 171.999 -71c68.667 0 126.334 23.667 173.001 71
c45.333 48.667 68 107 68 175zM450 224c0 -48 -16 -89 -48 -123c-33.333 -34 -72.333 -51 -117 -51c-45.333 0 -84.333 17.333 -117 52c-32.667 32.667 -49 73.334 -49 122.001c0 49.333 16.333 90.666 49 123.999c32 34 71 51 117 51c45.333 0 84.333 -17.333 117 -52
c32 -33.333 48 -74.333 48 -123z" />
    <glyph glyph-name="p" unicode="p" horiz-adv-x="536" 
d="M509 225c0 72 -22.666 131 -67.999 177s-103 69 -173 69c-9.33301 0 -19 -0.833008 -29 -2.5s-20 -4.16699 -30 -7.5c-11.333 -3.33301 -21.833 -7 -31.5 -11s-18.167 -7.66699 -25.5 -11v23h-74v-705h73v249c8.66699 -4 17.167 -7.66699 25.5 -11s16.833 -6 25.5 -8
c22.667 -6 48 -9 76 -9c63.333 0 117.666 25 162.999 75c45.333 48.667 68 106 68 172zM431.001 224c0 -50.667 -15.667 -92.3291 -47 -124.996c-30 -32.667 -70.667 -49 -122 -49c-13.333 0 -25.833 1.16699 -37.5 3.5s-22.5 5.16602 -32.5 8.49902
c-8 3.33301 -15.5 6.16602 -22.5 8.49902s-13.167 5.16602 -18.5 8.49902v287c4 2.66699 9.16699 5.16699 15.5 7.5s13.5 5.16602 21.5 8.49902l30.5 11c11 4 23.5 6 37.5 6c50 0 91.667 -17 125 -51c33.333 -32 50 -73.333 50 -124z" />
    <glyph glyph-name="q" unicode="q" horiz-adv-x="536" 
d="M478 -243v705h-72v-29c-19.333 10.667 -40 19.667 -62 27c-20.667 7.33301 -41 11 -61 11c-69.333 0 -127 -24.667 -173 -74c-44 -48 -66 -109.667 -66 -185c0 -68 21.667 -124 65 -168c42.667 -44 97.667 -66 165 -66c27.333 0 54 3.66699 80 11l26 8
c8.66699 2.66699 17 5.66699 25 9v-249h73zM406 82l-23 -12c-8 -4 -16.667 -7.66699 -26 -11c-20 -8 -45 -12 -75 -12c-25.333 0 -47.5 3.83301 -66.5 11.5s-36.167 19.167 -51.5 34.5c-29.333 29.333 -44 69.333 -44 120c0 54 16.667 98.333 50 133
c32 35.333 73.333 53 124 53c25.333 0 49 -4.66699 71 -14c9.33301 -4 17.333 -8.5 24 -13.5l17 -12.5v-277z" />
    <glyph glyph-name="r" unicode="r" horiz-adv-x="371" 
d="M393 405c-10 12 -25.332 25.3359 -45.999 40.0029c-11.333 8 -22.833 14.333 -34.5 19s-24.167 7 -37.5 7c-14 0 -28.667 -1.33301 -44 -4s-30.666 -10.667 -45.999 -24c-10 -8.66699 -20.5 -19.834 -31.5 -33.501s-19.5 -25.5 -25.5 -35.5v88h-73v-475h73v293
c13.333 21.333 32.666 46.666 57.999 75.999c26.667 28.667 51.667 43 75 43c10.667 0 22.334 -4.33301 35.001 -13c7.33301 -4 15.166 -9.33301 23.499 -16s19.166 -16.334 32.499 -29.001z" />
    <glyph glyph-name="s" unicode="s" horiz-adv-x="372" 
d="M342 116c0 40.667 -14 71.9971 -42 93.9971c-25.333 20.667 -58.333 38 -99 52c-15.333 5.33301 -28.666 10.833 -39.999 16.5s-21.333 11.5 -30 17.5c-14.667 10.667 -22 24.667 -22 42c0 16 7.33301 31 22 45c7.33301 6 16.166 10.667 26.499 14s22.833 5 37.5 5
c19.333 0 39.333 -4.33301 60 -13c10 -4.66699 20.333 -10.167 31 -16.5s24.667 -16.166 42 -29.499v82c-14.667 12.667 -33.334 23.334 -56.001 32.001c-24.667 9.33301 -51.667 14 -81 14c-20 0 -38.667 -3.33301 -56 -10s-33.666 -16 -48.999 -28
c-32 -25.333 -48 -57.333 -48 -96c0 -34.667 11.333 -63 34 -85c10.667 -10.667 23.5 -20.167 38.5 -28.5s32.167 -16.166 51.5 -23.499c48 -17.333 78.667 -32.333 92 -45c11.333 -11.333 17 -24 17 -38c0 -20.667 -7.66699 -36.667 -23 -48
c-16.667 -12.667 -38 -19 -64 -19c-22 0 -45 4.33301 -69 13c-12 4 -24 8.83301 -36 14.5s-26.667 14.167 -44 25.5v-78c8.66699 -5.33301 17.5 -10.5 26.5 -15.5s19.833 -10.167 32.5 -15.5c24.667 -11.333 54.667 -17 90 -17c44.667 0 82 13.667 112 41
c30.667 27.333 46 60 46 98z" />
    <glyph glyph-name="t" unicode="t" horiz-adv-x="317" 
d="M322 5l0.00390625 75l-36.5 -16c-7.66699 -3.33301 -14.834 -6 -21.501 -8c-12 -4 -23.333 -6 -34 -6c-14 0 -24.667 1.33301 -32 4s-12.333 5.66699 -15 9c-3.33301 3.33301 -5.83301 9.83301 -7.5 19.5s-2.5 23.5 -2.5 41.5v274h126v64h-126v149h-32l-41 -28v-122h-121
v-64h121v-306c0 -16.667 2.5 -32 7.5 -46s13.167 -26.333 24.5 -37c20.667 -20 49 -30 85 -30c9.33301 0 18.166 0.666992 26.499 2s16.166 3 23.499 5s15.166 4.5 23.499 7.5s18.833 7.16699 31.5 12.5z" />
    <glyph glyph-name="u" unicode="u" horiz-adv-x="515" 
d="M453 -13l-0.000976562 474.997h-73v-324c-10 -19.333 -27.333 -38.666 -52 -57.999c-24 -20 -51.333 -30 -82 -30c-35.333 0 -62.666 11.333 -81.999 34s-29 55.334 -29 98.001v280h-73v-290c0 -62.667 16.667 -110.667 50 -144s80 -50 140 -50
c27.333 0 54 7.33301 80 22c16.667 8.66699 32.667 23.334 48 44.001v-57h73z" />
    <glyph glyph-name="v" unicode="v" horiz-adv-x="448" 
d="M457 462h-74l-154 -360l-161 360h-76l215 -484h46z" />
    <glyph glyph-name="w" unicode="w" horiz-adv-x="743" 
d="M744 462h-74l-147 -346l-133 346h-40l-133 -345l-144 345h-74l203 -484h39l130 343l129 -343h40z" />
    <glyph glyph-name="x" unicode="x" horiz-adv-x="539" 
d="M541 462h-97l-170 -181l-171 181h-96l217 -232l-216 -243h95l171 191l170 -191h95l-216 243z" />
    <glyph glyph-name="y" unicode="y" horiz-adv-x="457" 
d="M460 462h-77l-146 -299l-154 299h-80l196 -376l-163 -329h77z" />
    <glyph glyph-name="z" unicode="z" horiz-adv-x="416" 
d="M409 431l-8 31h-377v-70h268l-286 -375l10 -30h392v70h-283z" />
    <glyph glyph-name="braceleft" unicode="{" 
d="M307 -233l-0.00195312 79.999h-29c-17.333 0 -32 5.33301 -44 16c-4.66699 4 -8.33398 10.833 -11.001 20.5s-4 23.167 -4 40.5v126c0 27.333 -2.33301 51.833 -7 73.5s-12 40.5 -22 56.5c-15.333 23.333 -33.666 40.333 -54.999 51c22 12 40.333 29.333 55 52
c19.333 31.333 29 74.333 29 129v126c0 17.333 1.5 30.833 4.5 40.5s6.83301 16.834 11.5 21.501c10.667 10.667 25 16 43 16h29v79h-26c-25.333 0 -47.666 -4 -66.999 -12s-34.666 -20.667 -45.999 -38c-20 -30.667 -30 -68.334 -30 -113.001v-145
c0 -34.667 -7 -61.667 -21 -81c-6 -8.66699 -14.667 -15.667 -26 -21s-26.666 -9.66602 -45.999 -12.999v-82c19.333 -3.33301 34.666 -7.66602 45.999 -12.999s20 -12.333 26 -21c14 -19.333 21 -46.333 21 -81v-145c0 -44.667 10.333 -82.334 31 -113.001
c11.333 -17.333 26.5 -30 45.5 -38s41.167 -12 66.5 -12h26z" />
    <glyph glyph-name="bar" unicode="|" horiz-adv-x="233" 
d="M153 -295v1025h-73v-1025h73z" />
    <glyph glyph-name="braceright" unicode="}" 
d="M306 190l-0.000976562 82.0059c-20 3.33301 -35.667 7.66602 -47 12.999s-20.333 12.333 -27 21c-13.333 18.667 -20 45.667 -20 81v145c0 43.333 -10.333 81 -31 113c-22.667 33.333 -60.334 50 -113.001 50h-25v-80h28c18.667 0 33.334 -5.33301 44.001 -16
c4.66699 -4 8.5 -10.833 11.5 -20.5s4.5 -23.167 4.5 -40.5v-126c0 -27.333 2.33301 -51.833 7 -73.5s12.334 -40.5 23.001 -56.5c14 -23.333 32 -40.333 54 -51c-22 -10.667 -40.333 -28 -55 -52c-10 -15.333 -17.333 -33.833 -22 -55.5s-7 -46.167 -7 -73.5v-126
c0 -17.333 -1.5 -30.833 -4.5 -40.5s-7.16699 -16.834 -12.5 -21.501c-10.667 -10.667 -25 -16 -43 -16h-28v-79h25c25.333 0 47.833 4 67.5 12s35.167 20.667 46.5 38c9.33301 15.333 16.666 32.666 21.999 51.999s8 39.666 8 60.999v145c0 18 1.83301 33.667 5.5 47
s8.83398 24.666 15.501 33.999c6.66699 8.66699 15.5 15.667 26.5 21s26.5 9.66602 46.5 12.999z" />
    <glyph glyph-name="asciitilde" unicode="~" horiz-adv-x="693" 
d="M623 416l-50 -33.498l-37 -23.5c-24 -14.667 -45.333 -22 -64 -22c-22 0 -61 13 -117 39c-56 27.333 -101 41 -135 41c-18 0 -34.833 -2.66699 -50.5 -8s-30.834 -12.666 -45.501 -21.999l-32.5 -21.5c-8.33301 -5.66699 -15.166 -10.5 -20.499 -14.5v-87
c18 15.333 33 27.166 45 35.499s24.333 16.166 37 23.499c26 14.667 48.667 22 68 22c22 0 61 -13 117 -39c56 -27.333 101 -41 135 -41c17.333 0 33.833 2.66699 49.5 8s30.834 12.666 45.501 21.999l32.5 21.5c8.33301 5.66699 15.166 10.5 20.499 14.5z" />
    <glyph glyph-name="exclamdown" unicode="&#xa1;" horiz-adv-x="186" 
d="M138 352v122h-90v-123zM138 -234l-18 516h-55l-18 -516h91z" />
    <glyph glyph-name="cent" unicode="&#xa2;" horiz-adv-x="438" 
d="M427 651l-70.998 0.000976562l-64 -182c-4.66699 0.666992 -9.66699 1 -15 1h-16c-71.333 0 -128 -24.333 -170 -73c-41.333 -46 -62 -103.667 -62 -173c0 -36.667 5.16699 -70 15.5 -100s26.166 -56.333 47.499 -79c5.33301 -5.33301 11.166 -10.5 17.499 -15.5
s13.5 -10.167 21.5 -15.5l-76 -216h71l67 190c18 -6.66699 42.333 -10 73 -10c13.333 0 26.333 0.833008 39 2.5s25 4.16699 37 7.5l30.5 8.5c8.33301 2.33301 17.166 5.16602 26.499 8.49902v78c-14.667 -6 -26.667 -10.667 -36 -14l-29 -10c-20 -6 -42 -9 -66 -9
c-10.667 0 -20.167 0.666992 -28.5 2s-15.833 3 -22.5 5l117 329c0.666992 0 1.16699 -0.166992 1.5 -0.5s0.833008 -0.5 1.5 -0.5c15.333 -4.66699 33.333 -12 54 -22v82l-18 5.5c-5.33301 1.66699 -10.666 3.16699 -15.999 4.5zM266.002 398.001l-108 -309
c-8 6.66699 -14.333 13 -19 19c-22.667 29.333 -34 68 -34 116c0 50.667 14.333 93 43 127c26 28.667 59.333 44 100 46c3.33301 0.666992 6.33301 1 9 1h9z" />
    <glyph glyph-name="sterling" unicode="&#xa3;" horiz-adv-x="580" 
d="M544 617l-38.0029 75.9971l-53 11c-64.667 0 -119 -27 -163 -81c-21.333 -26 -38.666 -52.167 -51.999 -78.5s-24.666 -52.5 -33.999 -78.5l-33 -100h-99v-72h83c-6.66699 -13.333 -19.334 -55.333 -38.001 -126l-28 -102.5
c-6.66699 -23.667 -12.334 -37.5 -17.001 -41.5v-44l46.5 8.5c13 2.33301 25.833 4.5 38.5 6.5c12 1.33301 25 2.5 39 3.5s28.667 1.5 44 1.5s31.833 -1 49.5 -3s36.5 -4.66699 56.5 -8c21.333 -3.33301 39 -6 53 -8s24.667 -3 32 -3c21.333 0 42 2.66699 62 8
c9.33301 2.66699 17.5 5.5 24.5 8.5l24.5 10.5v82c-17.333 -9.33301 -30.666 -15.833 -39.999 -19.5l-25 -9.5c-6 -2 -12.667 -3.66699 -20 -5s-15.666 -2 -24.999 -2c-5.33301 0 -12.166 0.666992 -20.499 2l-32.5 5c-5.33301 1.33301 -11.333 2.5 -18 3.5
s-13.667 2.16699 -21 3.5c-16 2.66699 -31.5 4.83398 -46.5 6.50098s-29.167 1.83398 -42.5 0.500977l-85 -5l60 228h123v72h-101l30 84c9.33301 26 20.333 49.833 33 71.5s27 41.167 43 58.5s33.333 30.333 52 39s39 12.334 61 11.001l25 -2z" />
    <glyph glyph-name="currency" unicode="&#xa4;" horiz-adv-x="711" 
d="M695 49l-0.000976562 83.001c-24 -13.333 -45.5 -24.5 -64.5 -33.5s-38.833 -17.167 -59.5 -24.5c-40 -14.667 -83.667 -22 -131 -22c-87.333 0 -158 27 -212 81c-23.333 22 -41.333 48 -54 78h488v65h-510l-4 31.5c-1.33301 11 -2 22.167 -2 33.5
c0 33.333 4.33301 63.333 13 90h503v65h-473c5.33301 9.33301 11.333 18.166 18 26.499s14.334 16.5 23.001 24.5c28 27.333 59 48 93 62s72 21 114 21c42.667 0 83.334 -6.33301 122.001 -19c20 -6.66699 40 -14.167 60 -22.5s42.667 -20.166 68 -35.499v89
c-20 10.667 -39.833 19.667 -59.5 27s-40.5 13.666 -62.5 18.999c-42 10.667 -81.667 16 -119 16c-108.667 0 -199.667 -34.667 -273 -104c-16 -15.333 -30.333 -31.833 -43 -49.5s-23.334 -36.167 -32.001 -55.5h-85v-65h62c-7.33301 -29.333 -11 -59 -11 -89
c0 -11.333 0.5 -22.5 1.5 -33.5s2.16699 -21.833 3.5 -32.5h-56v-65h73c18.667 -50 47.667 -93.333 87 -130c73.333 -68 165.333 -102 276 -102c38 0 80 6.66699 126 20c21.333 6.66699 41.833 14 61.5 22s39.167 17.667 58.5 29z" />
    <glyph glyph-name="currency" unicode="&#x20ac;" horiz-adv-x="711" 
d="M695 49l-0.000976562 83.001c-24 -13.333 -45.5 -24.5 -64.5 -33.5s-38.833 -17.167 -59.5 -24.5c-40 -14.667 -83.667 -22 -131 -22c-87.333 0 -158 27 -212 81c-23.333 22 -41.333 48 -54 78h488v65h-510l-4 31.5c-1.33301 11 -2 22.167 -2 33.5
c0 33.333 4.33301 63.333 13 90h503v65h-473c5.33301 9.33301 11.333 18.166 18 26.499s14.334 16.5 23.001 24.5c28 27.333 59 48 93 62s72 21 114 21c42.667 0 83.334 -6.33301 122.001 -19c20 -6.66699 40 -14.167 60 -22.5s42.667 -20.166 68 -35.499v89
c-20 10.667 -39.833 19.667 -59.5 27s-40.5 13.666 -62.5 18.999c-42 10.667 -81.667 16 -119 16c-108.667 0 -199.667 -34.667 -273 -104c-16 -15.333 -30.333 -31.833 -43 -49.5s-23.334 -36.167 -32.001 -55.5h-85v-65h62c-7.33301 -29.333 -11 -59 -11 -89
c0 -11.333 0.5 -22.5 1.5 -33.5s2.16699 -21.833 3.5 -32.5h-56v-65h73c18.667 -50 47.667 -93.333 87 -130c73.333 -68 165.333 -102 276 -102c38 0 80 6.66699 126 20c21.333 6.66699 41.833 14 61.5 22s39.167 17.667 58.5 29z" />
    <glyph glyph-name="yen" unicode="&#xa5;" horiz-adv-x="584" 
d="M591 729h-100l-196 -342l-200 342h-101l213 -355h-175v-72h214l2 -16l-26 -35h-190v-72h216v-192h89v193h212v72h-212v47l6 4h206v72h-170z" />
    <glyph glyph-name="brokenbar" unicode="&#xa6;" horiz-adv-x="233" 
d="M153 313v450h-73v-451zM153 -263v451h-73v-451h73z" />
    <glyph glyph-name="section" unicode="&#xa7;" horiz-adv-x="416" 
d="M393 178c0 34 -8.99902 66 -26.999 96c-8.66699 14.667 -19 29.167 -31 43.5s-25.667 28.166 -41 41.499l-93 83c-22.667 20.667 -40.334 41.667 -53.001 63c-11.333 18.667 -17 37.334 -17 56.001c0 24 8.66699 42.333 26 55c18.667 13.333 37 20 55 20
c16.667 0 32 -5 46 -15c6 -4.66699 11.333 -10.834 16 -18.501s8.66699 -19.167 12 -34.5h76c-5.33301 29.333 -12.666 52.333 -21.999 69s-21.333 29.667 -36 39c-28 18.667 -57 28 -87 28c-44.667 0 -82.667 -12.667 -114 -38c-30 -26 -45 -62 -45 -108
c0 -24.667 5 -47.334 15 -68.001c8.66699 -18.667 19 -35.667 31 -51c-23.333 -22 -42.333 -46 -57 -72c-16 -29.333 -24 -57.333 -24 -84c0 -33.333 8.66699 -65.333 26 -96c18 -30 42.333 -58.333 73 -85l92 -83c22.667 -20.667 40.334 -41.667 53.001 -63s19 -40 19 -56
c0 -13.333 -2.16699 -24.166 -6.5 -32.499s-10.833 -15.833 -19.5 -22.5c-18 -13.333 -37 -20 -57 -20c-16.667 0 -32 5 -46 15c-6 4.66699 -11.167 10.834 -15.5 18.501s-8.16602 19.167 -11.499 34.5h-76c5.33301 -28.667 12.5 -51.5 21.5 -68.5
s20.833 -30.167 35.5 -39.5c28 -18.667 57.333 -28 88 -28c45.333 0 83.333 12.667 114 38c30.667 26 46 62 46 108c0 12 -1.33301 23.667 -4 35s-6.33398 22.333 -11.001 33c-7.33301 17.333 -18 34.333 -32 51c11.333 11.333 22.166 23.5 32.499 36.5
s19.166 26.833 26.499 41.5c14.667 27.333 22 53.333 22 78zM318.001 178c0 -16.667 -4.00195 -33.999 -12.002 -51.999c-7.33301 -15.333 -21.333 -33 -42 -53l-116 106c-5.33301 5.33301 -10.666 11.666 -15.999 18.999s-11 15.666 -17 24.999
c-11.333 16 -17 36.667 -17 62c0 18 3.66699 35.333 11 52c4 7.33301 9.33301 15.5 16 24.5s15.334 18.5 26.001 28.5l117 -106c5.33301 -5.33301 10.5 -11.666 15.5 -18.999l17.5 -25c11.333 -17.333 17 -38 17 -62z" />
    <glyph glyph-name="dieresis" unicode="&#xa8;" 
d="M290 546v93h-93v-94zM153 545v94h-93v-94h93z" />
    <glyph glyph-name="copyright" unicode="&#xa9;" horiz-adv-x="840" 
d="M805 356c0 104.667 -37.666 195.333 -112.999 272c-75.333 75.333 -166.333 113 -273 113c-104.667 0 -195.334 -37.667 -272.001 -113c-74.667 -75.333 -112 -166.333 -112 -273c0 -106 37.333 -196.667 112 -272c76.667 -75.333 167.667 -113 273 -113
c106 0 196.667 37.667 272 113c75.333 76.667 113 167.667 113 273zM733.001 354.999c0 -85.333 -31 -159 -93 -221c-60 -61.333 -133.667 -92 -221 -92c-85.333 0 -159 31 -221 93c-60.667 60 -91 133.667 -91 221c0 86 30.667 159.667 92 221s135 92 221 92
s159.667 -31 221 -93c61.333 -60 92 -133.667 92 -221zM601.001 277.999l-66.998 24c-6 -20.667 -12.667 -37 -20 -49s-15.666 -22.333 -24.999 -31c-18 -16 -40.333 -24 -67 -24c-39.333 0 -69.333 15.333 -90 46c-22 32 -33 71.667 -33 119c0 40.667 11.333 74.667 34 102
c22 27.333 53.333 41 94 41c24.667 0 45.667 -8 63 -24c8 -7.33301 15 -16.166 21 -26.499s11.667 -21.5 17 -33.5l72 19c-10.667 23.333 -21.5 42.5 -32.5 57.5s-23.833 28.167 -38.5 39.5c-28.667 22.667 -62 34 -100 34c-62 0 -112.333 -21 -151 -63
c-37.333 -40.667 -56 -91 -56 -151c0 -66.667 19.333 -121.334 58 -164.001c39.333 -43.333 87.666 -65 144.999 -65c40.667 0 76.667 12.667 108 38c15.333 12.667 28.666 27.667 39.999 45s20.666 39.333 27.999 66z" />
    <glyph glyph-name="ordfeminine" unicode="&#xaa;" horiz-adv-x="295" 
d="M292 429l0.00292969 53.0029c-4.66699 -2.66699 -8.83398 -5.16699 -12.501 -7.5l-11.5 -7.5c-10 -6.66699 -17.667 -11 -23 -13l-3 11v152c0 27.333 -10 49 -30 65c-18.667 14.667 -44 22 -76 22c-21.333 0 -42.666 -4.33301 -63.999 -13
c-10.667 -4.66699 -19.334 -8.83398 -26.001 -12.501s-12.334 -7.83398 -17.001 -12.501v-58l16.5 12c5.66699 4 12.167 8 19.5 12c12.667 8 24.334 13.667 35.001 17l16 4c5.33301 1.33301 11 2 17 2c18 0 31.667 -3.66699 41 -11
c3.33301 -2.66699 6.16602 -6.66699 8.49902 -12s3.5 -12.666 3.5 -21.999v-22c-22 -1.33301 -39 -3.33301 -51 -6c-7.33301 -1.33301 -14.166 -2.83301 -20.499 -4.5l-20.5 -5.5c-21.333 -7.33301 -40 -19 -56 -35c-16.667 -16 -25 -37.333 -25 -64
c0 -21.333 9.33301 -40.333 28 -57c9.33301 -7.33301 19.666 -13 30.999 -17s23.666 -6 36.999 -6c9.33301 0 18.166 1.16699 26.499 3.5s17.166 5.16602 26.499 8.49902c11.333 5.33301 21 11 29 17c2 -10 5.66699 -17 11 -21c6 -4.66699 11.667 -7 17 -7
c6.66699 0 13.334 1.33301 20.001 4s13.334 5.66699 20.001 9c2.66699 1.33301 5 2.66602 7 3.99902l6 4c3.33301 2 6.33301 4 9 6zM186.003 472.003c-4 -3.33301 -8.49805 -6.49805 -13.498 -9.49805l-15.5 -9.5c-12.667 -7.33301 -26.667 -11 -42 -11
c-8 0 -14.833 1.16699 -20.5 3.5s-10.834 5.16602 -15.501 8.49902c-6.66699 4.66699 -10 11.667 -10 21c0 13.333 4.66699 23.666 14 30.999c12.667 11.333 26.334 19 41.001 23c9.33301 3.33301 17.666 5.66602 24.999 6.99902s13.666 2.33301 18.999 3
c3.33301 0.666992 6.5 0.833984 9.5 0.500977s5.83301 -0.5 8.5 -0.5v-67z" />
    <glyph glyph-name="guillemotleft" unicode="&#xab;" horiz-adv-x="525" 
d="M516 -7l-200 238l197 238h-93l-198 -238l200 -238h94zM304 -7l-200 238l197 238h-93l-198 -238l200 -238h94z" />
    <glyph glyph-name="logicalnot" unicode="&#xac;" horiz-adv-x="672" 
d="M455 490c-9.33301 3.33301 -17.165 6.50098 -23.498 9.50098l-19 9c-6.33301 3 -13.333 6.5 -21 10.5l-27.5 15l27.5 14c7.66699 4 14.667 7.5 21 10.5l19 9c6.33301 3 14.166 6.16699 23.499 9.5l-19 34c-9.33301 -7.33301 -17 -13 -23 -17l-17 -11
c-5.33301 -4 -11.5 -8.16699 -18.5 -12.5l-25.5 -15.5c0.666992 12 1.16699 22.167 1.5 30.5s0.833008 16 1.5 23s1.16699 14 1.5 21s1.16602 15.5 2.49902 25.5h-37c1.33301 -10 2.33301 -18.5 3 -25.5s1.16699 -14 1.5 -21s0.5 -14.833 0.5 -23.5c0 -8 0.333008 -18 1 -30
l-25.5 15.5c-7 4.33301 -13.167 8.5 -18.5 12.5l-17 11c-6 4 -13.667 9.66699 -23 17l-18 -34c8.66699 -3.33301 16.334 -6.5 23.001 -9.5s13 -6 19 -9l20 -10.5c7.33301 -4 16.666 -8.66699 27.999 -14l-28 -15l-20 -10.5c-6 -3 -12.333 -6 -19 -9
s-14.334 -6.16699 -23.001 -9.5l18 -35c9.33301 7.33301 16.833 13 22.5 17l17.5 12l18.5 11.5l25.5 16.5c-0.666992 -12.667 -1 -23.334 -1 -32.001c0 -8 -0.166992 -15.5 -0.5 -22.5s-0.833008 -13.833 -1.5 -20.5s-1.66699 -15 -3 -25h37
c-1.33301 10 -2.16602 18.333 -2.49902 25s-0.833008 13.5 -1.5 20.5s-1.16699 14.667 -1.5 23s-0.833008 18.833 -1.5 31.5l25.5 -16.5l18.5 -11.5l17.5 -12c5.66699 -4 13.167 -9.66699 22.5 -17zM645.001 -43.999h-303l-2 276l198 243v-475h50v551h-48l-204 -250
l-205 250h-49v-551h51v475l197 -241l-26 -25v-275l-138 142l-28 -27l290 -302l29 28l-139 144l290 1z" />
    <glyph glyph-name="registered" unicode="&#xae;" horiz-adv-x="840" 
d="M805 356c0 104.667 -37.666 195.333 -112.999 272c-75.333 75.333 -166.333 113 -273 113c-104.667 0 -195.334 -37.667 -272.001 -113c-74.667 -75.333 -112 -166.333 -112 -273c0 -106 37.333 -196.667 112 -272c76.667 -75.333 167.667 -113 273 -113
c106 0 196.667 37.667 272 113c75.333 76.667 113 167.667 113 273zM733.001 354.999c0 -85.333 -31 -159 -93 -221c-60 -61.333 -133.667 -92 -221 -92c-85.333 0 -159 31 -221 93c-60.667 60 -91 133.667 -91 221c0 86 30.667 159.667 92 221s135 92 221 92
s159.667 -31 221 -93c61.333 -60 92 -133.667 92 -221zM599.001 141.999l-35 81.001l-16 33.5c-5.33301 11 -11.666 22.167 -18.999 33.5c-10.667 16 -25.667 29.333 -45 40c15.333 3.33301 28.666 8.83301 39.999 16.5s21.333 16.5 30 26.5c15.333 20.667 23 44 23 70
c0 34 -12 62 -36 84c-12.667 11.333 -29 19.666 -49 24.999s-43.667 8 -71 8h-163v-418h73v173h25c36 0 64 -12 84 -36c9.33301 -12 20 -29 32 -51s25.333 -50.667 40 -86h87zM496.001 440c0 -20 -6.66699 -35 -20 -45c-6.66699 -5.33301 -16.834 -9.5 -30.501 -12.5
s-32.167 -4.5 -55.5 -4.5h-59v118h71c16 0 30 -1.33301 42 -4s22.333 -6 31 -10c6.66699 -3.33301 11.834 -8.33301 15.501 -15s5.5 -15.667 5.5 -27z" />
    <glyph glyph-name="macron" unicode="&#xaf;" 
d="M320 560v76h-291v-77z" />
    <glyph glyph-name="degree" unicode="&#xb0;" horiz-adv-x="420" 
d="M362 552c0 42 -14.667 77.667 -44 107c-31.333 30 -67.333 45 -108 45c-41.333 0 -77 -15 -107 -45s-45 -66 -45 -108c0 -41.333 15 -77 45 -107s66 -45 108 -45c40 0 75.667 15 107 45c29.333 29.333 44 65.333 44 108zM297 551c0 -24 -8.33203 -44.332 -24.999 -60.999
c-17.333 -17.333 -38 -26 -62 -26c-24.667 0 -45 8.66699 -61 26c-17.333 16 -26 36.667 -26 62c0 23.333 8.66699 43.666 26 60.999c16 17.333 36.667 26 62 26c23.333 0 43.666 -8.66699 60.999 -26c16.667 -16 25 -36.667 25 -62z" />
    <glyph glyph-name="twosuperior" unicode="&#xb2;" horiz-adv-x="329" 
d="M318 320l-0.000976562 49.001h-185l4 4c2 2 3.66699 3.33301 5 4l23.5 24c7.66699 8 15.167 16.667 22.5 26c7.33301 7.33301 14.833 15.666 22.5 24.999s15.5 20 23.5 32l14.5 22c5 7.33301 9.5 15.666 13.5 24.999c9.33301 20.667 14 39.667 14 57c0 34 -14 62 -42 84
c-27.333 21.333 -60.333 32 -99 32c-12.667 0 -24.667 -1.16699 -36 -3.5s-22 -5.16602 -32 -8.49902c-16.667 -6.66699 -32 -15.667 -46 -27v-64c16.667 13.333 29.334 23 38.001 29s16.667 10.667 24 14c15.333 6.66699 31.666 10 48.999 10
c24.667 0 45.334 -6.66699 62.001 -20c16 -12 24 -27.333 24 -46c0 -18 -5 -36 -15 -54c-5.33301 -10 -11.166 -19.833 -17.499 -29.5s-13.5 -19.167 -21.5 -28.5c-10.667 -13.333 -21.334 -25.333 -32.001 -36l-31 -30l-34 -29.5l-41 -35.5v-26z" />
    <glyph glyph-name="threesuperior" unicode="&#xb3;" horiz-adv-x="329" 
d="M292 432c0 24 -9 44.999 -27 62.999c-10.667 10.667 -24.334 19 -41.001 25c19.333 7.33301 33 16 41 26c14 16.667 21 35 21 55c0 16 -3.5 30.167 -10.5 42.5s-17.167 23.166 -30.5 32.499c-25.333 18.667 -58 28 -98 28c-13.333 0 -25.5 -0.833008 -36.5 -2.5
s-21.167 -4.16699 -30.5 -7.5c-7.33301 -3.33301 -14.333 -6.33301 -21 -9s-13.334 -6 -20.001 -10v-52c12 6 21.333 10.333 28 13l22 9c6.66699 2.66699 14.334 4.83398 23.001 6.50098s18.667 2.5 30 2.5c25.333 0 46.666 -6 63.999 -18
c8.66699 -6 14.667 -11.833 18 -17.5s5 -12.167 5 -19.5c0 -15.333 -8.33301 -28 -25 -38c-19.333 -12 -41.666 -18 -66.999 -18h-16v-50h19c30.667 0 54.334 -6.33301 71.001 -19c15.333 -11.333 23 -26.666 23 -45.999c0 -18 -8 -33 -24 -45
c-16.667 -12.667 -38.667 -19 -66 -19c-20.667 0 -39 2 -55 6c-7.33301 2 -14.833 4.16699 -22.5 6.5l-30.5 9.5v-50c8 -3.33301 15.833 -6 23.5 -8l25.5 -7c19.333 -4.66699 40 -7 62 -7c21.333 0 40.333 2.66699 57 8s32 13.333 46 24c28 22 42 50.667 42 86z" />
    <glyph glyph-name="acute" unicode="&#xb4;" 
d="M333 690h-117l-121 -182h61z" />
    <glyph glyph-name="mu" unicode="&#xb5;" horiz-adv-x="584" 
d="M485 -13l0.000976562 474.999h-73v-324c-10.667 -20 -27.334 -39.333 -50.001 -58c-23.333 -20 -49.666 -30 -78.999 -30c-35.333 0 -62.333 11.333 -81 34s-28 55.334 -28 98.001v280h-73v-652h73v213c13.333 -13.333 29.666 -24 48.999 -32
c22.667 -8.66699 45.667 -13 69 -13c24.667 0 50 7.33301 76 22c16 8.66699 30.667 23 44 43v-56h73z" />
    <glyph glyph-name="paragraph" unicode="&#xb6;" horiz-adv-x="683" 
d="M645 623v93h-353c-74 0 -133 -19.667 -177 -59c-44.667 -38.667 -67 -91.667 -67 -159c0 -66 21.333 -119 64 -159c38.667 -36.667 90.667 -56 156 -58v-505h89v847h104v-847h89v847h95z" />
    <glyph glyph-name="periodcentered" unicode="&#xb7;" horiz-adv-x="295" 
d="M166 285v123h-89v-124z" />
    <glyph glyph-name="periodcentered" unicode="&#x2219;" horiz-adv-x="295" 
d="M166 285v123h-89v-124z" />
    <glyph glyph-name="cedilla" unicode="&#xb8;" 
d="M265 -101c0 20.667 -7.33105 39.002 -21.998 55.002c-5.33301 6 -11 10.667 -17 14s-12.667 5.66602 -20 6.99902l12 46h-55l-29 -96c18 0 30.833 -0.5 38.5 -1.5s13.5 -3.16699 17.5 -6.5c7.33301 -4 11 -10.333 11 -19c0 -8 -3.66699 -14 -11 -18
c-4.66699 -2.66699 -10.334 -4.83398 -17.001 -6.50098s-14.667 -2.16699 -24 -1.5l-45 3l-8 -56l58 -7c31.333 0 57.666 8 78.999 24c21.333 17.333 32 38.333 32 63z" />
    <glyph glyph-name="onesuperior" unicode="&#xb9;" horiz-adv-x="329" 
d="M194 320l-1 380h-58l1 -381z" />
    <glyph glyph-name="ordmasculine" unicode="&#xba;" horiz-adv-x="372" 
d="M349 549c0 45.333 -15.667 82.332 -47 110.999c-31.333 29.333 -70 44 -116 44c-44.667 0 -83.667 -15 -117 -45c-31.333 -29.333 -47 -66 -47 -110c0 -44.667 15.667 -81.667 47 -111s70.333 -44 117 -44c45.333 0 84 15 116 45c31.333 28.667 47 65.334 47 110.001z
M290 548.999c0 -28.667 -10.001 -52.667 -30.001 -72c-20 -20 -44.667 -30 -74 -30s-54.333 10.333 -75 31c-20.667 20 -31 43.667 -31 71c0 28 10.667 52 32 72c20 20 44.667 30 74 30c28.667 0 53.334 -10.333 74.001 -31c20 -20 30 -43.667 30 -71z" />
    <glyph glyph-name="guillemotright" unicode="&#xbb;" horiz-adv-x="525" 
d="M515 231l-198 238h-93l197 -238l-200 -238h94zM303 231l-198 238h-93l197 -238l-200 -238h94z" />
    <glyph glyph-name="onequarter" unicode="&#xbc;" horiz-adv-x="875" 
d="M751 125v46h-60v201h-30l-227 -221v-27h200v-137h57v138h60zM698 704h-71l-543 -744h70zM238 320l-1 380h-58l1 -381zM634 170h-112l112 109v-109z" />
    <glyph glyph-name="onehalf" unicode="&#xbd;" horiz-adv-x="875" 
d="M792 -13l-0.00292969 50.001h-185c0.666992 0.666992 2.16699 2 4.5 4s3.83301 3.33301 4.5 4l23.5 24c7.66699 8 15.167 16.667 22.5 26c7.33301 7.33301 15 15.666 23 24.999s15.667 20 23 32l14.5 22c5 7.33301 9.5 15.666 13.5 24.999
c9.33301 20.667 14 39.667 14 57c0 34 -14 62 -42 84c-27.333 21.333 -60.333 32 -99 32c-12.667 0 -24.667 -1.16699 -36 -3.5s-22 -5.16602 -32 -8.49902c-16.667 -6.66699 -32 -15.667 -46 -27v-64c16.667 13.333 29.334 23 38.001 29s16.667 10.667 24 14
c15.333 6.66699 31.666 10 48.999 10c24.667 0 45.334 -6.66699 62.001 -20c16 -12 24 -27.333 24 -46c0 -18 -5 -36 -15 -54c-5.33301 -10 -11.166 -19.833 -17.499 -29.5s-13.166 -19.167 -20.499 -28.5c-11.333 -13.333 -22.333 -25.333 -33 -36l-31 -30l-34 -29.5
l-41 -35.5v-26h292zM684.997 704.001h-71l-543 -744h69zM224.997 320.001l-1 380h-58l1 -381z" />
    <glyph glyph-name="threequarters" unicode="&#xbe;" horiz-adv-x="875" 
d="M789 125v46h-60v201h-31l-226 -221v-27h200v-137h57v138h60zM730 704h-71l-543 -744h70zM329 432c0 24 -9 44.999 -27 62.999c-10.667 10.667 -24.334 19 -41.001 25c19.333 7.33301 33 16 41 26c14 16.667 21 35 21 55c0 16 -3.5 30.167 -10.5 42.5
s-17.167 23.166 -30.5 32.499c-25.333 18.667 -58 28 -98 28c-13.333 0 -25.5 -0.833008 -36.5 -2.5s-21.167 -4.16699 -30.5 -7.5c-7.33301 -3.33301 -14.333 -6.33301 -21 -9s-13.334 -6 -20.001 -10v-52c12 6 21.333 10.333 28 13l22 9
c6.66699 2.66699 14.334 4.83398 23.001 6.50098s18.667 2.5 30 2.5c25.333 0 46.666 -6 63.999 -18c8.66699 -6 14.667 -11.833 18 -17.5s5 -12.167 5 -19.5c0 -15.333 -8.33301 -28 -25 -38c-19.333 -12 -41.666 -18 -66.999 -18h-16v-50h19
c30.667 0 54.334 -6.33301 71.001 -19c15.333 -11.333 23 -26.666 23 -45.999c0 -18 -8 -33 -24 -45c-16.667 -12.667 -38.667 -19 -66 -19c-20.667 0 -39 2 -55 6c-7.33301 2 -14.833 4.16699 -22.5 6.5l-30.5 9.5v-50c8 -3.33301 15.833 -6 23.5 -8l25.5 -7
c19.333 -4.66699 40 -7 62 -7c21.333 0 40.333 2.66699 57 8s32 13.333 46 24c28 22 42 50.667 42 86zM672 169.999h-112l112 109v-109z" />
    <glyph glyph-name="questiondown" unicode="&#xbf;" horiz-adv-x="295" 
d="M204 363v122h-90v-123zM265 -197l-26.002 66.998c-4 -2 -9.5 -5 -16.5 -9s-14.167 -7.83301 -21.5 -11.5s-14.5 -7 -21.5 -10s-12.5 -4.5 -16.5 -4.5c-18.667 0 -34 8 -46 24c-12 14.667 -18 34 -18 58c0 26.667 6.33301 53.667 19 81
c6.66699 13.333 14.334 27.833 23.001 43.5s18.667 32.5 30 50.5c8.66699 14 15.834 26.667 21.501 38s10.167 21.666 13.5 30.999c6 18 9 37.667 9 59c0 16 -4.66699 34 -14 54c-4.66699 8 -9.5 15.833 -14.5 23.5s-12.167 16.834 -21.5 27.501l-34 -30
c6 -12 10.333 -21.333 13 -28l6 -15c0.666992 -3.33301 1.16699 -6.66602 1.5 -9.99902s0.5 -6.66602 0.5 -9.99902c0 -12.667 -2 -26 -6 -40c-2.66699 -6.66699 -6.33398 -14.167 -11.001 -22.5s-10.667 -18.166 -18 -29.499l-42.5 -64
c-12.333 -19.333 -22.166 -36 -29.499 -50c-14.667 -29.333 -22 -64 -22 -104c0 -20 2.66699 -39 8 -57s14 -34.667 26 -50c11.333 -16.667 25.833 -28.834 43.5 -36.501s38.167 -11.5 61.5 -11.5c15.333 0 30.333 2.66699 45 8c3.33301 1.33301 10 4.5 20 9.5l25.5 12.5z
" />
    <glyph glyph-name="Agrave" unicode="&#xc0;" horiz-adv-x="700" 
d="M428 737l-121 181h-117l177 -181h61zM698 -13l-325 713h-45l-327 -713h83l108 237h317l108 -237h81zM477 293h-254l127 278z" />
    <glyph glyph-name="Aacute" unicode="&#xc1;" horiz-adv-x="700" 
d="M552 918h-118l-120 -182h60zM698 -13l-325 713h-45l-327 -713h83l108 237h317l108 -237h81zM477 293h-254l127 278z" />
    <glyph glyph-name="Acircumflex" unicode="&#xc2;" horiz-adv-x="700" 
d="M511 718l-125 189h-72l-124 -190h66l94 103l94 -103zM698 -13l-325 713h-45l-327 -713h83l108 237h317l108 -237h81zM477 293h-254l127 278z" />
    <glyph glyph-name="Atilde" unicode="&#xc3;" horiz-adv-x="700" 
d="M525 873h-53.998c-2 -14 -4.16699 -23.833 -6.5 -29.5s-4.83301 -9.5 -7.5 -11.5c-6 -5.33301 -11.667 -8 -17 -8c-12.667 0 -38.334 8 -77.001 24c-40 17.333 -71.333 26 -94 26c-15.333 0 -29.166 -2.66699 -41.499 -8s-22.5 -14 -30.5 -26
c-7.33301 -10.667 -13 -22.667 -17 -36s-6 -30.333 -6 -51h56c1.33301 14.667 3.16602 24.667 5.49902 30s4.83301 9 7.5 11c6.66699 5.33301 12.667 8 18 8c11.333 0 36.666 -8 75.999 -24c38.667 -17.333 70 -26 94 -26c32 0 56 11.333 72 34
c7.33301 10.667 12.833 22.667 16.5 36s5.5 30.333 5.5 51zM698.002 -13l-325 713h-45l-327 -713h83l108 237h317l108 -237h81zM477.002 293h-254l127 278z" />
    <glyph glyph-name="Adieresis" unicode="&#xc4;" horiz-adv-x="700" 
d="M466 764v93h-93v-94zM329 763v94h-93v-94h93zM698 -13l-325 713h-45l-327 -713h83l108 237h317l108 -237h81zM477 293h-254l127 278z" />
    <glyph glyph-name="AE" unicode="&#xc6;" horiz-adv-x="908" 
d="M877 -13v70h-327v252l311 1v68h-311v248h320v69h-425l-441 -708h86l201 323h181v-323h405zM472 379h-136l136 221v-221z" />
    <glyph glyph-name="Ccedilla" unicode="&#xc7;" horiz-adv-x="711" 
d="M678 49l0.00195312 83.0039c-24 -13.333 -45.667 -24.5 -65 -33.5s-39.333 -17.167 -60 -24.5c-39.333 -14.667 -83 -22 -131 -22c-86 0 -156.667 27 -212 81c-54 52.667 -81 122 -81 208c0 82 27.667 150.667 83 206c28 27.333 59 48 93 62s72 21 114 21
c43.333 0 84 -6.33301 122 -19c20.667 -6.66699 41 -14.167 61 -22.5s42.667 -20.166 68 -35.499v89c-20.667 10.667 -40.834 19.667 -60.501 27s-40.5 13.666 -62.5 18.999c-42 10.667 -81.667 16 -119 16c-109.333 0 -200 -34.667 -272 -104
c-72.667 -68.667 -109 -155 -109 -259c0 -106 36.333 -193 109 -261c54.667 -51.333 120.334 -83 197.001 -95l-18 -60c18 0 30.833 -0.5 38.5 -1.5s13.5 -3.16699 17.5 -6.5c7.33301 -4 11 -10.333 11 -19c0 -8 -3.66699 -14 -11 -18
c-4.66699 -2.66699 -10.334 -4.83398 -17.001 -6.50098s-14.667 -2.16699 -24 -1.5l-44 3l-9 -56l58 -7c31.333 0 57.666 8 78.999 24c21.333 17.333 32 38.333 32 63c0 14.667 -4.33301 28.667 -13 42c-7.33301 11.333 -18 19.666 -32 24.999c4 0 8.66699 2.5 14 7.5
s10.333 7.83301 15 8.5c7.33301 0.666992 14.833 1.66699 22.5 3l23.5 4c15.333 2 30.833 4.66699 46.5 8s31.5 7.66602 47.5 12.999s31.333 11.166 46 17.499s28.667 13.5 42 21.5z" />
    <glyph glyph-name="Egrave" unicode="&#xc8;" horiz-adv-x="515" 
d="M376 732l-121 181h-117l178 -182zM472 -13v70h-327v252l311 1v68h-311v248h320v69h-398v-708h405z" />
    <glyph glyph-name="Eacute" unicode="&#xc9;" horiz-adv-x="515" 
d="M458 908h-118l-120 -182h60zM471 -13v70h-327v252l311 1v68h-311v248h320v69h-398v-708h405z" />
    <glyph glyph-name="Ecircumflex" unicode="&#xca;" horiz-adv-x="515" 
d="M418 728l-126 189h-71l-124 -190h66l94 103l94 -103zM472 -13v70h-327v252l311 1v68h-311v248h320v69h-398v-708h405z" />
    <glyph glyph-name="Edieresis" unicode="&#xcb;" horiz-adv-x="515" 
d="M373 764v93h-93v-94zM236 763v94h-93v-94h93zM472 -13v70h-327v252l311 1v68h-311v248h320v69h-398v-708h405z" />
    <glyph glyph-name="Igrave" unicode="&#xcc;" horiz-adv-x="218" 
d="M231 727l-121 181h-118l178 -182zM149 -13v708h-77v-708h77z" />
    <glyph glyph-name="Iacute" unicode="&#xcd;" horiz-adv-x="218" 
d="M314 918h-118l-121 -182h61zM149 -13v708h-77v-708h77z" />
    <glyph glyph-name="Icircumflex" unicode="&#xce;" horiz-adv-x="218" 
d="M271 718l-126 189h-71l-125 -190h67l93 103l95 -103zM147 -13v708h-77v-708h77z" />
    <glyph glyph-name="Idieresis" unicode="&#xcf;" horiz-adv-x="218" 
d="M225 764v93h-93v-94zM88 763v94h-93v-94h93zM146 -13v708h-77v-708h77z" />
    <glyph glyph-name="Eth" unicode="&#xd0;" horiz-adv-x="777" 
d="M739 340c0 110 -34.668 196.667 -104.001 260c-34 32 -74 55.5 -120 70.5s-98 22.833 -156 23.5l-256 4v-322h-102v-69h103v-320h262c116.667 0 208 33 274 99c32.667 33.333 57.334 71 74.001 113s25 89 25 141zM655.999 340c0 -86.667 -27.667 -155.333 -83 -206
c-56 -52 -129.667 -78 -221 -78h-171v252h222v69h-222v249h173c92 0 165.333 -26.333 220 -79c55.333 -52 83 -121 83 -207h-1z" />
    <glyph glyph-name="Ntilde" unicode="&#xd1;" horiz-adv-x="810" 
d="M584 873h-54.998c-2 -14 -4.16699 -23.833 -6.5 -29.5s-4.83301 -9.5 -7.5 -11.5c-5.33301 -5.33301 -11 -8 -17 -8c-12.667 0 -38.334 8 -77.001 24c-38.667 17.333 -70 26 -94 26c-15.333 0 -29.166 -2.66699 -41.499 -8s-22.5 -14 -30.5 -26
c-7.33301 -10.667 -12.833 -22.667 -16.5 -36s-5.5 -30.333 -5.5 -51h55c1.33301 14.667 3.16602 24.667 5.49902 30s4.83301 9 7.5 11c6.66699 5.33301 12.667 8 18 8c11.333 0 36.666 -8 75.999 -24c40 -17.333 71.333 -26 94 -26c32 0 56 11.333 72 34
c7.33301 10.667 13 22.667 17 36s6 30.333 6 51zM726.002 -13v708h-78v-577l-119 139l-119 134l-130 148l-132 156h-63v-708h78v576l499 -576h64z" />
    <glyph glyph-name="Ograve" unicode="&#xd2;" horiz-adv-x="864" 
d="M521 737l-121 181h-117l177 -182zM806 341c0 103.333 -35.999 189.666 -107.999 258.999c-71.333 69.333 -160 104 -266 104c-105.333 0 -194 -35 -266 -105c-71.333 -68.667 -107 -154.667 -107 -258c0 -51.333 9 -98.666 27 -141.999s45 -82.333 81 -117
c71.333 -69.333 159.666 -104 264.999 -104s194 35 266 105c72 68.667 108 154.667 108 258zM724.001 341c0 -78.667 -28.668 -146.667 -86.001 -204c-56 -56.667 -124.667 -85 -206 -85s-150.333 28.333 -207 85c-56 56 -84 124 -84 204c0 79.333 28.333 147.333 85 204
s125.334 85 206.001 85c81.333 0 150 -28.333 206 -85c57.333 -57.333 86 -125.333 86 -204z" />
    <glyph glyph-name="Oacute" unicode="&#xd3;" horiz-adv-x="864" 
d="M633 918h-117l-121 -182h61zM806 341c0 103.333 -35.999 189.666 -107.999 258.999c-71.333 69.333 -160 104 -266 104c-105.333 0 -194 -35 -266 -105c-71.333 -68.667 -107 -154.667 -107 -258c0 -51.333 9 -98.666 27 -141.999s45 -82.333 81 -117
c71.333 -69.333 159.666 -104 264.999 -104s194 35 266 105c72 68.667 108 154.667 108 258zM724.001 341c0 -78.667 -28.668 -146.667 -86.001 -204c-56 -56.667 -124.667 -85 -206 -85s-150.333 28.333 -207 85c-56 56 -84 124 -84 204c0 79.333 28.333 147.333 85 204
s125.334 85 206.001 85c81.333 0 150 -28.333 206 -85c57.333 -57.333 86 -125.333 86 -204z" />
    <glyph glyph-name="Ocircumflex" unicode="&#xd4;" horiz-adv-x="864" 
d="M592 728l-129 189h-68l-125 -190h67l93 103l95 -103zM806 341c0 103.333 -35.999 189.666 -107.999 258.999c-71.333 69.333 -160 104 -266 104c-105.333 0 -194 -35 -266 -105c-71.333 -68.667 -107 -154.667 -107 -258c0 -51.333 9 -98.666 27 -141.999
s45 -82.333 81 -117c71.333 -69.333 159.666 -104 264.999 -104s194 35 266 105c72 68.667 108 154.667 108 258zM724.001 341c0 -78.667 -28.668 -146.667 -86.001 -204c-56 -56.667 -124.667 -85 -206 -85s-150.333 28.333 -207 85c-56 56 -84 124 -84 204
c0 79.333 28.333 147.333 85 204s125.334 85 206.001 85c81.333 0 150 -28.333 206 -85c57.333 -57.333 86 -125.333 86 -204z" />
    <glyph glyph-name="Otilde" unicode="&#xd5;" horiz-adv-x="864" 
d="M607 873h-53.999c-2.66699 -14 -5 -23.833 -7 -29.5s-4.66699 -9.5 -8 -11.5c-5.33301 -5.33301 -11 -8 -17 -8c-11.333 0 -37 8 -77 24c-38.667 17.333 -70 26 -94 26c-15.333 0 -29 -2.66699 -41 -8s-22.333 -14 -31 -26c-7.33301 -10.667 -12.833 -22.667 -16.5 -36
s-5.5 -30.333 -5.5 -51h56c1.33301 14.667 3 24.667 5 30s4.33301 9 7 11c6.66699 5.33301 12.667 8 18 8c11.333 0 36.666 -8 75.999 -24c40 -17.333 71.333 -26 94 -26c32.667 0 57 11.333 73 34c7.33301 10.667 12.833 22.667 16.5 36s5.5 30.333 5.5 51zM806.001 341
c0 103.333 -35.999 189.666 -107.999 258.999c-71.333 69.333 -160 104 -266 104c-105.333 0 -194 -35 -266 -105c-71.333 -68.667 -107 -154.667 -107 -258c0 -51.333 9 -98.666 27 -141.999s45 -82.333 81 -117c71.333 -69.333 159.666 -104 264.999 -104s194 35 266 105
c72 68.667 108 154.667 108 258zM724.002 341c0 -78.667 -28.668 -146.667 -86.001 -204c-56 -56.667 -124.667 -85 -206 -85s-150.333 28.333 -207 85c-56 56 -84 124 -84 204c0 79.333 28.333 147.333 85 204s125.334 85 206.001 85c81.333 0 150 -28.333 206 -85
c57.333 -57.333 86 -125.333 86 -204z" />
    <glyph glyph-name="Odieresis" unicode="&#xd6;" horiz-adv-x="864" 
d="M548 764v93h-93v-94zM411 763v94h-93v-94h93zM806 341c0 103.333 -35.999 189.666 -107.999 258.999c-71.333 69.333 -160 104 -266 104c-105.333 0 -194 -35 -266 -105c-71.333 -68.667 -107 -154.667 -107 -258c0 -51.333 9 -98.666 27 -141.999s45 -82.333 81 -117
c71.333 -69.333 159.666 -104 264.999 -104s194 35 266 105c72 68.667 108 154.667 108 258zM724.001 341c0 -78.667 -28.668 -146.667 -86.001 -204c-56 -56.667 -124.667 -85 -206 -85s-150.333 28.333 -207 85c-56 56 -84 124 -84 204c0 79.333 28.333 147.333 85 204
s125.334 85 206.001 85c81.333 0 150 -28.333 206 -85c57.333 -57.333 86 -125.333 86 -204z" />
    <glyph glyph-name="multiply" unicode="&#xd7;" horiz-adv-x="693" 
d="M565 182l-169 169l169 169l-50 50l-169 -169l-169 169l-49 -50l169 -169l-169 -169l50 -50l169 169l169 -169z" />
    <glyph glyph-name="Oslash" unicode="&#xd8;" horiz-adv-x="864" 
d="M806 341c0 97.333 -33 180 -99 248l68 75l-58 41l-62 -70c-62 46 -136.333 69 -223 69c-105.333 0 -194 -35 -266 -105c-71.333 -68.667 -107 -154.667 -107 -258c0 -98 32.667 -181.333 98 -250l4 -4l-65 -73l57 -41l62 69c60.667 -42.667 133 -64 217 -64
c105.333 0 194 35 266 105c72 68.667 108 154.667 108 258zM724 341c0 -78.667 -28.666 -146.666 -85.999 -203.999c-56 -56.667 -124.667 -85 -206 -85c-62.667 0 -117.334 16.333 -164.001 49l385 428c47.333 -52.667 71 -115.334 71 -188.001zM602.001 576.001
l-387.001 -427.999c-49.333 53.333 -74 117.666 -74 192.999c0 79.333 28.333 147.333 85 204s125.334 85 206.001 85c65.333 0 122 -18 170 -54z" />
    <glyph glyph-name="Ugrave" unicode="&#xd9;" horiz-adv-x="733" 
d="M485 727l-121 181h-118l178 -182zM665 296l-0.00195312 399.003h-78v-395c0 -38.667 -5.16699 -72.834 -15.5 -102.501s-25.166 -55.834 -44.499 -78.501c-39.333 -44.667 -92.333 -67 -159 -67c-68 0 -122 21.667 -162 65c-39.333 43.333 -59 102.666 -59 177.999v400
h-78v-404c0 -92.667 27.667 -168 83 -226c56 -58 127.667 -87 215 -87c88.667 0 160.334 30.333 215.001 91c55.333 59.333 83 135 83 227z" />
    <glyph glyph-name="Uacute" unicode="&#xda;" horiz-adv-x="733" 
d="M567 908h-117l-121 -182h60zM665 296l-0.00195312 399.003h-78v-395c0 -38.667 -5.16699 -72.834 -15.5 -102.501s-25.166 -55.834 -44.499 -78.501c-39.333 -44.667 -92.333 -67 -159 -67c-68 0 -122 21.667 -162 65c-39.333 43.333 -59 102.666 -59 177.999v400h-78
v-404c0 -92.667 27.667 -168 83 -226c56 -58 127.667 -87 215 -87c88.667 0 160.334 30.333 215.001 91c55.333 59.333 83 135 83 227z" />
    <glyph glyph-name="Ucircumflex" unicode="&#xdb;" horiz-adv-x="733" 
d="M527 718l-126 189h-72l-124 -190h67l93 103l95 -103zM665 296l-0.00195312 399.003h-78v-395c0 -38.667 -5.16699 -72.834 -15.5 -102.501s-25.166 -55.834 -44.499 -78.501c-39.333 -44.667 -92.333 -67 -159 -67c-68 0 -122 21.667 -162 65
c-39.333 43.333 -59 102.666 -59 177.999v400h-78v-404c0 -92.667 27.667 -168 83 -226c56 -58 127.667 -87 215 -87c88.667 0 160.334 30.333 215.001 91c55.333 59.333 83 135 83 227z" />
    <glyph glyph-name="Udieresis" unicode="&#xdc;" horiz-adv-x="733" 
d="M482 764v93h-93v-94zM345 763v94h-93v-94h93zM665 296l-0.00195312 399.003h-78v-395c0 -38.667 -5.16699 -72.834 -15.5 -102.501s-25.166 -55.834 -44.499 -78.501c-39.333 -44.667 -92.333 -67 -159 -67c-68 0 -122 21.667 -162 65
c-39.333 43.333 -59 102.666 -59 177.999v400h-78v-404c0 -92.667 27.667 -168 83 -226c56 -58 127.667 -87 215 -87c88.667 0 160.334 30.333 215.001 91c55.333 59.333 83 135 83 227z" />
    <glyph glyph-name="Yacute" unicode="&#xdd;" horiz-adv-x="612" 
d="M506 908h-117l-121 -182h61zM624 694h-96l-221 -263l-223 264h-96l279 -334v-374h78v374z" />
    <glyph glyph-name="Thorn" unicode="&#xde;" horiz-adv-x="536" 
d="M499 341c0 63.333 -21.333 112 -64 146c-42 32.667 -99.333 49 -172 49h-121v159h-78v-708h78v161h123c72.667 0 129.667 16.333 171 49c42 34 63 82 63 144zM418 342c0 -40.667 -13.332 -71.333 -39.999 -92c-27.333 -22 -66.333 -33 -117 -33h-119v250h125
c47.333 0 84.666 -11.667 111.999 -35c26 -21.333 39 -51.333 39 -90z" />
    <glyph glyph-name="germandbls" unicode="&#xdf;" horiz-adv-x="525" 
d="M480 199c0 52 -12.6719 94.3311 -38.0049 126.998c-20 25.333 -43.333 43.333 -70 54c26 14.667 44.333 34.667 55 60c14.667 32.667 22 61.334 22 86.001c0 52 -19 94.667 -57 128c-36.667 33.333 -83.667 50 -141 50c-55.333 0 -102 -18.333 -140 -55
c-36.667 -36.667 -55 -92.334 -55 -167.001v-495h74v461c0 42 2.83301 75.5 8.5 100.5s13.834 43.167 24.501 54.5c22 24 50.333 36 85 36s64.334 -9.66699 89.001 -29c11.333 -8.66699 20.166 -20.167 26.499 -34.5s9.5 -32.166 9.5 -53.499
c0 -31.333 -8.33301 -57.333 -25 -78s-36.667 -31 -60 -31h-21v-68c30.667 -3.33301 54.334 -9.16602 71.001 -17.499s29.334 -18.833 38.001 -31.5c18 -27.333 27 -59.666 27 -96.999c0 -42 -10.667 -77.667 -32 -107c-20.667 -28 -49 -42 -85 -42
c-6 0 -11.833 0.5 -17.5 1.5s-11.167 2.16699 -16.5 3.5s-10.5 2.83301 -15.5 4.5l-24.5 8.5v-77c8.66699 -2.66699 15.334 -4.5 20.001 -5.5s9.33398 -2.16699 14.001 -3.5c5.33301 -1.33301 10.833 -2.33301 16.5 -3s12.167 -1 19.5 -1c60 0 108.333 22.333 145 67
c35.333 43.333 53 94.666 53 153.999z" />
    <glyph glyph-name="agrave" unicode="&#xe0;" horiz-adv-x="507" 
d="M343 509l-120 181h-118l178 -182zM471 -15l0.000976562 477.001h-72v-24c-10.667 5.33301 -21.167 10 -31.5 14s-20.833 7.66699 -31.5 11c-21.333 5.33301 -41.333 8 -60 8c-70 0 -127.667 -24.667 -173 -74c-44 -46.667 -66 -108.334 -66 -185.001
c0 -34 5.16699 -64.833 15.5 -92.5s26.5 -52.834 48.5 -75.501c44 -44 99 -66 165 -66c27.333 0 54 3.66699 80 11c9.33301 2.66699 18.166 5.33398 26.499 8.00098s16.833 5.66699 25.5 9v-21h73zM399.001 82.001c-14.667 -8 -31.001 -15.667 -49.001 -23
c-20 -8 -45 -12 -75 -12c-25.333 0 -47.5 3.83301 -66.5 11.5s-36.167 19.167 -51.5 34.5c-29.333 29.333 -44 69.333 -44 120c0 54 16.333 98.333 49 133c33.333 35.333 74.666 53 123.999 53c14 0 26.833 -1.16699 38.5 -3.5s22.834 -5.83301 33.501 -10.5
c18.667 -8.66699 32.334 -15.667 41.001 -21v-282z" />
    <glyph glyph-name="aacute" unicode="&#xe1;" horiz-adv-x="498" 
d="M423 690h-117l-121 -182h61zM468 -15l0.000976562 477h-72v-24c-18.667 10 -39.334 18.333 -62.001 25c-21.333 5.33301 -41.333 8 -60 8c-70 0 -128 -24.667 -174 -74c-44 -48 -66 -109.667 -66 -185c0 -68 21.667 -124 65 -168c42.667 -44 97.667 -66 165 -66
c27.333 0 54 3.66699 80 11l26 8c8.66699 2.66699 17 5.66699 25 9v-21h73zM396.001 82l-23.001 -12c-8 -4 -16.667 -7.66699 -26 -11c-20 -8 -44.667 -12 -74 -12c-49.333 0 -88.666 15.333 -117.999 46c-30 28.667 -45 68.667 -45 120c0 54 16.667 98.333 50 133
c32 35.333 73.333 53 124 53c25.333 0 49.333 -4.66699 72 -14c16.667 -7.33301 30 -14.333 40 -21v-282z" />
    <glyph glyph-name="acircumflex" unicode="&#xe2;" horiz-adv-x="518" 
d="M428 500l-125 189h-72l-124 -190h66l94 103l94 -103zM473 -15l0.00195312 476.999h-72v-24c-18.667 10 -39.334 18.333 -62.001 25c-21.333 5.33301 -41.333 8 -60 8c-70 0 -127.667 -24.667 -173 -74c-44.667 -47.333 -67 -109 -67 -185c0 -68 21.667 -124 65 -168
c42.667 -44 97.667 -66 165 -66c27.333 0 54 3.66699 80 11c9.33301 2.66699 18.166 5.33398 26.499 8.00098s16.5 5.66699 24.5 9v-21h73zM401.002 81.999l-23.001 -12c-8 -4 -16.667 -7.66699 -26 -11c-20 -8 -44.667 -12 -74 -12c-49.333 0 -88.666 15.333 -117.999 46
c-30 30 -45 70 -45 120c0 54 16.667 98.333 50 133c32 35.333 73.333 53 124 53c26 0 50 -4.66699 72 -14c16.667 -7.33301 30 -14.333 40 -21v-282z" />
    <glyph glyph-name="atilde" unicode="&#xe3;" horiz-adv-x="506" 
d="M439 655h-53.998c-2 -14 -4.16699 -23.833 -6.5 -29.5s-4.83301 -9.5 -7.5 -11.5c-6 -5.33301 -11.667 -8 -17 -8c-12.667 0 -38.334 8 -77.001 24c-40 17.333 -71.333 26 -94 26c-15.333 0 -29.166 -2.66699 -41.499 -8s-22.5 -14 -30.5 -26
c-7.33301 -10.667 -13 -22.667 -17 -36s-6 -30.333 -6 -51h56c1.33301 14.667 3.16602 24.667 5.49902 30s4.5 9 6.5 11c7.33301 5.33301 13.666 8 18.999 8c10.667 0 36 -8 76 -24c38.667 -17.333 70 -26 94 -26c32 0 56 11.333 72 34
c7.33301 10.667 12.833 22.667 16.5 36s5.5 30.333 5.5 51zM470.002 -15l0.00195312 476.999h-72v-24c-18.667 10 -39.334 18.333 -62.001 25c-21.333 5.33301 -41.333 8 -60 8c-70 0 -127.667 -24.667 -173 -74c-44.667 -47.333 -67 -109 -67 -185
c0 -68 21.667 -124 65 -168c42.667 -44 97.667 -66 165 -66c27.333 0 54 3.66699 80 11c9.33301 2.66699 18.166 5.33398 26.499 8.00098s16.5 5.66699 24.5 9v-21h73zM398.004 81.999l-23.001 -12c-8 -4 -16.667 -7.66699 -26 -11c-20 -8 -44.667 -12 -74 -12
c-49.333 0 -88.666 15.333 -117.999 46c-30 30 -45 70 -45 120c0 54 16.667 98.333 50 133c32 35.333 73.333 53 124 53c26 0 50 -4.66699 72 -14c16.667 -7.33301 30 -14.333 40 -21v-282z" />
    <glyph glyph-name="adieresis" unicode="&#xe4;" horiz-adv-x="515" 
d="M383 546v93h-94v-94zM245 545v94h-93v-94h93zM478 -15l-0.000976562 477.001h-72v-29c-19.333 10.667 -40 19.667 -62 27c-20.667 7.33301 -41 11 -61 11c-69.333 0 -127 -24.667 -173 -74c-44 -48 -66 -109.667 -66 -185c0 -68 21.667 -124 65 -168
c42.667 -44 97.667 -66 165 -66c27.333 0 54 3.66699 80 11c8.66699 2.66699 17.334 6.16699 26.001 10.5s17 8.16602 25 11.499v-26h73zM405.999 87.001c-7.33301 -4 -15 -8.83301 -23 -14.5s-16.667 -10.167 -26 -13.5c-20 -8 -45 -12 -75 -12
c-25.333 0 -47.5 3.83301 -66.5 11.5s-36.167 19.167 -51.5 34.5c-29.333 29.333 -44 69.333 -44 120c0 54 16.667 98.333 50 133c32 35.333 73.333 53 124 53c25.333 0 49 -4.66699 71 -14c9.33301 -4 17.333 -8.5 24 -13.5l17 -12.5v-272z" />
    <glyph glyph-name="ae" unicode="&#xe6;" horiz-adv-x="788" 
d="M761 229c0 38.667 -4.33008 72.168 -12.9971 100.501s-21.667 53.5 -39 75.5c-36 44 -81.333 66 -136 66c-30 0 -57 -6.33301 -81 -19c-5.33301 -2.66699 -11.166 -7.16699 -17.499 -13.5s-11.833 -11.166 -16.5 -14.499v38h-72v-29c-20.667 11.333 -41 20.333 -61 27
c-22 7.33301 -42.333 11 -61 11c-70 0 -127.667 -24.667 -173 -74c-44.667 -47.333 -67 -109 -67 -185c0 -68 21.667 -124 65 -168c42.667 -44 97.667 -66 165 -66c27.333 0 54 3.66699 80 11c9.33301 2.66699 18.166 6.16699 26.499 10.5s16.833 8.16602 25.5 11.499v-26
h73v46c5.33301 -5.33301 12 -11.333 20 -18s15 -11.667 21 -15c25.333 -13.333 53 -20 83 -20c35.333 0 67.666 7.33301 96.999 22c14 6.66699 26.667 13.667 38 21s22.666 15.333 33.999 24v90c-16.667 -16 -30.334 -28.333 -41.001 -37s-22.334 -17.334 -35.001 -26.001
c-23.333 -14.667 -48.666 -22 -75.999 -22c-40 0 -74 16.333 -102 49c-20.667 24 -34 52 -40 84v46h303zM674.003 293.001h-210c3.33301 11.333 7 22 11 32s8.66699 18.667 14 26c22 32 50.667 48 86 48c29.333 0 52.333 -10.333 69 -31c15.333 -18 25.333 -43.333 30 -76v1
zM386.003 87.001c-6.66699 -4 -14.167 -8.83301 -22.5 -14.5s-17.166 -10.167 -26.499 -13.5c-19.333 -8 -44 -12 -74 -12c-49.333 0 -88.666 15.333 -117.999 46c-30 30 -45 70 -45 120c0 27.333 4.33301 52 13 74s21 41.667 37 59c33.333 35.333 74.666 53 123.999 53
c14 0 26.833 -1.16699 38.5 -3.5s22.834 -5.83301 33.501 -10.5c9.33301 -4 17.166 -8.5 23.499 -13.5s12.166 -9.16699 17.499 -12.5z" />
    <glyph glyph-name="ccedilla" unicode="&#xe7;" horiz-adv-x="438" 
d="M407 5l0.000976562 78.001c-14 -6 -25.833 -10.667 -35.5 -14l-29.5 -10c-20 -6 -42 -9 -66 -9c-26 0 -48.833 4 -68.5 12s-36.5 19.667 -50.5 35c-29.333 31.333 -44 73.666 -44 126.999c0 51.333 14.667 93.666 44 126.999c28 32 65.667 48 113 48
c23.333 0 44.333 -3.33301 63 -10l28.5 -10c9.66699 -3.33301 22.167 -8.66602 37.5 -15.999v82c-13.333 4.66699 -25 8.5 -35 11.5s-20 5.5 -30 7.5c-18.667 4.66699 -40.334 7 -65.001 7c-70 0 -126.667 -24.667 -170 -74c-41.333 -47.333 -62 -105 -62 -173
c0 -74.667 21 -134.334 63 -179.001c28.667 -30 63.667 -49.333 105 -58l-18 -62c17.333 0 30 -0.5 38 -1.5s14 -3.16699 18 -6.5c6.66699 -4 10 -10.333 10 -19c0 -8 -3.66699 -14 -11 -18c-4 -2.66699 -9.5 -4.83398 -16.5 -6.50098s-15.167 -2.16699 -24.5 -1.5l-44 3
l-9 -56l59 -7c30.667 0 56.667 8 78 24s32 37 32 63c0 16.667 -4.33301 30.667 -13 42c-8.66699 12.667 -19.334 21 -32.001 25c2 0 4.83301 2.33301 8.5 7s6.83398 7.33398 9.50098 8.00098c4 0.666992 8 1.16699 12 1.5s8 0.5 12 0.5c10 1.33301 19.5 2.83301 28.5 4.5
s18.167 3.83398 27.5 6.50098c8 2 14.833 4 20.5 6s11.167 3.66699 16.5 5z" />
    <glyph glyph-name="egrave" unicode="&#xe8;" horiz-adv-x="503" 
d="M369 509l-121 181h-118l178 -182zM469 228c0 40 -5 74.168 -15 102.501s-24.667 53.166 -44 74.499c-40 44 -91 66 -153 66c-64 0 -116.667 -23.667 -158 -71c-40.667 -45.333 -61 -101.666 -61 -168.999c0 -72.667 22.667 -133.334 68 -182.001
c46 -47.333 104.333 -71 175 -71c38 0 73.333 7.66699 106 23c14 6 26.833 12.667 38.5 20s23.167 15.333 34.5 24v89c-16.667 -15.333 -31 -27.333 -43 -36s-25.333 -17 -40 -25c-27.333 -15.333 -58 -23 -92 -23c-25.333 0 -48 4.33301 -68 13s-38.333 21 -55 37
c-30.667 30.667 -47 67.667 -49 111v18zM381 293.001h-257c6.66699 22 16.334 41 29.001 57c26 32.667 61 49 105 49c19.333 0 36 -2.83301 50 -8.5s26 -13.5 36 -23.5c17.333 -17.333 29.666 -42.333 36.999 -75v1z" />
    <glyph glyph-name="eacute" unicode="&#xe9;" horiz-adv-x="503" 
d="M451 690h-117l-121 -182h60zM469 228c0 40 -5 74.168 -15 102.501s-24.667 53.166 -44 74.499c-40 44 -91 66 -153 66c-64 0 -116.667 -23.667 -158 -71c-40.667 -45.333 -61 -101.666 -61 -168.999c0 -72.667 22.667 -133.334 68 -182.001
c46 -47.333 104.333 -71 175 -71c38 0 73.333 7.66699 106 23c14 6 26.833 12.667 38.5 20s23.167 15.333 34.5 24v89c-16.667 -15.333 -31 -27.333 -43 -36s-25.333 -17 -40 -25c-27.333 -15.333 -58 -23 -92 -23c-25.333 0 -48 4.33301 -68 13s-38.333 21 -55 37
c-30.667 30.667 -47 67.667 -49 111v18zM381 293.001h-257c6.66699 22 16.334 41 29.001 57c26 32.667 61 49 105 49c19.333 0 36 -2.83301 50 -8.5s26 -13.5 36 -23.5c17.333 -17.333 29.666 -42.333 36.999 -75v1z" />
    <glyph glyph-name="ecircumflex" unicode="&#xea;" horiz-adv-x="503" 
d="M411 500l-126 189h-72l-124 -190h67l93 103l95 -103zM469 228c0 40 -5 74.168 -15 102.501s-24.667 53.166 -44 74.499c-40 44 -91 66 -153 66c-64 0 -116.667 -23.667 -158 -71c-40.667 -45.333 -61 -101.666 -61 -168.999c0 -72.667 22.667 -133.334 68 -182.001
c46 -47.333 104.333 -71 175 -71c38 0 73.333 7.66699 106 23c14 6 26.833 12.667 38.5 20s23.167 15.333 34.5 24v89c-16.667 -15.333 -31 -27.333 -43 -36s-25.333 -17 -40 -25c-27.333 -15.333 -58 -23 -92 -23c-25.333 0 -48 4.33301 -68 13s-38.333 21 -55 37
c-30.667 30.667 -47 67.667 -49 111v18zM381 293.001h-257c6.66699 22 16.334 41 29.001 57c26 32.667 61 49 105 49c19.333 0 36 -2.83301 50 -8.5s26 -13.5 36 -23.5c17.333 -17.333 29.666 -42.333 36.999 -75v1z" />
    <glyph glyph-name="edieresis" unicode="&#xeb;" horiz-adv-x="503" 
d="M366 546v93h-93v-94zM229 545v94h-93v-94h93zM469 228c0 40 -5 74.168 -15 102.501s-24.667 53.166 -44 74.499c-40 44 -91 66 -153 66c-64 0 -116.667 -23.667 -158 -71c-40.667 -45.333 -61 -101.666 -61 -168.999c0 -72.667 22.667 -133.334 68 -182.001
c46 -47.333 104.333 -71 175 -71c38 0 73.333 7.66699 106 23c14 6 26.833 12.667 38.5 20s23.167 15.333 34.5 24v89c-16.667 -15.333 -31 -27.333 -43 -36s-25.333 -17 -40 -25c-27.333 -15.333 -58 -23 -92 -23c-25.333 0 -48 4.33301 -68 13s-38.333 21 -55 37
c-30.667 30.667 -47 67.667 -49 111v18zM381 293.001h-257c6.66699 22 16.334 41 29.001 57c26 32.667 61 49 105 49c19.333 0 36 -2.83301 50 -8.5s26 -13.5 36 -23.5c17.333 -17.333 29.666 -42.333 36.999 -75v1z" />
    <glyph glyph-name="igrave" unicode="&#xec;" horiz-adv-x="197" 
d="M219 509l-121 181h-117l177 -182zM137 -13v475h-73v-475h73z" />
    <glyph glyph-name="iacute" unicode="&#xed;" horiz-adv-x="197" 
d="M262 690h-117l-121 -182h60zM138 -13v475h-73v-475h73z" />
    <glyph glyph-name="icircumflex" unicode="&#xee;" horiz-adv-x="197" 
d="M259 500l-125 189h-72l-124 -190h66l94 103l94 -103zM135 -13v475h-73v-475h73z" />
    <glyph glyph-name="idieresis" unicode="&#xef;" horiz-adv-x="197" 
d="M214 546v93h-93v-94zM77 545v94h-93v-94h93zM135 -13v475h-73v-475h73z" />
    <glyph glyph-name="eth" unicode="&#xf0;" horiz-adv-x="587" 
d="M550 248c0 100.667 -27.001 190.667 -81.001 270c-16.667 24 -38.667 48.667 -66 74l110 51l-27 56l-136 -65c-14 10.667 -31 21 -51 31s-45 20.667 -75 32l-29 -56c17.333 -8 32.5 -15.667 45.5 -23l33.5 -19l-114 -53l25 -56l149 69c10.667 -8 19.667 -15.5 27 -22.5
l19 -18.5c26.667 -30 47.334 -63.333 62.001 -100c-24 20 -47.333 33.667 -70 41c-24 8 -48.667 12 -74 12c-76 0 -138 -23.667 -186 -71c-48.667 -46.667 -73 -106 -73 -178c0 -70 24.667 -128.333 74 -175c48.667 -46.667 110 -70 184 -70c75.333 0 136.333 25.667 183 77
c46.667 49.333 70 114 70 194zM473.999 229c0 -54.667 -16.668 -99.333 -50.001 -134c-32 -34.667 -74.667 -52 -128 -52s-97.666 17.333 -132.999 52c-35.333 33.333 -53 75.333 -53 126c0 51.333 17.333 95 52 131s79 54 133 54c52.667 0 95.667 -17 129 -51
c33.333 -33.333 50 -75.333 50 -126z" />
    <glyph glyph-name="ntilde" unicode="&#xf1;" horiz-adv-x="515" 
d="M434 655h-53.999c-2.66699 -14 -5.16699 -23.833 -7.5 -29.5s-4.83301 -9.5 -7.5 -11.5c-5.33301 -5.33301 -11 -8 -17 -8c-11.333 0 -37 8 -77 24c-38.667 17.333 -70 26 -94 26c-15.333 0 -29 -2.66699 -41 -8s-22.333 -14 -31 -26
c-7.33301 -10.667 -12.833 -22.667 -16.5 -36s-5.5 -30.333 -5.5 -51h55c2 14.667 4 24.667 6 30s4.33301 9 7 11c6.66699 5.33301 12.667 8 18 8c11.333 0 36.666 -8 75.999 -24c40 -17.333 71.333 -26 94 -26c32.667 0 57 11.333 73 34
c7.33301 10.667 12.833 22.667 16.5 36s5.5 30.333 5.5 51zM453.001 -13l-0.00195312 284c0 30 -4 57.333 -12 82s-20.667 46 -38 64c-34 36 -78.667 54 -134 54c-31.333 0 -60 -7.33301 -86 -22c-17.333 -10 -33.666 -25.667 -48.999 -47v60h-72v-475h73v326
c7.33301 11.333 15.333 22 24 32s18.334 19.333 29.001 28c20.667 17.333 47.667 26 81 26c36 0 63.333 -12.333 82 -37c9.33301 -11.333 16.5 -26 21.5 -44s7.5 -38.667 7.5 -62v-269h73z" />
    <glyph glyph-name="ograve" unicode="&#xf2;" horiz-adv-x="569" 
d="M404 509l-121 181h-117l177 -182zM526 224c0 69.333 -23 128 -69 176c-46 47.333 -103.333 71 -172 71c-70 0 -127.667 -23.667 -173 -71c-46 -48 -69 -106.667 -69 -176c0 -68 23.333 -126.333 70 -175c45.333 -47.333 102.666 -71 171.999 -71
c68.667 0 126.334 23.667 173.001 71c45.333 48.667 68 107 68 175zM450 224c0 -48 -16 -89 -48 -123c-33.333 -34 -72.333 -51 -117 -51c-45.333 0 -84.333 17.333 -117 52c-32.667 32.667 -49 73.334 -49 122.001c0 49.333 16.333 90.666 49 123.999c32 34 71 51 117 51
c45.333 0 84.333 -17.333 117 -52c32 -33.333 48 -74.333 48 -123z" />
    <glyph glyph-name="oacute" unicode="&#xf3;" horiz-adv-x="569" 
d="M486 690h-117l-121 -182h61zM526 224c0 69.333 -23 128 -69 176c-46 47.333 -103.333 71 -172 71c-70 0 -127.667 -23.667 -173 -71c-46 -48 -69 -106.667 -69 -176c0 -68 23.333 -126.333 70 -175c45.333 -47.333 102.666 -71 171.999 -71
c68.667 0 126.334 23.667 173.001 71c45.333 48.667 68 107 68 175zM450 224c0 -48 -16 -89 -48 -123c-33.333 -34 -72.333 -51 -117 -51c-45.333 0 -84.333 17.333 -117 52c-32.667 32.667 -49 73.334 -49 122.001c0 49.333 16.333 90.666 49 123.999c32 34 71 51 117 51
c45.333 0 84.333 -17.333 117 -52c32 -33.333 48 -74.333 48 -123z" />
    <glyph glyph-name="ocircumflex" unicode="&#xf4;" horiz-adv-x="569" 
d="M446 500l-126 189h-71l-125 -190h67l94 103l94 -103zM526 224c0 69.333 -23 128 -69 176c-46 47.333 -103.333 71 -172 71c-70 0 -127.667 -23.667 -173 -71c-46 -48 -69 -106.667 -69 -176c0 -68 23.333 -126.333 70 -175c45.333 -47.333 102.666 -71 171.999 -71
c68.667 0 126.334 23.667 173.001 71c45.333 48.667 68 107 68 175zM450 224c0 -48 -16 -89 -48 -123c-33.333 -34 -72.333 -51 -117 -51c-45.333 0 -84.333 17.333 -117 52c-32.667 32.667 -49 73.334 -49 122.001c0 49.333 16.333 90.666 49 123.999c32 34 71 51 117 51
c45.333 0 84.333 -17.333 117 -52c32 -33.333 48 -74.333 48 -123z" />
    <glyph glyph-name="otilde" unicode="&#xf5;" horiz-adv-x="569" 
d="M460 655h-54c-2.66699 -14 -5 -23.833 -7 -29.5s-4.33301 -9.5 -7 -11.5c-6 -5.33301 -11.667 -8 -17 -8c-7.33301 0 -17.166 2 -29.499 6s-28.5 10 -48.5 18c-38.667 17.333 -69.667 26 -93 26c-15.333 0 -29.166 -2.66699 -41.499 -8s-22.833 -14 -31.5 -26
c-7.33301 -10.667 -12.833 -22.667 -16.5 -36s-5.5 -30.333 -5.5 -51h56c1.33301 14.667 3 24.667 5 30s4.33301 9 7 11c7.33301 5.33301 13.666 8 18.999 8c10.667 0 36 -8 76 -24c38.667 -17.333 70 -26 94 -26c15.333 0 29.166 2.83301 41.499 8.5s22.5 14.167 30.5 25.5
c7.33301 10.667 12.833 22.667 16.5 36s5.5 30.333 5.5 51zM526 224c0 69.333 -23 128 -69 176c-46 47.333 -103.333 71 -172 71c-70 0 -127.667 -23.667 -173 -71c-46 -48 -69 -106.667 -69 -176c0 -68 23.333 -126.333 70 -175c45.333 -47.333 102.666 -71 171.999 -71
c68.667 0 126.334 23.667 173.001 71c45.333 48.667 68 107 68 175zM450 224c0 -48 -16 -89 -48 -123c-33.333 -34 -72.333 -51 -117 -51c-45.333 0 -84.333 17.333 -117 52c-32.667 32.667 -49 73.334 -49 122.001c0 49.333 16.333 90.666 49 123.999c32 34 71 51 117 51
c45.333 0 84.333 -17.333 117 -52c32 -33.333 48 -74.333 48 -123z" />
    <glyph glyph-name="odieresis" unicode="&#xf6;" horiz-adv-x="569" 
d="M401 546v93h-93v-94zM264 545v94h-93v-94h93zM526 224c0 69.333 -23 128 -69 176c-46 47.333 -103.333 71 -172 71c-70 0 -127.667 -23.667 -173 -71c-46 -48 -69 -106.667 -69 -176c0 -68 23.333 -126.333 70 -175c45.333 -47.333 102.666 -71 171.999 -71
c68.667 0 126.334 23.667 173.001 71c45.333 48.667 68 107 68 175zM450 224c0 -48 -16 -89 -48 -123c-33.333 -34 -72.333 -51 -117 -51c-45.333 0 -84.333 17.333 -117 52c-32.667 32.667 -49 73.334 -49 122.001c0 49.333 16.333 90.666 49 123.999c32 34 71 51 117 51
c45.333 0 84.333 -17.333 117 -52c32 -33.333 48 -74.333 48 -123z" />
    <glyph glyph-name="divide" unicode="&#xf7;" horiz-adv-x="693" 
d="M386 460v109h-79v-110zM621 316v70h-549v-70h549zM386 133v110h-79v-110h79z" />
    <glyph glyph-name="oslash" unicode="&#xf8;" horiz-adv-x="569" 
d="M529 338c0 8 -1.66895 16.667 -5.00195 26s-7.66602 18.5 -12.999 27.5s-11 17.333 -17 25s-11.667 14.167 -17 19.5l18 39l-20 16l-53 -60c-38.667 26.667 -84 40 -136 40c-34 0 -65.5 -5.83301 -94.5 -17.5s-55.167 -29.5 -78.5 -53.5
c-45.333 -47.333 -68 -106 -68 -176c0 -65.333 19 -119.333 57 -162l-61 -70l51 -39l57 66c38.667 -27.333 84.334 -41 137.001 -41c34 0 65.5 5.83301 94.5 17.5s55.167 29.5 78.5 53.5c33.333 34 53 75.667 59 125c4 42 -2 80 -18 114c0 1.33301 1.5 4.5 4.5 9.5
s6.33301 10.167 10 15.5s7 10.5 10 15.5s4.5 8.16699 4.5 9.5zM451.998 224c0 -48.667 -16.333 -89.667 -49 -123c-32 -34 -71 -51 -117 -51c-33.333 0 -62.333 8.66699 -87 26l219 252c22.667 -30 34 -64.667 34 -104zM371.998 373l-219.001 -251.999
c-21.333 29.333 -32 63.666 -32 102.999c0 50 16 91.333 48 124c32.667 34 71.667 51 117 51c32.667 0 61.334 -8.66699 86.001 -26z" />
    <glyph glyph-name="ugrave" unicode="&#xf9;" horiz-adv-x="515" 
d="M376 509l-121 181h-118l178 -182zM453 -13l-0.000976562 474.997h-73v-324c-10 -19.333 -27.333 -38.666 -52 -57.999c-24 -20 -51.333 -30 -82 -30c-35.333 0 -62.666 11.333 -81.999 34s-29 55.334 -29 98.001v280h-73v-290c0 -62.667 16.667 -110.667 50 -144
s80 -50 140 -50c27.333 0 54 7.33301 80 22c16.667 8.66699 32.667 23.334 48 44.001v-57h73z" />
    <glyph glyph-name="uacute" unicode="&#xfa;" horiz-adv-x="515" 
d="M452 690h-117l-121 -182h61zM447 -13v474.999h-73v-324c-10.667 -20 -27.667 -39.333 -51 -58c-24 -20 -51.333 -30 -82 -30c-36 0 -63.667 11.333 -83 34s-29 55.334 -29 98.001v280h-73v-290c0 -62 17 -110 51 -144c33.333 -33.333 80 -50 140 -50
c26 0 52.667 7.33301 80 22c17.333 9.33301 33 24 47 44v-57h73z" />
    <glyph glyph-name="ucircumflex" unicode="&#xfb;" horiz-adv-x="515" 
d="M418 500l-126 189h-71l-125 -190h67l93 103l95 -103zM453 -13l-0.000976562 474.997h-73v-324c-10 -19.333 -27.333 -38.666 -52 -57.999c-24 -20 -51.333 -30 -82 -30c-35.333 0 -62.666 11.333 -81.999 34s-29 55.334 -29 98.001v280h-73v-290
c0 -62.667 16.667 -110.667 50 -144s80 -50 140 -50c27.333 0 54 7.33301 80 22c16.667 8.66699 32.667 23.334 48 44.001v-57h73z" />
    <glyph glyph-name="udieresis" unicode="&#xfc;" horiz-adv-x="515" 
d="M373 546v93h-93v-94zM236 545v94h-93v-94h93zM453 -13l-0.000976562 474.997h-73v-324c-10 -19.333 -27.333 -38.666 -52 -57.999c-24 -20 -51.333 -30 -82 -30c-35.333 0 -62.666 11.333 -81.999 34s-29 55.334 -29 98.001v280h-73v-290
c0 -62.667 16.667 -110.667 50 -144s80 -50 140 -50c27.333 0 54 7.33301 80 22c16.667 8.66699 32.667 23.334 48 44.001v-57h73z" />
    <glyph glyph-name="yacute" unicode="&#xfd;" horiz-adv-x="438" 
d="M417 690h-117l-121 -182h60zM450 461h-77l-146 -298l-154 299h-80l196 -376l-163 -329h77z" />
    <glyph glyph-name="thorn" unicode="&#xfe;" horiz-adv-x="536" 
d="M489 225c0 72 -22.667 131 -68 177s-103 69 -173 69c-11.333 0 -22.666 -0.833008 -33.999 -2.5s-23 -4.16699 -35 -7.5c-17.333 -4 -33.333 -10 -48 -18v252h-73v-938h73v249c8.66699 -4 17.167 -7.66699 25.5 -11s16.833 -6 25.5 -8c22.667 -6 48 -9 76 -9
c63.333 0 117.666 25 162.999 75c45.333 48.667 68 106 68 172zM411 224c0 -50.667 -15.666 -92.3301 -46.999 -124.997c-30 -32.667 -70.667 -49 -122 -49c-13.333 0 -25.833 1.16699 -37.5 3.5s-22.5 5.16602 -32.5 8.49902c-8 3.33301 -15.5 6.16602 -22.5 8.49902
s-13.167 5.16602 -18.5 8.49902v292c7.33301 4.66699 19.666 10 36.999 16c18 8 40.667 12 68 12c50 0 91.667 -17 125 -51c33.333 -32 50 -73.333 50 -124z" />
    <glyph glyph-name="ydieresis" unicode="&#xff;" horiz-adv-x="438" 
d="M332 546v93h-93v-94zM195 545v94h-93v-94h93zM450 461h-77l-146 -298l-154 299h-80l196 -376l-163 -329h77z" />
    <glyph glyph-name="OE" unicode="&#x152;" horiz-adv-x="941" 
d="M893 -13v70h-330v252l314 1v68h-314v248h323v69h-467c-104 0 -191.667 -33.667 -263 -101c-70.667 -66 -106 -149 -106 -249c0 -103.333 35.333 -189 106 -257c70.667 -67.333 159 -101 265 -101h472zM485 57h-53c-86.667 0 -158.334 26.667 -215.001 80
c-56.667 54.667 -85 122.667 -85 204c0 41.333 7.16699 78.5 21.5 111.5s35.5 63.5 63.5 91.5c56.667 54.667 127.334 82 212.001 82h56v-569z" />
    <glyph glyph-name="oe" unicode="&#x153;" horiz-adv-x="875" 
d="M824 229c0 38.667 -4.16406 72.166 -12.4971 100.499s-20.833 53.5 -37.5 75.5c-33.333 44 -77 66 -131 66c-38 0 -72 -8 -102 -24c-24.667 -12.667 -48 -34 -70 -64c-20.667 28 -45.334 49.333 -74.001 64c-31.333 16 -70.333 24 -117 24c-66 0 -121 -24 -165 -72
c-43.333 -47.333 -65 -105.666 -65 -174.999c0 -68.667 21.667 -126.667 65 -174c44 -48 98 -72 162 -72c46 0 87.667 10.333 125 31c14 8.66699 27 18.334 39 29.001s22.667 22.667 32 36c16.667 -34 39.667 -58 69 -72c32.667 -16 68.667 -24 108 -24
c33.333 0 65.333 7.33301 96 22c14 6.66699 26.5 13.667 37.5 21s21.5 15.333 31.5 24v90c-16.667 -16 -30.334 -28.333 -41.001 -37s-22.334 -17.334 -35.001 -26.001c-23.333 -14.667 -49 -22 -77 -22c-41.333 0 -76.333 16.333 -105 49c-26 30 -40 67.333 -42 112v18h309
zM737.003 292.999h-213c6.66699 24.667 15 44 25 58c22 32 51 48 87 48c30 0 53.667 -10.333 71 -31c15.333 -18 25.333 -43.333 30 -76v1zM438.003 223.999c0 -48 -15.332 -89.335 -45.999 -124.002c-30 -33.333 -66.667 -50 -110 -50c-42.667 0 -79.334 17 -110.001 51
c-30.667 33.333 -46 74.333 -46 123s15.333 90.334 46 125.001c30 33.333 66.667 50 110 50c42 0 78.667 -17 110 -51c30.667 -33.333 46 -74.666 46 -123.999z" />
    <glyph glyph-name="Scaron" unicode="&#x160;" horiz-adv-x="492" 
d="M407 922h-67l-94 -103l-94 103h-66l124 -190h71zM450 173c0 56 -13.665 98.998 -40.998 128.998c-13.333 15.333 -32.333 29.833 -57 43.5s-54.334 26.834 -89.001 39.501c-50.667 18.667 -86.667 37 -108 55c-19.333 17.333 -29 42.333 -29 75
c0 30.667 12.667 57.667 38 81c12.667 11.333 26.5 19.833 41.5 25.5s32.167 8.5 51.5 8.5c30.667 0 58.667 -6 84 -18l38.5 -19.5c12.333 -6.33301 27.166 -14.5 44.499 -24.5l-2 87c-13.333 9.33301 -34.666 19.666 -63.999 30.999c-31.333 12 -67 18 -107 18
c-56.667 0 -105.334 -19 -146.001 -57c-40.667 -37.333 -61 -82 -61 -134c0 -52.667 14.333 -93.334 43 -122.001c13.333 -13.333 30.666 -26.166 51.999 -38.499s46.333 -23.166 75 -32.499c53.333 -18.667 93.333 -38.667 120 -60c23.333 -19.333 35 -47.333 35 -84
c0 -35.333 -12.667 -64.666 -38 -87.999c-26 -24 -57.667 -36 -95 -36c-23.333 0 -48 5.66699 -74 17c-13.333 6 -28.166 14 -44.499 24s-37.833 25 -64.5 45v-93c10 -8 21.5 -15.333 34.5 -22s27.833 -13.667 44.5 -21c34 -16 71.667 -24 113 -24
c55.333 0 103.333 19.333 144 58c40.667 38 61 83.667 61 137z" />
    <glyph glyph-name="scaron" unicode="&#x161;" horiz-adv-x="372" 
d="M347 689h-67l-94 -103l-94 103h-67l125 -190h71zM344 116c0 40.667 -14 71.9971 -42 93.9971c-26 20.667 -58.667 38 -98 52c-15.333 5.33301 -28.833 10.833 -40.5 16.5s-21.834 11.5 -30.501 17.5c-14.667 10.667 -22 24.667 -22 42c0 16.667 7.66699 31.667 23 45
c7.33301 6 16 10.667 26 14s22.667 5 38 5c10.667 0 20.834 -1.16699 30.501 -3.5s19.5 -5.5 29.5 -9.5c10 -4.66699 20.167 -10.167 30.5 -16.5s24.166 -16.166 41.499 -29.499v82c-14.667 12.667 -33.334 23.334 -56.001 32.001c-24 9.33301 -50.667 14 -80 14
c-20 0 -38.833 -3.33301 -56.5 -10s-34.167 -16 -49.5 -28c-32 -25.333 -48 -57.333 -48 -96c0 -34.667 11.333 -63 34 -85c21.333 -20.667 51.333 -38 90 -52c25.333 -9.33301 45.333 -17.666 60 -24.999s25.334 -14 32.001 -20c11.333 -11.333 17 -24 17 -38
c0 -20.667 -7.66699 -36.667 -23 -48c-16.667 -12.667 -37.667 -19 -63 -19c-21.333 0 -44.666 4.33301 -69.999 13c-12 4 -24 8.83301 -36 14.5s-26.667 14.167 -44 25.5v-78c8.66699 -5.33301 17.667 -10.5 27 -15.5s20.333 -10.167 33 -15.5
c23.333 -11.333 53.333 -17 90 -17c44 0 81 13.667 111 41c30.667 27.333 46 60 46 98z" />
    <glyph glyph-name="Ydieresis" unicode="&#x178;" horiz-adv-x="612" 
d="M421 764v93h-93v-94zM284 763v94h-93v-94h93zM624 694h-96l-221 -263l-223 264h-96l279 -334v-374h78v374z" />
    <glyph glyph-name="florin" unicode="&#x192;" horiz-adv-x="584" 
d="M568 722l-25.5 8.99707c-7.66699 2.66699 -16.167 4.66699 -25.5 6c-18 4 -35.333 6 -52 6c-34.667 0 -65.334 -10.333 -92.001 -31c-13.333 -11.333 -24 -26.166 -32 -44.499s-15 -40.166 -21 -65.499l-16 -69h-82l-14 -72h82l-108 -497
c-3.33301 -14 -6.16602 -26.5 -8.49902 -37.5s-4.83301 -20.5 -7.5 -28.5c-2 -7.33301 -4 -13 -6 -17s-4 -7 -6 -9c-10 -11.333 -24.667 -17 -44 -17c-6.66699 0 -13 0.333008 -19 1s-11.667 1.66699 -17 3c-6 1.33301 -12.5 2.5 -19.5 3.5s-16.5 3.16699 -28.5 6.5l-17 -73
c9.33301 -2.66699 17.333 -4.83398 24 -6.50098l21 -5.5c8 -2 16.833 -3.66699 26.5 -5s20.167 -2 31.5 -2c40 0 71.333 10.333 94 31c11.333 9.33301 21 21 29 35s14 30.667 18 50l124 569h107l17 72h-109c0.666992 1.33301 1.5 4.83301 2.5 10.5s1.83301 9.16699 2.5 10.5
c6 26 11.333 46.833 16 62.5s9.66699 26.167 15 31.5c4.66699 4.66699 10.334 8.33398 17.001 11.001s15 4 25 4c14.667 0 28 -1 40 -3l18.5 -4c6.33301 -1.33301 15.166 -3.66602 26.499 -6.99902z" />
    <glyph glyph-name="circumflex" unicode="&#x2c6;" 
d="M336 500l-126 189h-71l-125 -190h67l93 103l95 -103z" />
    <glyph glyph-name="tilde" unicode="&#x2dc;" 
d="M350 655h-54c-2.66699 -14 -5 -23.833 -7 -29.5s-4.33301 -9.5 -7 -11.5c-6 -5.33301 -11.667 -8 -17 -8c-7.33301 0 -17.166 2 -29.499 6s-28.5 10 -48.5 18c-38.667 17.333 -69.667 26 -93 26c-15.333 0 -29.166 -2.66699 -41.499 -8s-22.833 -14 -31.5 -26
c-7.33301 -10.667 -12.833 -22.667 -16.5 -36s-5.5 -30.333 -5.5 -51h56c1.33301 14.667 3 24.667 5 30s4.33301 9 7 11c7.33301 5.33301 13.666 8 18.999 8c10.667 0 36 -8 76 -24c38.667 -17.333 70 -26 94 -26c15.333 0 29.166 2.83301 41.499 8.5s22.5 14.167 30.5 25.5
c7.33301 10.667 12.833 22.667 16.5 36s5.5 30.333 5.5 51z" />
    <glyph glyph-name="endash" unicode="&#x2013;" horiz-adv-x="525" 
d="M531 222v57h-537v-58z" />
    <glyph glyph-name="emdash" unicode="&#x2014;" horiz-adv-x="1050" 
d="M1044 222v57h-1038v-58z" />
    <glyph glyph-name="quoteleft" unicode="&#x2018;" horiz-adv-x="186" 
d="M145 645v62.002c-16.667 -11.333 -31.334 -21.833 -44.001 -31.5s-23.334 -20.834 -32.001 -33.501c-16 -26 -24 -60.333 -24 -103v-82h90v123h-20c0.666992 7.33301 1.33398 13.833 2.00098 19.5s1.66699 10.5 3 14.5c0.666992 2 2.33398 4.33301 5.00098 7
c2.66699 4 4.66699 6.66699 6 8c4 3.33301 8.66699 8.66602 14 15.999z" />
    <glyph glyph-name="quoteright" unicode="&#x2019;" horiz-adv-x="186" 
d="M140 615v81.999h-90v-123h21c-0.666992 -7.33301 -1.33398 -13.833 -2.00098 -19.5s-1.66699 -10.5 -3 -14.5c-0.666992 -2 -2.33398 -4.33301 -5.00098 -7c-1.33301 -2 -3.66602 -4.66699 -6.99902 -8c-2 -2 -4 -4.33301 -6 -7s-4.66699 -5.66699 -8 -9v-62
c17.333 11.333 32.333 21.833 45 31.5s23 20.834 31 33.501c8.66699 13.333 14.834 28.5 18.501 45.5s5.5 36.167 5.5 57.5z" />
    <glyph glyph-name="quotesinglbase" unicode="&#x201a;" horiz-adv-x="186" 
d="M138 28v82.002h-90v-123h20c0 -14 -1.66699 -25.333 -5 -34c-1.33301 -5.33301 -3.16602 -10.5 -5.49902 -15.5s-5.5 -10.167 -9.5 -15.5v-62c18 11.333 31.667 22.166 41 32.499s17.666 21.166 24.999 32.499c16 26 24 60.333 24 103z" />
    <glyph glyph-name="quotedblleft" unicode="&#x201c;" horiz-adv-x="416" 
d="M370 645l-0.000976562 62.0029c-16.667 -11.333 -31.5 -21.833 -44.5 -31.5s-23.5 -20.834 -31.5 -33.501c-16 -26 -24 -60.333 -24 -103v-82h90v123h-20c0 7.33301 0.333008 13.833 1 19.5s1.66699 10.5 3 14.5c0.666992 2 2.33398 4.33301 5.00098 7
c1.33301 1.33301 2.5 2.66602 3.5 3.99902s2.16699 2.66602 3.5 3.99902c2 2 4 4.33301 6 7s4.66699 5.66699 8 9zM150.999 645.003l-0.000976562 62.0029c-16.667 -11.333 -31.5 -21.833 -44.5 -31.5s-23.5 -20.834 -31.5 -33.501c-16 -26 -24 -60.333 -24 -103v-82h90v123
h-20c0 7.33301 0.333008 13.833 1 19.5s1.66699 10.5 3 14.5c0.666992 2 2.33398 4.33301 5.00098 7c1.33301 1.33301 2.5 2.66602 3.5 3.99902s2.16699 2.66602 3.5 3.99902c2 2 4 4.33301 6 7s4.66699 5.66699 8 9z" />
    <glyph glyph-name="quotedblright" unicode="&#x201d;" horiz-adv-x="416" 
d="M365 615v81.9971h-90v-123h20c0 -14 -1.66699 -25.333 -5 -34c0 -2 -1.33301 -4.33301 -4 -7c-1.33301 -1.33301 -2.5 -2.66602 -3.5 -3.99902s-2.16699 -2.66602 -3.5 -3.99902c-2 -2 -4.16699 -4.33301 -6.5 -7l-7.5 -9v-62c16.667 11.333 31.5 21.833 44.5 31.5
s23.5 20.834 31.5 33.501c16 26 24 60.333 24 103zM146 614.997v81.9971h-90v-123h20c0 -14 -1.66699 -25.333 -5 -34c0 -2 -1.33301 -4.33301 -4 -7c-1.33301 -1.33301 -2.5 -2.66602 -3.5 -3.99902s-2.16699 -2.66602 -3.5 -3.99902c-2 -2 -4.16699 -4.33301 -6.5 -7
l-7.5 -9v-62c16.667 11.333 31.5 21.833 44.5 31.5s23.5 20.834 31.5 33.501c16 26 24 60.333 24 103z" />
    <glyph glyph-name="quotedblbase" unicode="&#x201e;" horiz-adv-x="416" 
d="M363 28l-0.000976562 82h-90v-123h20c0 -7.33301 -0.333008 -13.833 -1 -19.5s-1.66699 -10.167 -3 -13.5c0 -2 -1.66699 -4.66699 -5 -8c-1.33301 -2 -3.66602 -4.66699 -6.99902 -8c-2 -2 -4 -4.16699 -6 -6.5l-8 -9.5v-62l44 31c12.667 9.33301 23 20.333 31 33
c16.667 27.333 25 62 25 104zM147.999 28l-0.000976562 82h-90v-123h20c0 -7.33301 -0.333008 -13.833 -1 -19.5s-1.66699 -10.167 -3 -13.5c0 -2 -1.66699 -4.66699 -5 -8c-1.33301 -2 -3.66602 -4.66699 -6.99902 -8c-2 -2 -4 -4.16699 -6 -6.5l-8 -9.5v-62l44 31
c12.667 9.33301 23 20.333 31 33c16.667 27.333 25 62 25 104z" />
    <glyph glyph-name="dagger" unicode="&#x2020;" horiz-adv-x="515" 
d="M488 354v79h-192l3 271h-85l3 -271h-192v-79h192l-6 -597h91l-6 597h192z" />
    <glyph glyph-name="daggerdbl" unicode="&#x2021;" horiz-adv-x="503" 
d="M477 -3v81l-199 -14l13 162l-13 172l199 -14v81l-200 -14l18 253h-88l17 -253l-199 14v-81l199 14l-13 -172l13 -162l-199 14v-81l199 14l-17 -254h88l-18 254z" />
    <glyph glyph-name="bullet" unicode="&#x2022;" horiz-adv-x="525" 
d="M397 341c0 37.333 -13.333 69.333 -40 96c-26 26 -57.667 39 -95 39c-36.667 0 -68.334 -13.333 -95.001 -40c-26 -26 -39 -57.667 -39 -95s13.333 -69.333 40 -96c26 -26 57.667 -39 95 -39c36.667 0 68.334 13.333 95.001 40c26 26 39 57.667 39 95z" />
    <glyph glyph-name="ellipsis" unicode="&#x2026;" horiz-adv-x="1050" 
d="M902 -13v124h-89v-124h89zM569 -13v124h-89v-124h89zM236 -13v124h-89v-124h89z" />
    <glyph glyph-name="perthousand" unicode="&#x2030;" horiz-adv-x="1105" 
d="M1077 147c0 47.333 -17 87.999 -51 121.999s-74.667 51 -122 51c-46.667 0 -87.667 -17 -123 -51c-33.333 -33.333 -50 -74 -50 -122c0 -47.333 16.667 -87.666 50 -120.999c35.333 -34 76 -51 122 -51c48 0 89 17 123 51s51 74.333 51 121zM380 530.999
c0 47.333 -17 88 -51 122s-75 51 -123 51c-46.667 0 -87.667 -17 -123 -51c-33.333 -33.333 -50 -74 -50 -122s17 -89 51 -123c35.333 -34 76 -51 122 -51c47.333 0 88.333 17.333 123 52c34 34 51 74.667 51 122zM686 700.999h-81l-570 -725h83zM708 146.999
c0 47.333 -17 87.999 -51 121.999s-74.667 51 -122 51c-46.667 0 -87.667 -17 -123 -51c-33.333 -33.333 -50 -74 -50 -122c0 -47.333 16.667 -87.666 50 -120.999c35.333 -34 76 -51 122 -51c48 0 89 17 123 51s51 74.333 51 121zM1009 144.998
c0 -28 -10.333 -51.999 -31 -71.999c-20 -20 -44.333 -30 -73 -30c-29.333 0 -54.666 10.667 -75.999 32c-20 19.333 -30 43.666 -30 72.999c0 28 10.333 52.333 31 73s45.667 31 75 31c27.333 0 51.666 -10.667 72.999 -32c20.667 -20 31 -45 31 -75zM312 528.999
c0 -27.333 -10.666 -51.667 -31.999 -73c-20 -20.667 -44.333 -31 -73 -31s-53.667 10.667 -75 32c-20.667 20.667 -31 45.667 -31 75c0 28 10.667 52.333 32 73c10.667 10 22 17.667 34 23s25.667 8 41 8c27.333 0 51.666 -10.667 72.999 -32c20.667 -20 31 -45 31 -75z
M640.001 144.998c0 -28 -10.333 -51.999 -31 -71.999c-20 -20 -44.333 -30 -73 -30c-29.333 0 -54.666 10.667 -75.999 32c-20 19.333 -30 43.666 -30 72.999c0 28 10.333 52.333 31 73s45.667 31 75 31c27.333 0 51.666 -10.667 72.999 -32c20.667 -20 31 -45 31 -75z" />
    <glyph glyph-name="guilsinglleft" unicode="&#x2039;" horiz-adv-x="295" 
d="M294 -7l-199 238l197 238h-93l-198 -238l200 -238h93z" />
    <glyph glyph-name="guilsinglright" unicode="&#x203a;" horiz-adv-x="295" 
d="M293 231l-197 238h-94l198 -238l-200 -238h94z" />
    <glyph glyph-name="minus" unicode="&#xe000;" horiz-adv-x="693" 
d="M621 317v69h-549v-70z" />
    <glyph glyph-name="notequal" unicode="&#xe001;" horiz-adv-x="693" 
d="M621 196v69h-271l65 173h206v69h-179l46 122h-71l-46 -123h-299v-69h272l-65 -173h-207v-69h180l-46 -122h71l46 123h298z" />
    <glyph glyph-name="infinity" unicode="&#xe002;" horiz-adv-x="749" 
d="M719 264c0 44.667 -16.335 81.333 -49.002 110c-32 28.667 -67 43 -105 43c-30 0 -59 -7 -87 -21c-12.667 -6.66699 -27.667 -16.5 -45 -29.5s-36.666 -29.833 -57.999 -50.5c-22 20.667 -41.667 37.5 -59 50.5s-32.666 22.833 -45.999 29.5
c-27.333 14 -55.666 21 -84.999 21c-38.667 0 -74.334 -14.667 -107.001 -44c-32 -28.667 -48 -65 -48 -109s16.333 -80.667 49 -110c32 -28.667 67.333 -43 106 -43c24 0 50.333 6.66699 79 20c27.333 11.333 64.333 38.333 111 81c45.333 -42.667 82 -69.667 110 -81
c30 -13.333 56.667 -20 80 -20c38 0 73.333 14.667 106 44c32 28 48 64.333 48 109zM642.998 263.999c0 -24.667 -7 -43.332 -21 -55.999c-7.33301 -6.66699 -15.5 -11.834 -24.5 -15.501s-19.833 -5.5 -32.5 -5.5c-26 0 -51 8.33301 -75 25c-22 16 -42 33.333 -60 52
c9.33301 10 19 19.5 29 28.5s20.667 17.167 32 24.5c22 16 46.667 24 74 24c23.333 0 42.333 -8.33301 57 -25c14 -16 21 -33.333 21 -52zM318.998 264.001c-9.33301 -10 -19 -19.5 -29 -28.5s-20.667 -17.167 -32 -24.5c-22 -16 -46.333 -24 -73 -24
c-25.333 0 -45 7 -59 21c-13.333 13.333 -20 32 -20 56c0 18 7.33301 35.667 22 53c14.667 16 33.667 24 57 24c25.333 0 50 -8.33301 74 -25c22 -16 42 -33.333 60 -52z" />
    <glyph glyph-name="lessequal" unicode="&#xe003;" horiz-adv-x="693" 
d="M621 131v76l-444 184l444 184v76l-549 -231v-58zM621 -13v61h-549v-61h549z" />
    <glyph glyph-name="greaterequal" unicode="&#xe004;" horiz-adv-x="693" 
d="M621 362v58l-549 231v-76l443 -184l-443 -184v-76zM621 -13v61h-549v-61h549z" />
    <glyph glyph-name="partialdiff" unicode="&#xe005;" horiz-adv-x="875" 
d="M792 -13l-0.00292969 50.001h-185c0.666992 0.666992 2.16699 2 4.5 4s3.83301 3.33301 4.5 4l23.5 24c7.66699 8 15.167 16.667 22.5 26c7.33301 7.33301 15 15.666 23 24.999s15.667 20 23 32l14.5 22c5 7.33301 9.5 15.666 13.5 24.999
c9.33301 20.667 14 39.667 14 57c0 34 -14 62 -42 84c-27.333 21.333 -60.333 32 -99 32c-12.667 0 -24.667 -1.16699 -36 -3.5s-22 -5.16602 -32 -8.49902c-16.667 -6.66699 -32 -15.667 -46 -27v-64c16.667 13.333 29.334 23 38.001 29s16.667 10.667 24 14
c15.333 6.66699 31.666 10 48.999 10c24.667 0 45.334 -6.66699 62.001 -20c16 -12 24 -27.333 24 -46c0 -18 -5 -36 -15 -54c-5.33301 -10 -11.166 -19.833 -17.499 -29.5s-13.166 -19.167 -20.499 -28.5c-11.333 -13.333 -22.333 -25.333 -33 -36l-31 -30l-34 -29.5
l-41 -35.5v-26h292zM684.997 704.001h-71l-543 -744h69zM224.997 320.001l-1 380h-58l1 -381z" />
    <glyph glyph-name="summation" unicode="&#xe006;" horiz-adv-x="875" 
d="M751 125v46h-60v201h-30l-227 -221v-27h200v-137h57v138h60zM698 704h-71l-543 -744h70zM238 320l-1 380h-58l1 -381zM634 170h-112l112 109v-109z" />
    <glyph glyph-name="product" unicode="&#xe007;" horiz-adv-x="875" 
d="M789 125v46h-60v201h-31l-226 -221v-27h200v-137h57v138h60zM730 704h-71l-543 -744h70zM329 432c0 12.667 -2.33105 23.9951 -6.99805 33.9951s-11.334 19.667 -20.001 29c-10.667 10.667 -24.334 19 -41.001 25c19.333 7.33301 33 16 41 26c14 16.667 21 35 21 55
c0 16 -3.5 30.167 -10.5 42.5s-17.167 23.166 -30.5 32.499c-25.333 18.667 -58 28 -98 28c-13.333 0 -25.5 -0.833008 -36.5 -2.5s-21.167 -4.16699 -30.5 -7.5c-7.33301 -3.33301 -14.333 -6.33301 -21 -9s-13.334 -6 -20.001 -10v-52c12 6 21.333 10.333 28 13l22 9
c6.66699 2.66699 14.334 4.83398 23.001 6.50098s18.667 2.5 30 2.5c13.333 0 25.166 -1.66699 35.499 -5s19.833 -7.66602 28.5 -12.999c15.333 -10.667 23 -23 23 -37c0 -7.33301 -1.83301 -14.166 -5.5 -20.499s-10.167 -12.166 -19.5 -17.499
s-19.5 -9.66602 -30.5 -12.999s-23.167 -5 -36.5 -5h-16v-50h19c30.667 0 54.334 -6.33301 71.001 -19c15.333 -11.333 23 -26.666 23 -45.999c0 -18 -8 -33 -24 -45c-16.667 -12.667 -38.667 -19 -66 -19c-20.667 0 -39 2 -55 6c-7.33301 2 -14.833 4.16699 -22.5 6.5
l-30.5 9.5v-50c8 -3.33301 15.833 -6 23.5 -8l25.5 -7c19.333 -4.66699 40 -7 62 -7c21.333 0 40.333 2.66699 57 8s32 13.333 46 24c28 22 42 50.667 42 86zM672.002 169.995h-112l112 109v-109z" />
    <glyph glyph-name="pi" unicode="&#xe008;" horiz-adv-x="576" 
d="M561 164l-47.001 -0.000976562c0 -17.333 -1.33301 -30.333 -4 -39s-6.33398 -15.667 -11.001 -21c-10.667 -10.667 -21.334 -16 -32.001 -16c-10 0 -21.333 6 -34 18c-12 10.667 -18 30.667 -18 60c0 26 1 63 3 111c0.666992 22 1.66699 42.333 3 61
s2.66602 35.667 3.99902 51h128v111h-386c-42 0 -74.667 -16.667 -98 -50c-11.333 -15.333 -21.5 -32.5 -30.5 -51.5s-18.167 -43.5 -27.5 -73.5h42c8 15.333 15.167 27 21.5 35s12.5 13.667 18.5 17c12 8 25 12 39 12h33l-27 -215c-2 -11.333 -7 -24.333 -15 -39
c-7.33301 -12.667 -18 -26 -32 -40c-8 -9.33301 -14.667 -18.333 -20 -27s-8 -19.667 -8 -33c0 -18 6.33301 -33.667 19 -47c14.667 -13.333 30.334 -20 47.001 -20c24 0 42 9 54 27c11.333 15.333 19 33 23 53l45 341h88c-3.33301 -27.333 -6 -52 -8 -74
s-3.66699 -41.667 -5 -59c-1.33301 -18.667 -2.5 -36.667 -3.5 -54s-1.5 -34 -1.5 -50c0 -28 2.33301 -53 7 -75s12.334 -41 23.001 -57c10 -15.333 21.5 -27.333 34.5 -36s27.5 -13 43.5 -13c35.333 0 66 16.667 92 50c12.667 16.667 22.334 36.334 29.001 59.001
s10.334 50.667 11.001 84z" />
    <glyph glyph-name="integral" unicode="&#xe009;" horiz-adv-x="288" 
d="M306 860c0 23.333 -9.33691 41.002 -28.0039 53.002c-8 4.66699 -16.167 8.5 -24.5 11.5s-17.166 4.5 -26.499 4.5c-28 0 -50 -10.833 -66 -32.5s-27 -51.167 -33 -88.5c-12 -73.333 -18 -181.666 -18 -324.999c0 -169.333 1 -274.333 3 -315c2 -40 3 -71.333 3 -94
c0 -30.667 -2 -54 -6 -70c-2.66699 -12.667 -6.33398 -20.334 -11.001 -23.001c-3.33301 2 -6.66602 4.33301 -9.99902 7s-7 6 -11 10c-9.33301 8 -19.333 12 -30 12c-14.667 0 -27.667 -5.66699 -39 -17s-17 -24.666 -17 -39.999c0 -21.333 8.33301 -39.333 25 -54
c16 -12.667 31.667 -19 47 -19c31.333 0 56.5 11.5 75.5 34.5s32.833 55.5 41.5 97.5c17.333 83.333 26 212.333 26 387c0 46.667 -1 92 -3 136s-4.66699 86.333 -8 127c-3.33301 38 -5.83301 69.667 -7.5 95s-2.5 44 -2.5 56c0.666992 1.33301 2.33398 3 5.00098 5
c2.66699 1.33301 6.33398 1.66602 11.001 0.999023c5.33301 -0.666992 11.333 -3.33398 18 -8.00098c6.66699 -5.33301 14 -8 22 -8c20.667 0 36.334 6.66699 47.001 20c11.333 11.333 17 23.666 17 36.999z" />
    <glyph glyph-name="Omega" unicode="&#xe00a;" horiz-adv-x="806" 
d="M767 -13v187.997h-37c-4 -17.333 -7.66699 -29.833 -11 -37.5s-6.33301 -13.167 -9 -16.5c-4.66699 -5.33301 -16.667 -8 -36 -8h-136c1.33301 0.666992 3.16602 3.33398 5.49902 8.00098s4.16602 7.33398 5.49902 8.00098c57.333 13.333 104 45 140 95
c38.667 54 58 112.333 58 175c0 94.667 -34.667 169 -104 223c-68 52.667 -147.667 79 -239 79c-93.333 0 -173.666 -26.667 -240.999 -80c-68.667 -54.667 -103 -128.667 -103 -222c0 -72 20.667 -133.333 62 -184c32 -38.667 73.667 -66.667 125 -84
c1.33301 -0.666992 2.83301 -3.5 4.5 -8.5s3.16699 -8.16699 4.5 -9.5h-122c-19.333 0 -31.666 3 -36.999 9c-2.66699 2.66699 -5.5 7.83398 -8.5 15.501s-6.5 20.167 -10.5 37.5h-38v-188h322l-19 175c-22.667 6 -42 15.167 -58 27.5s-30.667 28.166 -44 47.499
c-12.667 19.333 -22.334 42.5 -29.001 69.5s-10 58.833 -10 95.5c0 42 4.83301 78 14.5 108s23.5 55 41.5 75c36 39.333 84.667 59 146 59c60.667 0 109.334 -20.333 146.001 -61c36.667 -39.333 55 -99.666 55 -180.999c0 -72.667 -13.333 -127.667 -40 -165
c-14 -19.333 -29 -35 -45 -47s-34.667 -21.667 -56 -29l-18 -174h321z" />
    <glyph glyph-name="radical" unicode="&#xe00b;" horiz-adv-x="576" 
d="M550 923l-60 8l-122 -771l-185 379l-169 -83l27 -56l96 47l255 -526z" />
    <glyph glyph-name="approxequal" unicode="&#xe00c;" horiz-adv-x="693" 
d="M611 514l-63.001 21.001c-8.66699 -11.333 -16.5 -20.5 -23.5 -27.5s-14.5 -12.5 -22.5 -16.5c-17.333 -8.66699 -34 -13 -50 -13c-8.66699 0 -42 8.66699 -100 26c-28 8.66699 -51.833 15.334 -71.5 20.001s-35.834 7 -48.501 7c-28 0 -54.667 -6.66699 -80 -20
c-12.667 -6.66699 -25.5 -15.834 -38.5 -27.501s-27.167 -28.5 -42.5 -50.5l64 -25c11.333 15.333 20.833 26.666 28.5 33.999s14.834 13 21.501 17c12 8 26.667 12 44 12c14.667 0 50.334 -9.33301 107.001 -28c28 -9.33301 52 -16.333 72 -21s35.667 -7 47 -7
c14 0 28 2 42 6s27.667 9.66699 41 17c14 7.33301 26.833 16.833 38.5 28.5s23.167 27.5 34.5 47.5zM610.999 272.001l-63.001 21.001c-8.66699 -11.333 -16.5 -20.5 -23.5 -27.5s-14.5 -12.5 -22.5 -16.5c-17.333 -8.66699 -34 -13 -50 -13c-8.66699 0 -42 8.66699 -100 26
c-28 8.66699 -51.833 15.334 -71.5 20.001s-35.834 7 -48.501 7c-28 0 -54.667 -6.66699 -80 -20c-12.667 -6.66699 -25.5 -15.834 -38.5 -27.501s-27.167 -28.5 -42.5 -50.5l64 -25c11.333 15.333 20.833 26.666 28.5 33.999s14.834 13 21.501 17c12 8 26.667 12 44 12
c14.667 0 50.334 -9.33301 107.001 -28c28 -9.33301 52 -16.333 72 -21s35.667 -7 47 -7c14 0 28 2 42 6s27.667 9.66699 41 17c14 7.33301 26.833 16.833 38.5 28.5s23.167 27.5 34.5 47.5z" />
    <glyph glyph-name="Delta" unicode="&#xe00d;" horiz-adv-x="643" 
d="M642 -13l-300 732l-340 -732h640zM481 62h-374l198 424z" />
    <glyph glyph-name="lozenge" unicode="&#xe00e;" horiz-adv-x="519" 
d="M495 377l-201 381h-75l-200 -381l200 -390h75zM407 377l-150 -295l-150 295l150 287z" />
    </font>
</defs>
</svg>
