<svg width="147" height="46" viewBox="0 0 147 46" fill="none" xmlns="http://www.w3.org/2000/svg">
<path d="M4.51611 26.6846V37.5363C4.51611 37.8561 4.64315 38.1628 4.86927 38.3889C5.09539 38.6151 5.40208 38.7421 5.72187 38.7421H29.8369C30.1567 38.7421 30.4634 38.6151 30.6895 38.3889C30.9157 38.1628 31.0427 37.8561 31.0427 37.5363V26.6846" stroke="#262626" stroke-width="2.6334" stroke-linecap="round" stroke-linejoin="round"/>
<path d="M20.1909 26.6846V38.7421" stroke="#262626" stroke-width="2.6334" stroke-linecap="round" stroke-linejoin="round"/>
<path d="M4.51611 30.3018H20.1909" stroke="#262626" stroke-width="2.6334" stroke-linecap="round" stroke-linejoin="round"/>
<path d="M2.10449 15.8328L5.72175 7.39258H29.8368L33.4541 15.8328H2.10449Z" stroke="#262626" stroke-width="2.6334" stroke-linecap="round" stroke-linejoin="round"/>
<path d="M12.354 15.833V18.2445C12.354 19.5237 11.8458 20.7504 10.9413 21.6549C10.0368 22.5594 8.81009 23.0675 7.53095 23.0675H6.85573C5.57658 23.0675 4.34983 22.5594 3.44534 21.6549C2.54085 20.7504 2.03271 19.5237 2.03271 18.2445V15.833" stroke="#262626" stroke-width="2.6334" stroke-linecap="round" stroke-linejoin="round"/>
<path d="M23.2063 15.833V18.2445C23.2063 19.5237 22.6981 20.7504 21.7936 21.6549C20.8892 22.5594 19.6624 23.0675 18.3833 23.0675H17.1775C15.8984 23.0675 14.6716 22.5594 13.7671 21.6549C12.8626 20.7504 12.3545 19.5237 12.3545 18.2445V15.833" stroke="#262626" stroke-width="2.6334" stroke-linecap="round" stroke-linejoin="round"/>
<path d="M33.454 15.833V18.2445C33.454 19.5237 32.9458 20.7504 32.0413 21.6549C31.1369 22.5594 29.9101 23.0675 28.631 23.0675H28.0281C26.7489 23.0675 25.5222 22.5594 24.6177 21.6549C23.7132 20.7504 23.2051 19.5237 23.2051 18.2445V15.833" stroke="#262626" stroke-width="2.6334" stroke-linecap="round" stroke-linejoin="round"/>
<path d="M54.6232 7.04062V17.2206H58.0232V19.6406H51.6832V7.04062H54.6232ZM66.2643 14.1206C66.2643 15.934 65.9509 17.334 65.3243 18.3206C64.6976 19.3073 63.6509 19.8006 62.1843 19.8006C60.7176 19.8006 59.6709 19.3073 59.0443 18.3206C58.4176 17.334 58.1043 15.934 58.1043 14.1206V12.5606C58.1043 10.7473 58.4176 9.34729 59.0443 8.36062C59.6709 7.37396 60.7176 6.88062 62.1843 6.88062C63.6509 6.88062 64.6976 7.37396 65.3243 8.36062C65.9509 9.34729 66.2643 10.7473 66.2643 12.5606V14.1206ZM61.1443 15.5406C61.1443 16.1006 61.2109 16.554 61.3443 16.9006C61.4776 17.2473 61.7576 17.4206 62.1843 17.4206C62.6109 17.4206 62.8909 17.2473 63.0243 16.9006C63.1576 16.554 63.2243 16.1006 63.2243 15.5406V11.1406C63.2243 10.5806 63.1576 10.1273 63.0243 9.78062C62.8909 9.43396 62.6109 9.26062 62.1843 9.26062C61.7576 9.26062 61.4776 9.43396 61.3443 9.78062C61.2109 10.1273 61.1443 10.5806 61.1443 11.1406V15.5406ZM69.7571 15.5806C69.7571 16.1406 69.8171 16.5873 69.9371 16.9206C70.0571 17.254 70.3304 17.4206 70.7571 17.4206C71.1837 17.4206 71.4571 17.254 71.5771 16.9206C71.6971 16.5873 71.7571 16.1406 71.7571 15.5806V14.2206H74.6171V14.8006C74.6171 15.534 74.5504 16.2073 74.4171 16.8206C74.2971 17.434 74.0837 17.9606 73.7771 18.4006C73.4837 18.8406 73.0971 19.1873 72.6171 19.4406C72.1371 19.6806 71.5371 19.8006 70.8171 19.8006C69.3504 19.8006 68.3037 19.3206 67.6771 18.3606C67.0504 17.4006 66.7371 16.014 66.7371 14.2006V12.4806C66.7371 10.6673 67.0504 9.28062 67.6771 8.32062C68.3037 7.36062 69.3504 6.88062 70.8171 6.88062C71.5371 6.88062 72.1371 7.00729 72.6171 7.26062C73.0971 7.50062 73.4837 7.84062 73.7771 8.28062C74.0837 8.72062 74.2971 9.24729 74.4171 9.86062C74.5504 10.474 74.6171 11.1473 74.6171 11.8806V12.4606H71.7571V11.1006C71.7571 10.5406 71.6971 10.094 71.5771 9.76062C71.4571 9.42729 71.1837 9.26062 70.7571 9.26062C70.3304 9.26062 70.0571 9.42729 69.9371 9.76062C69.8171 10.094 69.7571 10.5406 69.7571 11.1006V15.5806ZM80.6858 7.04062L83.4058 19.6406H80.4858L80.0658 17.4006H77.5858L77.1458 19.6406H74.4658L77.1858 7.04062H80.6858ZM78.0058 15.1806H79.6658L78.9058 11.0206H78.8258L78.0058 15.1806ZM86.7911 7.04062V17.2206H90.1911V19.6406H83.8511V7.04062H86.7911ZM98.1252 9.76062V12.5806H100.925V14.4806H98.1252V17.2806H96.2252V14.4806H93.4252V12.5806H96.2252V9.76062H98.1252ZM106.659 15.3806V15.8806C106.659 16.3473 106.759 16.7273 106.959 17.0206C107.159 17.3006 107.452 17.4406 107.839 17.4406C108.532 17.4406 108.879 17.0806 108.879 16.3606C108.879 16.0006 108.772 15.7273 108.559 15.5406C108.346 15.354 108.046 15.154 107.659 14.9406L106.599 14.3606C106.266 14.174 105.946 13.974 105.639 13.7606C105.346 13.5473 105.079 13.294 104.839 13.0006C104.612 12.7073 104.432 12.3673 104.299 11.9806C104.166 11.5806 104.099 11.1073 104.099 10.5606C104.099 10.0006 104.186 9.49396 104.359 9.04062C104.532 8.58729 104.779 8.20062 105.099 7.88063C105.419 7.56062 105.799 7.31396 106.239 7.14062C106.679 6.96729 107.172 6.88062 107.719 6.88062C108.879 6.88062 109.772 7.20729 110.399 7.86062C111.026 8.51396 111.339 9.48729 111.339 10.7806V11.2806H108.759V10.7606C108.759 9.74729 108.412 9.24062 107.719 9.24062C107.412 9.24062 107.179 9.34062 107.019 9.54063C106.859 9.74062 106.779 10.014 106.779 10.3606C106.779 10.6806 106.859 10.9473 107.019 11.1606C107.192 11.374 107.432 11.5606 107.739 11.7206L108.919 12.3606C109.332 12.5873 109.699 12.8206 110.019 13.0606C110.352 13.2873 110.632 13.5473 110.859 13.8406C111.099 14.1206 111.279 14.4473 111.399 14.8206C111.519 15.1806 111.579 15.6073 111.579 16.1006C111.579 17.3273 111.232 18.254 110.539 18.8806C109.859 19.494 108.959 19.8006 107.839 19.8006C106.719 19.8006 105.812 19.4806 105.119 18.8406C104.426 18.2006 104.079 17.2073 104.079 15.8606V15.3806H106.659ZM117.331 13.4406H117.411L118.611 7.04062H122.311V19.6406H119.591V12.4606H119.511L118.131 19.6406H116.291L114.871 12.4606H114.791V19.6406H112.211V7.04062H115.991L117.331 13.4406ZM128.967 7.04062L131.687 19.6406H128.767L128.347 17.4006H125.867L125.427 19.6406H122.747L125.467 7.04062H128.967ZM126.287 15.1806H127.947L127.187 11.0206H127.107L126.287 15.1806ZM135.072 7.04062V17.2206H138.472V19.6406H132.132V7.04062H135.072ZM142.084 7.04062V17.2206H145.484V19.6406H139.144V7.04062H142.084Z" fill="#262626"/>
<path d="M61.4432 36.0104C61.4432 37.3937 61.0598 38.4687 60.2932 39.2354C59.5432 39.9854 58.3432 40.3604 56.6932 40.3604H51.7932V24.6104H56.6682C57.4682 24.6104 58.1515 24.7104 58.7182 24.9104C59.2848 25.1104 59.7432 25.3937 60.0932 25.7604C60.4598 26.127 60.7265 26.5687 60.8932 27.0854C61.0598 27.602 61.1432 28.1687 61.1432 28.7854C61.1432 29.7687 60.8848 30.5687 60.3682 31.1854C59.8682 31.7854 59.2265 32.152 58.4432 32.2854C59.3932 32.4687 60.1265 32.877 60.6432 33.5104C61.1765 34.127 61.4432 34.9604 61.4432 36.0104ZM55.3682 33.7854V37.4104H56.2932C56.9265 37.4104 57.3515 37.2604 57.5682 36.9604C57.8015 36.6437 57.9182 36.1937 57.9182 35.6104C57.9182 35.0604 57.8015 34.6187 57.5682 34.2854C57.3515 33.952 56.9265 33.7854 56.2932 33.7854H55.3682ZM55.3682 31.0104H56.1932C56.8265 31.0104 57.2432 30.852 57.4432 30.5354C57.6432 30.202 57.7432 29.7937 57.7432 29.3104C57.7432 28.8104 57.6432 28.3937 57.4432 28.0604C57.2432 27.7104 56.8265 27.5354 56.1932 27.5354H55.3682V31.0104ZM67.2668 40.5854C66.3001 40.5854 65.4918 40.452 64.8418 40.1854C64.1918 39.902 63.6751 39.5104 63.2918 39.0104C62.9085 38.4937 62.6335 37.877 62.4668 37.1604C62.3001 36.427 62.2168 35.6187 62.2168 34.7354V24.6104H65.9918V35.0354C65.9918 35.8354 66.0585 36.4604 66.1918 36.9104C66.3418 37.3437 66.7001 37.5604 67.2668 37.5604C67.8335 37.5604 68.1835 37.3437 68.3168 36.9104C68.4668 36.4604 68.5418 35.8354 68.5418 35.0354V24.6104H72.3168V34.7354C72.3168 35.6187 72.2335 36.427 72.0668 37.1604C71.9001 37.877 71.6251 38.4937 71.2418 39.0104C70.8585 39.5104 70.3418 39.902 69.6918 40.1854C69.0418 40.452 68.2335 40.5854 67.2668 40.5854ZM76.2502 35.0354V35.6604C76.2502 36.2437 76.3752 36.7187 76.6252 37.0854C76.8752 37.4354 77.2419 37.6104 77.7252 37.6104C78.5919 37.6104 79.0252 37.1604 79.0252 36.2604C79.0252 35.8104 78.8919 35.4687 78.6252 35.2354C78.3585 35.002 77.9835 34.752 77.5002 34.4854L76.1752 33.7604C75.7585 33.527 75.3585 33.277 74.9752 33.0104C74.6085 32.7437 74.2752 32.427 73.9752 32.0604C73.6919 31.6937 73.4669 31.2687 73.3002 30.7854C73.1335 30.2854 73.0502 29.6937 73.0502 29.0104C73.0502 28.3104 73.1585 27.677 73.3752 27.1104C73.5919 26.5437 73.9002 26.0604 74.3002 25.6604C74.7002 25.2604 75.1752 24.952 75.7252 24.7354C76.2752 24.5187 76.8919 24.4104 77.5752 24.4104C79.0252 24.4104 80.1419 24.8187 80.9252 25.6354C81.7085 26.452 82.1002 27.6687 82.1002 29.2854V29.9104H78.8752V29.2604C78.8752 27.9937 78.4419 27.3604 77.5752 27.3604C77.1919 27.3604 76.9002 27.4854 76.7002 27.7354C76.5002 27.9854 76.4002 28.327 76.4002 28.7604C76.4002 29.1604 76.5002 29.4937 76.7002 29.7604C76.9169 30.027 77.2169 30.2604 77.6002 30.4604L79.0752 31.2604C79.5919 31.5437 80.0502 31.8354 80.4502 32.1354C80.8669 32.4187 81.2169 32.7437 81.5002 33.1104C81.8002 33.4604 82.0252 33.8687 82.1752 34.3354C82.3252 34.7854 82.4002 35.3187 82.4002 35.9354C82.4002 37.4687 81.9669 38.627 81.1002 39.4104C80.2502 40.177 79.1252 40.5604 77.7252 40.5604C76.3252 40.5604 75.1919 40.1604 74.3252 39.3604C73.4585 38.5604 73.0252 37.3187 73.0252 35.6354V35.0354H76.2502ZM86.8646 24.6104V40.3604H83.1896V24.6104H86.8646ZM94.4748 24.6104H97.8748V40.3604H95.0998L91.4748 32.2354H91.3748V40.3604H87.9748V24.6104H91.3248L94.3748 31.8604H94.4748V24.6104ZM106.961 40.3604H98.9855V24.6104H106.961V27.6354H102.586V30.8604H105.836V33.8604H102.586V37.3354H106.961V40.3604ZM110.796 35.0354V35.6604C110.796 36.2437 110.921 36.7187 111.171 37.0854C111.421 37.4354 111.788 37.6104 112.271 37.6104C113.138 37.6104 113.571 37.1604 113.571 36.2604C113.571 35.8104 113.438 35.4687 113.171 35.2354C112.904 35.002 112.529 34.752 112.046 34.4854L110.721 33.7604C110.304 33.527 109.904 33.277 109.521 33.0104C109.154 32.7437 108.821 32.427 108.521 32.0604C108.238 31.6937 108.013 31.2687 107.846 30.7854C107.679 30.2854 107.596 29.6937 107.596 29.0104C107.596 28.3104 107.704 27.677 107.921 27.1104C108.138 26.5437 108.446 26.0604 108.846 25.6604C109.246 25.2604 109.721 24.952 110.271 24.7354C110.821 24.5187 111.438 24.4104 112.121 24.4104C113.571 24.4104 114.688 24.8187 115.471 25.6354C116.254 26.452 116.646 27.6687 116.646 29.2854V29.9104H113.421V29.2604C113.421 27.9937 112.988 27.3604 112.121 27.3604C111.738 27.3604 111.446 27.4854 111.246 27.7354C111.046 27.9854 110.946 28.327 110.946 28.7604C110.946 29.1604 111.046 29.4937 111.246 29.7604C111.463 30.027 111.763 30.2604 112.146 30.4604L113.621 31.2604C114.138 31.5437 114.596 31.8354 114.996 32.1354C115.413 32.4187 115.763 32.7437 116.046 33.1104C116.346 33.4604 116.571 33.8687 116.721 34.3354C116.871 34.7854 116.946 35.3187 116.946 35.9354C116.946 37.4687 116.513 38.627 115.646 39.4104C114.796 40.177 113.671 40.5604 112.271 40.5604C110.871 40.5604 109.738 40.1604 108.871 39.3604C108.004 38.5604 107.571 37.3187 107.571 35.6354V35.0354H110.796ZM120.611 35.0354V35.6604C120.611 36.2437 120.736 36.7187 120.986 37.0854C121.236 37.4354 121.602 37.6104 122.086 37.6104C122.952 37.6104 123.386 37.1604 123.386 36.2604C123.386 35.8104 123.252 35.4687 122.986 35.2354C122.719 35.002 122.344 34.752 121.861 34.4854L120.536 33.7604C120.119 33.527 119.719 33.277 119.336 33.0104C118.969 32.7437 118.636 32.427 118.336 32.0604C118.052 31.6937 117.827 31.2687 117.661 30.7854C117.494 30.2854 117.411 29.6937 117.411 29.0104C117.411 28.3104 117.519 27.677 117.736 27.1104C117.952 26.5437 118.261 26.0604 118.661 25.6604C119.061 25.2604 119.536 24.952 120.086 24.7354C120.636 24.5187 121.252 24.4104 121.936 24.4104C123.386 24.4104 124.502 24.8187 125.286 25.6354C126.069 26.452 126.461 27.6687 126.461 29.2854V29.9104H123.236V29.2604C123.236 27.9937 122.802 27.3604 121.936 27.3604C121.552 27.3604 121.261 27.4854 121.061 27.7354C120.861 27.9854 120.761 28.327 120.761 28.7604C120.761 29.1604 120.861 29.4937 121.061 29.7604C121.277 30.027 121.577 30.2604 121.961 30.4604L123.436 31.2604C123.952 31.5437 124.411 31.8354 124.811 32.1354C125.227 32.4187 125.577 32.7437 125.861 33.1104C126.161 33.4604 126.386 33.8687 126.536 34.3354C126.686 34.7854 126.761 35.3187 126.761 35.9354C126.761 37.4687 126.327 38.627 125.461 39.4104C124.611 40.177 123.486 40.5604 122.086 40.5604C120.686 40.5604 119.552 40.1604 118.686 39.3604C117.819 38.5604 117.386 37.3187 117.386 35.6354V35.0354H120.611ZM135.525 40.3604H127.55V24.6104H135.525V27.6354H131.15V30.8604H134.4V33.8604H131.15V37.3354H135.525V40.3604ZM139.361 35.0354V35.6604C139.361 36.2437 139.486 36.7187 139.736 37.0854C139.986 37.4354 140.352 37.6104 140.836 37.6104C141.702 37.6104 142.136 37.1604 142.136 36.2604C142.136 35.8104 142.002 35.4687 141.736 35.2354C141.469 35.002 141.094 34.752 140.611 34.4854L139.286 33.7604C138.869 33.527 138.469 33.277 138.086 33.0104C137.719 32.7437 137.386 32.427 137.086 32.0604C136.802 31.6937 136.577 31.2687 136.411 30.7854C136.244 30.2854 136.161 29.6937 136.161 29.0104C136.161 28.3104 136.269 27.677 136.486 27.1104C136.702 26.5437 137.011 26.0604 137.411 25.6604C137.811 25.2604 138.286 24.952 138.836 24.7354C139.386 24.5187 140.002 24.4104 140.686 24.4104C142.136 24.4104 143.252 24.8187 144.036 25.6354C144.819 26.452 145.211 27.6687 145.211 29.2854V29.9104H141.986V29.2604C141.986 27.9937 141.552 27.3604 140.686 27.3604C140.302 27.3604 140.011 27.4854 139.811 27.7354C139.611 27.9854 139.511 28.327 139.511 28.7604C139.511 29.1604 139.611 29.4937 139.811 29.7604C140.027 30.027 140.327 30.2604 140.711 30.4604L142.186 31.2604C142.702 31.5437 143.161 31.8354 143.561 32.1354C143.977 32.4187 144.327 32.7437 144.611 33.1104C144.911 33.4604 145.136 33.8687 145.286 34.3354C145.436 34.7854 145.511 35.3187 145.511 35.9354C145.511 37.4687 145.077 38.627 144.211 39.4104C143.361 40.177 142.236 40.5604 140.836 40.5604C139.436 40.5604 138.302 40.1604 137.436 39.3604C136.569 38.5604 136.136 37.3187 136.136 35.6354V35.0354H139.361Z" fill="#262626"/>
</svg>

