<svg width="49" height="48" viewBox="0 0 49 48" fill="none" xmlns="http://www.w3.org/2000/svg">
<g clip-path="url(#clip0_7520_305809)">
<path d="M0.486328 0H48.4863V48H0.486328V0Z" fill="white"/>
<path d="M1.61444 1.12777H30.2944C32.6032 1.12777 34.912 1.12297 37.216 1.13257C36.5776 1.78057 35.9248 2.42377 35.2816 3.07177C35.536 3.34057 35.8048 3.59017 36.0592 3.85417C36.6448 3.45097 37.3072 3.12937 38.0272 3.07657C38.6752 3.00937 39.328 3.17737 39.9232 3.43657C40.1488 3.53257 40.36 3.68617 40.6144 3.71017C40.864 3.69577 41.0512 3.47497 41.1376 3.25417C41.2096 3.10057 41.1424 2.91817 41.0224 2.80777C40.4656 2.24617 39.904 1.69417 39.352 1.13257C42.0112 1.11817 44.6704 1.13257 47.3248 1.12777C47.3248 3.71977 47.3296 6.31657 47.3248 8.91337C46.7776 8.37577 46.2448 7.82857 45.7024 7.29097C45.5584 7.14217 45.3232 7.06537 45.1264 7.15657C44.9893 7.21626 44.8784 7.32371 44.8144 7.45897C44.7424 7.73737 44.8672 8.01097 44.9776 8.26057C45.3214 8.97325 45.4546 9.76921 45.3616 10.555C45.2913 11.0927 45.1046 11.6087 44.8144 12.067C44.7376 12.1774 44.6656 12.2926 44.5984 12.4078C44.8768 12.6478 45.112 12.9358 45.3952 13.171C46.0288 12.5182 46.6816 11.8798 47.3248 11.2318C47.3248 15.5662 47.3248 19.9006 47.3248 24.235C47.2 24.2782 47.0608 24.3646 46.9312 24.3022C46.7584 24.1918 46.6288 24.0286 46.4848 23.8894C44.9296 22.3438 43.3888 20.7838 41.8288 19.243C41.2096 19.8622 40.6 20.4862 39.9712 21.091C40.3024 21.4654 40.672 21.7966 41.0176 22.1566C42.2656 23.4046 43.5152 24.6526 44.7664 25.9006C44.872 26.011 44.9968 26.107 45.0544 26.251C45.0736 26.4094 44.9632 26.5438 44.92 26.6878C44.9069 26.7289 44.9032 26.7725 44.9092 26.8153C44.9153 26.8581 44.9308 26.899 44.9548 26.935C44.9788 26.9709 45.0105 27.001 45.0477 27.0231C45.0849 27.0451 45.1266 27.0584 45.1696 27.0622C45.328 27.091 45.4624 26.9854 45.5632 26.8798C46.1488 26.2894 46.7392 25.7038 47.3248 25.1182V46.8382H25.6C26.1568 46.2814 26.7136 45.7294 27.2704 45.1726C25.3744 43.2814 23.4816 41.3886 21.592 39.4942C20.9728 40.0894 20.3776 40.7086 19.7632 41.3086C19.6336 41.443 19.4896 41.5726 19.4272 41.755C19.3984 41.9326 19.5616 42.1006 19.7344 42.1102C19.888 42.091 20.0176 41.9902 20.1712 41.9566C20.3056 41.947 20.4112 42.0526 20.5072 42.139C21.6304 43.2718 22.7584 44.395 23.8864 45.523C24.1696 45.8206 24.4768 46.0894 24.7408 46.3966C24.8608 46.531 24.7792 46.7038 24.712 46.8382H11.7184L14.7856 43.771C14.9776 43.5886 15.1744 43.3774 15.2032 43.099C15.2464 42.7774 14.92 42.4558 14.5984 42.523C14.3296 42.5758 14.1088 42.787 13.8304 42.787C13.6528 42.7726 13.5184 42.643 13.3984 42.5278C10.9552 40.0894 8.51524 37.6494 6.07844 35.2078C5.91524 35.0446 5.71844 34.8862 5.66084 34.651C5.65124 34.3726 5.84804 34.147 5.92004 33.8926C6.01124 33.571 5.70884 33.2206 5.38244 33.2446C5.15684 33.259 4.95524 33.3886 4.80164 33.547C3.74564 34.6174 2.67044 35.6734 1.61444 36.7438C1.60964 24.8718 1.60964 12.9998 1.61444 1.12777Z" fill="#262626"/>
<path d="M34.5857 3.76349C34.6289 3.71549 34.7057 3.67229 34.7489 3.74429C38.0945 7.08509 41.4385 10.4291 44.7809 13.7763C43.6097 14.9475 42.4369 16.1219 41.2625 17.2995C41.1089 17.4435 40.9217 17.5635 40.7105 17.5779C40.4177 17.6019 40.1249 17.3379 40.1489 17.0403C40.1585 16.7475 40.4081 16.5219 40.4129 16.2243C40.4225 16.0371 40.2785 15.8979 40.1585 15.7683C37.6769 13.2915 35.1969 10.8115 32.7185 8.32829C32.5793 8.19389 32.4257 8.02589 32.2145 8.04029C31.9025 8.04509 31.6673 8.33309 31.3505 8.29949C31.1681 8.30429 31.0193 8.16029 30.9281 8.01149C30.8033 7.75229 30.9185 7.44029 31.1057 7.24829C32.2673 6.08669 33.4273 4.92509 34.5857 3.76349Z" fill="white"/>
<path d="M39.4048 4.73719C39.5008 4.55959 39.6832 4.39639 39.8992 4.42519C40.1392 4.44439 40.312 4.64119 40.4704 4.79959C41.4304 5.76439 42.3904 6.72599 43.3504 7.68439C43.5328 7.86199 43.7488 8.03479 43.792 8.29879C43.816 8.57239 43.5664 8.81719 43.3024 8.84599C43.0816 8.85079 42.88 8.73079 42.688 8.62519C42.28 8.38519 41.8192 8.19319 41.3344 8.21719C41.0848 8.21239 40.8448 8.31319 40.6192 8.41399C40.3552 8.13079 40.0528 7.87639 39.8032 7.58359C39.88 7.36759 39.9808 7.16119 39.9952 6.93079C40.0288 6.40759 39.8176 5.90839 39.5536 5.47159C39.4192 5.25559 39.3136 4.98679 39.4048 4.73719Z" fill="white"/>
<path d="M18.251 7.28191C18.7694 6.73471 19.3166 6.22111 19.835 5.67871C20.3294 6.15871 20.8094 6.64351 21.2942 7.12831C21.4526 7.28191 21.3086 7.54111 21.131 7.60351C20.9822 7.62271 20.8526 7.52191 20.7182 7.47391C20.1998 7.21951 19.5566 7.19071 19.0382 7.46911C18.9038 7.52671 18.7934 7.64191 18.6494 7.66591C18.5054 7.55071 18.3854 7.40671 18.251 7.28191Z" fill="white"/>
<path d="M17.9247 7.58887C18.6303 8.27047 19.3119 8.97607 20.0079 9.66247C21.0975 10.7473 22.1823 11.8417 23.2767 12.9265C22.6527 13.5601 22.0239 14.1841 21.3951 14.8081C21.2655 14.9521 21.0063 15.0145 20.8815 14.8369C20.7279 14.6737 20.8959 14.4721 20.9439 14.3041C21.0015 14.1793 20.9007 14.0689 20.8191 13.9825C19.5615 12.7297 18.3071 11.4753 17.0559 10.2193C16.9407 10.1137 16.8447 9.98407 16.7055 9.91207C16.5135 9.86887 16.3647 10.0417 16.1775 10.0513C16.0335 10.0369 15.8991 9.89287 15.9183 9.74407C15.9345 9.62932 15.9906 9.52394 16.0767 9.44647C16.6911 8.82727 17.3151 8.21767 17.9247 7.58887Z" fill="white"/>
<path d="M20.4301 8.35637C20.4163 8.31765 20.411 8.27639 20.4147 8.23545C20.4184 8.1945 20.431 8.15485 20.4515 8.11924C20.4721 8.08363 20.5001 8.05291 20.5337 8.02921C20.5673 8.00551 20.6056 7.98939 20.6461 7.98197C20.7709 7.96277 20.8717 8.05877 20.9581 8.14037C21.4765 8.65877 21.9949 9.18197 22.5181 9.69557C22.6093 9.79637 22.7389 9.88757 22.7485 10.0364C22.7509 10.0736 22.7453 10.1108 22.7322 10.1457C22.719 10.1805 22.6986 10.2122 22.6723 10.2386C22.6459 10.2649 22.6143 10.2853 22.5794 10.2985C22.5445 10.3116 22.5073 10.3172 22.4701 10.3148C22.2685 10.3148 22.1149 10.1564 21.9325 10.0892C21.7982 10.0244 21.6508 9.99149 21.5018 9.99315C21.3527 9.99482 21.206 10.031 21.0733 10.0988C20.9341 9.95957 20.7949 9.81557 20.6509 9.68597C20.7133 9.47477 20.7709 9.24917 20.7181 9.02837C20.6797 8.77877 20.5069 8.58677 20.4301 8.35637Z" fill="white"/>
<path d="M29.6221 8.73107C29.7487 8.59788 29.9158 8.51015 30.0973 8.48147C30.4189 8.43347 30.7549 8.74547 30.6925 9.07187C30.6493 9.35987 30.4093 9.59027 30.4285 9.89267C30.4765 10.1039 30.6493 10.2479 30.7885 10.3967C33.2413 12.8447 35.6909 15.2927 38.1373 17.7407C38.2717 17.8607 38.4061 18.0191 38.5981 18.0191C38.8861 18.0191 39.1069 17.8031 39.3805 17.7551C39.6973 17.7023 40.0093 18.0143 39.9709 18.3311C39.9517 18.5471 39.8221 18.7343 39.6733 18.8831C38.4397 20.1119 37.2109 21.3503 35.9773 22.5791C35.8189 22.7375 35.6173 22.8815 35.3821 22.8815C35.1229 22.8959 34.8733 22.6751 34.8397 22.4207C34.8061 22.0847 35.1181 21.8351 35.1085 21.4991C35.0941 21.3407 34.9837 21.2111 34.8781 21.0959C32.7229 18.9455 30.5693 16.7935 28.4173 14.6399C30.1981 17.9471 31.9933 21.2447 33.7741 24.5519C33.8035 24.6027 33.8292 24.6557 33.8509 24.7103C33.7213 24.8303 33.5965 24.9599 33.4717 25.0895C29.9053 23.3327 26.3437 21.5567 22.7821 19.7951C22.2205 19.5167 21.6637 19.1903 21.0301 19.1135C20.8189 19.0847 20.6749 19.2575 20.5213 19.3679C20.3629 19.4927 20.1517 19.5695 19.9549 19.5071C19.7197 19.4015 19.5565 19.1231 19.6285 18.8687C19.6765 18.6959 19.7965 18.5519 19.9213 18.4271C21.0733 17.2799 22.2205 16.1279 23.3725 14.9855C25.1677 15.8639 26.9677 16.7231 28.7677 17.6015C28.8297 17.6439 28.8876 17.6921 28.9405 17.7455C28.9693 17.7119 28.9933 17.6783 29.0221 17.6447L28.9549 17.6543C28.0093 15.8543 27.0157 14.0783 26.0701 12.2783C27.2605 11.0975 28.4365 9.91187 29.6221 8.73107Z" fill="white"/>
<path d="M23.3201 9.5428C23.4065 9.3844 23.6513 9.3652 23.7665 9.4996C24.2513 9.9892 24.7457 10.4788 25.2353 10.9684C24.6881 11.5204 24.1409 12.0676 23.5841 12.6148C23.4593 12.4708 23.2913 12.3556 23.1953 12.1876C23.3537 11.9188 23.5217 11.6452 23.5649 11.3284C23.6413 10.8869 23.5793 10.4325 23.3873 10.0276C23.3345 9.874 23.2193 9.6964 23.3201 9.5428Z" fill="white"/>
<path d="M15.2606 10.2626C15.3566 10.1618 15.4622 10.0562 15.6014 10.0226C15.7406 9.98897 15.9134 10.0802 15.9326 10.2338C15.9662 10.4018 15.8414 10.541 15.8078 10.7042C15.7886 10.8338 15.8942 10.925 15.971 11.0114C17.2526 12.2914 18.5326 13.5714 19.811 14.8514C19.8974 14.933 19.9886 15.0338 20.1134 15.0626C20.267 15.0482 20.3966 14.9474 20.5454 14.9138C20.7278 14.8946 20.8958 15.0914 20.8382 15.2642C20.8142 15.3938 20.7134 15.4898 20.627 15.581C20.003 16.205 19.379 16.8274 18.755 17.4482C18.6446 17.5586 18.5006 17.6738 18.3374 17.6354C18.2919 17.6172 18.2506 17.5899 18.2159 17.5553C18.1813 17.5206 18.154 17.4793 18.1358 17.4338C18.0878 17.2226 18.3134 17.0498 18.2606 16.8386C18.2094 16.7619 18.1498 16.691 18.083 16.6274C17.4974 16.0466 16.9166 15.4562 16.3262 14.8754C16.1198 15.0866 15.9134 15.293 15.7022 15.4994C15.5582 15.3602 15.4142 15.221 15.2798 15.0722C15.491 14.8658 15.6974 14.6546 15.9086 14.4482C15.3902 13.9394 14.8766 13.421 14.363 12.9074C14.2526 12.8018 14.1566 12.6866 14.027 12.6098C13.7918 12.533 13.5662 12.8642 13.3406 12.6818C13.1582 12.5522 13.2158 12.293 13.3646 12.1586C13.9934 11.5202 14.6318 10.8962 15.2606 10.2626Z" fill="white"/>
<path d="M12.803 12.7534C12.839 12.7315 12.8792 12.7176 12.921 12.7123C12.9628 12.7071 13.0052 12.7107 13.0455 12.7229C13.0858 12.7351 13.123 12.7557 13.1549 12.7833C13.1867 12.8108 13.2123 12.8448 13.2302 12.883C13.2974 13.0798 13.1198 13.2478 13.115 13.4398C13.1102 13.5406 13.1918 13.6126 13.2542 13.6798C14.5838 15.0094 15.9118 16.3374 17.2382 17.6638C17.4782 17.923 17.7854 17.4766 18.0446 17.6686C18.2126 17.803 18.155 18.067 18.011 18.1918C17.387 18.8206 16.7582 19.4398 16.139 20.0686C16.0382 20.1646 15.9374 20.2798 15.7982 20.323C15.6446 20.3662 15.4574 20.2702 15.4382 20.107C15.4094 19.915 15.5822 19.7662 15.5726 19.579C15.5447 19.4991 15.4987 19.4268 15.4382 19.3678C14.1806 18.115 12.9246 16.859 11.6702 15.5998C11.5502 15.4894 11.4494 15.3502 11.291 15.2926C11.1182 15.283 10.9742 15.4126 10.8062 15.4318C10.7356 15.4307 10.668 15.4029 10.6172 15.3539C10.5664 15.3048 10.5361 15.2383 10.5326 15.1678C10.5182 15.019 10.6238 14.899 10.7246 14.7982C11.3486 14.1742 11.971 13.5502 12.5918 12.9262C12.6555 12.8609 12.7264 12.8029 12.803 12.7534Z" fill="white"/>
<path d="M9.33272 16.1855C9.62072 15.9071 9.89912 15.6191 10.1871 15.3359C10.6911 15.8255 11.1855 16.3343 11.6895 16.8287C11.7759 16.9247 11.8815 17.0111 11.9295 17.1359C11.9871 17.3711 11.7183 17.6303 11.4831 17.5247C11.2479 17.4191 11.0607 17.2319 10.8351 17.1071C10.4559 16.8719 10.0143 16.7231 9.56312 16.7759C9.43352 16.6415 9.28952 16.5167 9.17432 16.3727C9.21643 16.302 9.26995 16.2388 9.33272 16.1855Z" fill="white"/>
<path d="M7.2397 18.2782C7.7773 17.7502 8.3053 17.2174 8.8381 16.6846C9.8461 17.6974 10.8573 18.7086 11.8717 19.7182C12.4285 20.2702 12.9709 20.8318 13.5325 21.3742C13.6909 21.5518 13.9021 21.403 14.0749 21.3406C14.2477 21.2638 14.4493 21.4174 14.4445 21.5998C14.4445 21.7246 14.3725 21.8302 14.2909 21.9166C13.6381 22.5646 12.9949 23.2126 12.3469 23.8606C12.2557 23.9518 12.1405 24.043 12.0061 24.0334C11.9695 24.0351 11.9329 24.0293 11.8987 24.0162C11.8644 24.0031 11.8333 23.9831 11.8071 23.9574C11.781 23.9317 11.7604 23.9009 11.7468 23.8669C11.7331 23.8329 11.7266 23.7964 11.7277 23.7598C11.7373 23.6062 11.8573 23.4814 11.8573 23.3278C11.8669 23.1982 11.7565 23.1166 11.6797 23.0302C10.1485 21.5086 8.6317 19.9726 7.0957 18.4558C7.1437 18.3934 7.1869 18.3358 7.2397 18.2782Z" fill="white"/>
<path d="M43.264 17.8076C43.8592 18.3932 44.4496 18.9836 45.0352 19.5788C45.2224 19.7564 45.088 20.1116 44.8384 20.15C44.608 20.1836 44.4304 20.0012 44.2528 19.8812C43.7776 19.5548 43.216 19.2476 42.6208 19.3484C42.4604 19.2081 42.3126 19.0539 42.1792 18.8876C42.5488 18.5324 42.904 18.1676 43.264 17.8076Z" fill="white"/>
<path d="M6.75051 18.7822C6.92811 18.8494 7.03851 19.051 7.18251 19.1758C7.10571 19.7326 7.36971 20.2558 7.68171 20.6926C7.77291 20.8318 7.88331 20.9614 7.94091 21.1198C8.00331 21.331 7.79691 21.5518 7.58571 21.5278C7.46571 21.5278 7.38411 21.427 7.30731 21.355C6.78411 20.827 6.25611 20.3086 5.73291 19.7806C6.07851 19.4542 6.40011 19.1038 6.75051 18.7822Z" fill="white"/>
<path d="M17.4304 21.4896C18.3856 21.1824 19.4224 21.1488 20.4064 21.3504C22.0768 21.7056 23.5552 22.6848 24.736 23.8992C25.8928 25.0704 26.8144 26.5392 27.1264 28.176C27.3014 29.0786 27.2586 30.01 27.0016 30.8928C26.7472 31.7616 26.2864 32.5632 25.7056 33.2544C25.456 32.9904 25.1824 32.7456 24.9424 32.4768C24.9424 32.3472 25.024 32.2368 25.048 32.112C25.11 31.9009 25.1127 31.677 25.056 31.4645C24.9993 31.252 24.8853 31.0592 24.7264 30.9072C22.3552 28.5312 19.9808 26.1552 17.6032 23.7792C17.3872 23.5584 17.1136 23.3808 16.8016 23.3568C16.5472 23.3232 16.2976 23.4144 16.0576 23.5008C15.9616 23.5536 15.8992 23.4336 15.8368 23.3856C15.6448 23.1792 15.4336 22.992 15.2416 22.7808C15.2416 22.7664 15.2368 22.7376 15.2368 22.7232C15.8791 22.1707 16.6247 21.7514 17.4304 21.4896Z" fill="white"/>
<path d="M23.9009 21.2256C24.1178 21.3048 24.328 21.4011 24.5297 21.5136C25.3025 21.888 26.0705 22.2768 26.8481 22.656C26.9165 22.6937 26.9795 22.7405 27.0353 22.7952C27.6881 23.4576 28.3457 24.1104 29.0033 24.768C29.3613 25.1472 29.8013 25.4395 30.2897 25.6224C30.6328 25.7503 31.0099 25.7537 31.3553 25.632C31.5281 25.5744 31.7153 25.5072 31.8977 25.5648C31.989 25.6024 32.0682 25.6644 32.1266 25.7439C32.185 25.8235 32.2204 25.9176 32.2289 26.016C32.2145 26.28 32.0465 26.5008 31.8689 26.6832C31.2833 27.2784 30.6881 27.8688 30.0929 28.4544C29.9345 28.5984 29.7521 28.7472 29.5313 28.7712C29.2145 28.8192 28.9025 28.4832 28.9985 28.176C29.0945 27.8688 29.2145 27.5472 29.1617 27.2208C29.0849 26.6736 28.7729 26.1888 28.4273 25.7712C27.1265 24.4656 25.8209 23.1648 24.5153 21.8544C24.3137 21.6432 24.0929 21.4512 23.9009 21.2256Z" fill="white"/>
<path d="M38.5406 22.5311C38.9006 22.1711 39.2654 21.8111 39.6254 21.4463C39.7838 21.5759 39.923 21.7295 40.0718 21.8735C40.0094 22.3535 40.1726 22.8287 40.4222 23.2319C40.5518 23.4623 40.739 23.6591 40.8542 23.8991C40.9166 24.0143 40.8734 24.1439 40.8302 24.2591C41.436 24.6682 41.9642 25.1818 42.3902 25.7759C42.875 26.4623 43.2158 27.2783 43.1966 28.1327C43.2014 28.9439 42.851 29.7215 42.3374 30.3359C42.1982 30.1919 42.035 30.0623 41.915 29.8991C41.939 29.7215 42.0254 29.5487 41.9822 29.3711C41.9342 29.1407 41.7566 28.9775 41.5982 28.8191C40.331 27.5567 39.067 26.2943 37.8062 25.0319C37.6814 24.9071 37.5326 24.7919 37.355 24.7775C37.187 24.7583 37.019 24.8063 36.8654 24.8591C36.7166 24.7199 36.5678 24.5711 36.4238 24.4271C37.0622 23.8799 37.8926 23.5295 38.7422 23.5727C39.0686 23.5631 39.3854 23.6399 39.7022 23.7119C39.3182 23.3135 38.9102 22.9391 38.5406 22.5311Z" fill="white"/>
<path d="M13.4225 25.3492C13.6865 24.6148 14.1041 23.9428 14.5985 23.3428C14.8433 23.5924 15.1025 23.8324 15.3425 24.0868C15.3905 24.2404 15.2657 24.3844 15.2417 24.538C15.1169 24.9508 15.2801 25.402 15.5825 25.6996C17.9153 28.0372 20.2513 30.3732 22.5905 32.7076C22.8161 32.9524 23.0897 33.1828 23.4353 33.2356C23.7425 33.2836 24.0449 33.178 24.3281 33.0724C24.5873 33.3316 24.8465 33.586 25.1057 33.8452C24.5354 34.3387 23.8843 34.73 23.1809 35.002C22.1249 35.41 20.9441 35.4772 19.8353 35.2324C18.1505 34.8628 16.6673 33.85 15.4817 32.6164C14.3873 31.4692 13.5041 30.0628 13.1921 28.4932C12.9745 27.4442 13.0543 26.3553 13.4225 25.3492Z" fill="white"/>
<path d="M35.2385 26.7365C35.2961 26.0069 35.6177 25.3109 36.0977 24.7637C36.2369 24.9077 36.3857 25.0517 36.5297 25.1957C36.4769 25.3685 36.3953 25.5509 36.4433 25.7333C36.4721 25.8965 36.5825 26.0261 36.6977 26.1413C37.9649 27.4037 39.2225 28.6709 40.4897 29.9333C40.6385 30.0773 40.7825 30.2501 40.9937 30.3077C41.1857 30.3605 41.3825 30.2933 41.5697 30.2357C41.7137 30.3797 41.8625 30.5237 42.0017 30.6773C41.3969 31.1765 40.6433 31.5269 39.8465 31.5269C39.0737 31.5605 38.3153 31.2869 37.6721 30.8837C37.2052 30.589 36.7847 30.2266 36.4241 29.8085C36.5969 30.3778 36.5489 30.9913 36.2897 31.5269C36.0305 32.0453 35.6273 32.4677 35.2289 32.8757C35.0849 32.7317 34.9361 32.5829 34.7873 32.4389C34.9121 32.2373 34.9937 31.9973 34.9169 31.7621C34.8257 31.5221 34.6289 31.3493 34.4561 31.1669C34.1009 30.8069 33.7409 30.4469 33.3809 30.0869C33.1697 29.8901 32.9441 29.6645 32.6417 29.6453C32.4641 29.6261 32.3057 29.7173 32.1569 29.8037C32.0081 29.6597 31.8641 29.5109 31.7153 29.3669C32.2913 28.7861 32.9489 28.1861 33.7937 28.0805C34.4849 27.9653 35.1809 28.2629 35.6705 28.7381C35.3633 28.1237 35.1713 27.4325 35.2385 26.7365Z" fill="white"/>
<path d="M9.9374 28.4113C10.0796 28.2658 10.2679 28.1741 10.4702 28.1521C10.8014 28.1329 11.1038 28.4785 11.0126 28.8001C10.9406 29.0449 10.763 29.2609 10.7534 29.5249C10.7726 29.7553 10.9646 29.9185 11.1182 30.0721L18.5102 37.4641C18.6254 37.5745 18.755 37.6849 18.9182 37.6993C19.1966 37.6993 19.4126 37.4929 19.6766 37.4305C19.9934 37.3681 20.3102 37.6561 20.2958 37.9729C20.2862 38.1889 20.1662 38.3857 20.0174 38.5393L16.2974 42.2593C16.1342 42.4177 15.9326 42.5569 15.6974 42.5569C15.4094 42.5665 15.1406 42.2929 15.1646 42.0001C15.1886 41.7073 15.4334 41.4817 15.4382 41.1841C15.4286 41.0065 15.2894 40.8721 15.179 40.7473C14.075 39.6385 12.9662 38.5393 11.867 37.4353C11.8238 37.4017 11.7662 37.3057 11.7038 37.3729C11.3198 37.7425 10.9502 38.1313 10.5662 38.5009C10.307 38.2417 10.0478 37.9825 9.7886 37.7185C10.1582 37.3297 10.5422 36.9505 10.931 36.5761C10.931 36.5569 10.9358 36.5137 10.9358 36.4945C9.8942 35.4721 8.8718 34.4353 7.835 33.4033C7.6766 33.2545 7.5278 33.0673 7.307 33.0145C7.0046 32.9953 6.7694 33.2305 6.4862 33.2833C6.1214 33.3457 5.7902 32.9329 5.915 32.5921C5.9774 32.3521 6.1694 32.1793 6.3374 32.0161C7.5374 30.8113 8.7422 29.6161 9.9374 28.4113Z" fill="white"/>
<path d="M31.3697 29.707C31.9457 30.2446 32.4881 30.8206 33.0545 31.3726C34.1297 32.4526 35.2081 33.5326 36.2897 34.6126C36.3665 34.675 36.4385 34.7614 36.5393 34.7806C36.7457 34.7998 36.9089 34.5982 37.1153 34.6366C37.2401 34.6798 37.3553 34.7998 37.3409 34.939C37.3409 35.1262 37.1825 35.2558 37.0673 35.3806C36.3905 36.0478 35.7233 36.7246 35.0465 37.3918C34.8977 37.555 34.6193 37.4734 34.5281 37.291C34.3937 37.0654 34.7585 36.8254 34.5665 36.619C33.1745 35.2318 31.7841 33.8414 30.3953 32.4478C30.2945 32.3566 30.2081 32.2414 30.0881 32.179C29.8817 32.1214 29.7185 32.2942 29.5265 32.3182C29.3777 32.3038 29.2337 32.1742 29.2433 32.0206C29.2289 31.8526 29.3537 31.723 29.4593 31.6126C30.0977 30.979 30.7361 30.3406 31.3697 29.707Z" fill="white"/>
<path d="M27.0879 33.9844C27.6591 33.4228 28.2159 32.842 28.7967 32.29C29.3103 32.8084 29.8287 33.322 30.3423 33.8404C30.5151 34.0084 30.3327 34.2628 30.1551 34.3396C30.0303 34.354 29.9151 34.2772 29.8047 34.2292C29.3631 34.0132 28.8543 33.9076 28.3695 34.0324C28.0623 34.0948 27.7935 34.2676 27.5247 34.426C27.3807 34.2772 27.2367 34.1284 27.0879 33.9844Z" fill="white"/>
<path d="M24.7549 36.322C25.4173 35.65 26.0893 34.9924 26.7517 34.3252C27.8269 35.386 28.8877 36.466 29.9677 37.5268C30.7933 38.3476 31.6093 39.178 32.4397 39.994C31.7965 40.6564 31.1341 41.2996 30.4909 41.9572C30.3997 42.058 30.2701 42.1156 30.1501 42.1684C30.0301 42.1252 29.8813 42.082 29.8429 41.9476C29.7709 41.722 30.0061 41.5444 29.9773 41.3236C29.8813 41.1364 29.7133 41.002 29.5693 40.8532L26.0701 37.354C25.8637 37.162 25.6909 36.9316 25.4461 36.7876C25.2013 36.7396 24.9805 37.0516 24.7453 36.8836C24.5437 36.754 24.6013 36.466 24.7549 36.322Z" fill="white"/>
<path d="M29.411 35.1313C29.3342 34.9345 29.5166 34.7041 29.723 34.7377C29.8141 34.7661 29.8955 34.8193 29.9582 34.8913C30.4622 35.4001 30.971 35.8993 31.4702 36.4081C31.6334 36.5761 31.8446 36.7201 31.9118 36.9601C31.8494 37.0657 31.7822 37.2097 31.6382 37.2241C31.403 37.2481 31.2302 37.0609 31.019 36.9841C30.8749 36.9126 30.7161 36.8758 30.5552 36.8767C30.3944 36.8775 30.2359 36.9159 30.0926 36.9889C29.939 36.8353 29.7902 36.6817 29.6366 36.5329C29.7422 36.3073 29.7902 36.0481 29.7134 35.8081C29.6558 35.5633 29.4926 35.3617 29.411 35.1313Z" fill="white"/>
<path d="M32.4976 36.3843C32.5984 36.2307 32.8432 36.2067 32.9632 36.3507C33.4816 36.8739 34.0096 37.3923 34.5232 37.9203C33.9328 38.4963 33.3664 39.1011 32.7616 39.6627C32.6224 39.5139 32.4736 39.3699 32.3296 39.2211C32.8432 38.5875 32.9152 37.6707 32.5696 36.9411C32.5072 36.7683 32.3728 36.5571 32.4976 36.3843Z" fill="white"/>
<path d="M1.61444 38.2947C1.80644 38.2179 1.98884 38.0979 2.20004 38.1027C2.45444 38.1507 2.61284 38.3763 2.79044 38.5443C5.20484 40.9491 7.61444 43.3555 10.0192 45.7635C10.1536 45.9123 10.3264 46.0611 10.3504 46.2723C10.3408 46.4787 10.2304 46.6611 10.144 46.8435C7.29764 46.8387 4.45444 46.8371 1.61444 46.8387C1.61444 43.9923 1.60964 41.1411 1.61444 38.2947Z" fill="#262626"/>
<path d="M23.9585 38.1647C24.8129 38.0927 25.6625 38.3999 26.3681 38.8655C26.9201 39.2351 27.4337 39.6623 27.8273 40.1951C28.2977 40.8239 28.5857 41.5919 28.5905 42.3839C28.5974 42.8376 28.514 43.2882 28.3451 43.7093C28.1761 44.1304 27.9251 44.5137 27.6065 44.8367C27.4577 44.6927 27.3137 44.5487 27.1697 44.3999C27.2561 44.2367 27.3569 44.0639 27.3281 43.8719C27.2801 43.5839 27.0833 43.3487 26.8865 43.1519L23.6465 39.9119C23.4257 39.6959 23.1761 39.4607 22.8497 39.4367C22.6721 39.4175 22.5137 39.5087 22.3649 39.5951C22.2257 39.4415 22.0337 39.3263 21.9473 39.1343C22.4753 38.5919 23.1953 38.2127 23.9585 38.1647Z" fill="white"/>
<path d="M43.3584 44.127C43.3584 43.2659 44.0573 42.6309 44.8829 42.6309C45.6989 42.6309 46.3992 43.2659 46.3992 44.127C46.3992 44.9968 45.7003 45.6318 44.8829 45.6318C44.0573 45.6318 43.3584 44.9968 43.3584 44.127ZM44.8829 45.3817C45.5616 45.3817 46.0973 44.8499 46.0973 44.127C46.0973 43.4166 45.5616 42.879 44.8829 42.879C44.196 42.879 43.6603 43.4147 43.6603 44.127C43.6603 44.8499 44.196 45.3817 44.8829 45.3817ZM44.5651 44.9977H44.303V43.2659H44.9621C45.371 43.2659 45.5736 43.4166 45.5736 43.7579C45.5736 44.0675 45.3787 44.2029 45.1248 44.2345L45.6173 44.9968H45.3235L44.867 44.2465H44.5651V44.9977ZM44.879 44.0253C45.1013 44.0253 45.2995 44.0089 45.2995 43.743C45.2995 43.5289 45.1051 43.4891 44.9222 43.4891H44.5651V44.0253H44.879Z" fill="white"/>
</g>
<defs>
<clipPath id="clip0_7520_305809">
<rect width="48" height="48" fill="white" transform="translate(0.486328)"/>
</clipPath>
</defs>
</svg>

