<svg width="104" height="32" viewBox="0 0 104 32" fill="none" xmlns="http://www.w3.org/2000/svg">
<path d="M85.6025 7.98714C85.4647 6.38013 84.1557 5.04396 82.0717 5.24258C80.091 5.42314 79.4193 6.45235 79.2126 7.89686L77.8864 18.6584H77.8175L74.9928 9.50387C74.1489 6.72319 73.5977 6.019 70.8936 6.25373C68.1895 6.50652 67.7073 7.26488 67.3972 10.19L66.3294 19.6876H66.2605L62.988 9.35942C62.5574 7.98714 61.7307 7.08432 59.75 7.26488C58.4238 7.39128 57.511 8.04131 57.0459 8.92607C56.9943 8.49271 56.822 8.02325 56.5292 7.49962C55.203 5.04396 50.4493 1.34241 43.5599 5.40508C41.1486 6.83153 39.3229 8.76356 38.4962 11.0748C37.5661 9.37747 35.8094 8.20381 33.0708 7.93297C30.6768 7.69824 28.9544 8.51077 27.5076 10.3345H27.4387L27.9899 4.01475C28.2138 1.50492 26.8359 0.204863 24.7863 0.0242994C22.7367 -0.17432 21.1522 0.836834 20.9455 3.34666L19.2403 22.7933C19.0164 25.3032 20.3943 26.6032 22.4439 26.7838C24.4935 26.9824 26.0609 25.9712 26.2848 23.4614L26.8531 16.8889C27.0426 14.668 28.0243 13.3138 29.7811 13.4763C31.5207 13.6388 32.2785 14.8305 32.1063 16.8889L31.4863 23.9489C31.2624 26.4588 32.6402 27.7588 34.6898 27.9394C36.7394 28.138 38.324 27.1268 38.5307 24.617L39.0646 18.4959C39.1679 18.7306 39.2885 18.9473 39.4091 19.1821C42.6299 25.1406 47.9175 25.5198 52.8262 22.6128C56.4087 20.5002 58.2171 18.532 58.9061 16.925L61.5585 23.4614C62.7297 26.3504 63.522 26.7477 65.9505 26.531C68.5857 26.2962 70.0669 25.899 70.5147 22.5405L71.5309 14.4874H71.5998L73.9249 22.2336C74.9239 25.4657 76.4396 25.5921 79.0748 25.3393C81.5033 25.1226 82.2267 24.5809 82.8984 21.5113L85.1547 11.3276C85.5336 9.81083 85.6714 8.92607 85.6025 7.98714ZM45.8851 8.99829C47.418 8.09548 49.192 8.11353 50.4149 10.3706L44.645 13.7832C43.491 11.454 44.5072 9.82888 45.8851 8.99829ZM55.8575 13.2415C53.9801 14.361 53.739 17.1417 51.5 18.4779C49.502 19.6696 47.6247 18.9834 46.3674 17.0153L55.0997 11.8331C55.8403 11.3998 56.3742 10.9484 56.6842 10.4609C56.6842 10.515 56.6842 10.5692 56.6842 10.6234C56.7531 11.3637 56.9426 12.0498 57.3215 13.0429C56.8392 12.9346 56.3225 12.9707 55.8575 13.2415ZM100.656 7.10238C98.8473 6.84959 97.8139 7.86074 96.7461 10.8039L93.5597 19.4348L93.4908 19.4168L92.268 8.69133C92.0613 6.74125 91.2173 5.74815 89.6155 5.51342C87.6348 5.24258 85.9986 6.38013 85.7747 8.1677C85.7058 8.7455 85.7919 9.88305 86.3259 12.5012L88.6338 24.2017C88.7716 24.7976 88.8405 25.3573 88.7888 25.6823C88.7199 26.224 88.3066 26.5129 86.8598 26.3143C85.258 26.0796 84.104 26.4768 83.8801 28.2283C83.639 30.1242 84.8446 31.4965 87.6348 31.8937C90.5628 32.309 93.7664 31.659 95.9021 27.1991L101.603 15.2458C102.74 12.8985 103.463 11.2914 103.549 10.6775C103.842 8.60105 102.361 7.33711 100.656 7.10238ZM19.3781 19.0196C19.1542 17.7376 17.9486 16.5097 16.2951 16.8528C14.3661 17.232 13.7977 20.0307 11.4553 20.5002C9.02681 20.9877 7.85562 18.7668 7.40781 16.3472C7.04611 14.361 7.23557 11.7609 10.0774 11.2012C12.5404 10.7136 13.7805 13.1332 15.5717 12.7901C16.9496 12.5193 17.8797 11.2734 17.5869 9.59415C17.1219 7.04821 13.4705 5.24258 8.61345 6.19956C3.06748 7.301 -0.738909 11.1831 0.466735 17.8639C1.6896 24.599 6.58108 26.7296 12.127 25.6282C18.3103 24.4003 19.6365 20.5002 19.3781 19.0196Z" fill="#262626"/>
</svg>

