<svg width="70" height="48" viewBox="0 0 70 48" fill="none" xmlns="http://www.w3.org/2000/svg">
<g clip-path="url(#clip0_7520_305850)">
<path fill-rule="evenodd" clip-rule="evenodd" d="M65.447 39.5912C65.4481 39.412 65.5022 39.2373 65.6023 39.0889C65.7025 38.9406 65.8443 38.8254 66.0097 38.7578C66.1752 38.6903 66.3569 38.6735 66.5319 38.7095C66.7069 38.7455 66.8674 38.8327 66.9929 38.9602C67.1185 39.0876 67.2035 39.2495 67.2373 39.4254C67.2711 39.6012 67.2521 39.7832 67.1828 39.9483C67.1134 40.1134 66.9968 40.2541 66.8476 40.3527C66.6985 40.4513 66.5235 40.5034 66.3449 40.5023C66.2254 40.5046 66.1067 40.4825 65.996 40.4374C65.8854 40.3923 65.785 40.325 65.701 40.2398C65.617 40.1546 65.5512 40.0532 65.5076 39.9416C65.4639 39.8301 65.4433 39.7109 65.447 39.5912ZM65.2007 39.5912C65.2007 39.8194 65.2683 40.0424 65.3948 40.2321C65.5214 40.4218 65.7013 40.5695 65.9117 40.6566C66.1221 40.7437 66.3535 40.7662 66.5767 40.7212C66.7998 40.6763 67.0047 40.566 67.1652 40.4042C67.3258 40.2425 67.4348 40.0366 67.4786 39.8126C67.5223 39.5887 67.4988 39.3568 67.4109 39.1462C67.3231 38.9357 67.1749 38.7561 66.9851 38.6301C66.7953 38.5041 66.5725 38.4374 66.3449 38.4385C66.0409 38.4399 65.7499 38.562 65.5355 38.778C65.3211 38.994 65.2007 39.2864 65.2007 39.5912ZM65.9124 40.2224H66.1368V39.6735H66.2682L66.6569 40.2224H66.9197L66.5365 39.6735C66.5849 39.6714 66.6325 39.6596 66.6763 39.6387C66.7201 39.6178 66.7592 39.5883 66.7914 39.552C66.8236 39.5156 66.8481 39.4731 66.8636 39.4271C66.879 39.381 66.8851 39.3322 66.8814 39.2838C66.8814 39.0038 66.7281 38.8776 66.4215 38.8776H65.9124V40.2224ZM66.1368 39.1246H66.3394C66.4872 39.1246 66.635 39.1575 66.635 39.3167C66.635 39.4759 66.4763 39.4924 66.2901 39.4924H66.1259V39.1246" fill="#262626"/>
<path d="M32.7691 15.3683C32.7691 10.2637 35.8185 8.73778 38.6926 7.13504C38.8076 7.08015 38.7529 6.81668 38.5777 6.85511C37.1433 7.05271 36.2783 6.0702 35.2436 6.0702C34.1487 6.0702 33.6013 7.11308 33.2016 7.11308C32.802 7.11308 32.7144 6.88255 32.7144 6.59713C32.7144 5.61462 34.3568 3.88015 36.3659 3.88015C38.1452 3.88015 39.8149 5.29078 40.7456 5.29078C40.981 5.29078 41.1836 5.20845 41.1836 5.09319C41.1836 4.7419 40.4062 4.71994 39.4536 3.94053C38.501 3.16111 37.209 2.34876 35.9389 2.34876C35.3122 2.34316 34.6946 2.49988 34.146 2.80374C33.5974 3.10761 33.1363 3.54833 32.8074 4.08324C32.6104 4.57174 32.4078 4.8901 32.0903 4.8901C31.6906 4.8901 31.603 4.48392 31.603 4.05579C31.603 2.95802 33.2454 0.0214844 36.032 0.0214844C37.9864 0.0214844 39.6288 1.54739 41.0413 3.01291C41.2339 3.23004 41.4712 3.4028 41.7367 3.51934C42.0023 3.63588 42.2898 3.69343 42.5796 3.68804C43.1271 3.68804 43.9592 3.85819 43.9592 4.63761C43.9592 6.22389 41.2219 7.03075 38.9226 8.76523C36.7765 10.3515 35.928 11.9213 35.928 15.3079C35.928 18.228 37.2255 21.4664 40.2748 21.4664C43.0997 21.4664 44.2165 18.4531 44.2165 15.7361C44.2165 11.8939 43.5322 10.5271 41.5121 9.10005C41.4141 9.04865 41.3339 8.9687 41.2821 8.87072C41.2303 8.77274 41.2093 8.66133 41.2219 8.55116C41.2217 8.43858 41.2587 8.3291 41.327 8.23975C41.3953 8.15041 41.4912 8.08622 41.5997 8.05716C41.7142 8.04357 41.83 8.04357 41.9446 8.05716C45.0815 8.05716 47.4192 11.5755 47.4192 15.3848C47.4192 19.7759 44.9775 23.0692 39.8861 23.0692C34.9918 23.0692 32.7691 19.2928 32.7691 15.3848" fill="#262626"/>
<path fill-rule="evenodd" clip-rule="evenodd" d="M14.6974 27.6528C14.451 27.6528 14.2977 27.5211 14.0787 27.1917C13.4601 26.2641 13.1918 26.1928 10.9035 26.1928C9.29939 26.1928 9.168 26.2257 9.168 27.0874V30.3807H11.9053C12.5404 30.3807 12.8524 30.6223 12.8524 31.1327C12.8524 31.6432 12.5239 31.8792 11.9053 31.8792H9.66071C9.55438 31.8788 9.44941 31.9032 9.35413 31.9506C9.19537 32.0109 9.17895 32.1482 9.17895 32.6147V37.0058C9.14308 37.2927 9.16543 37.584 9.24464 37.8621C9.28938 37.9465 9.35535 38.0178 9.43601 38.0688C9.51667 38.1198 9.60922 38.1488 9.70451 38.153H10.2136C10.3671 38.1629 10.5106 38.2329 10.613 38.3479C10.7154 38.4629 10.7686 38.6137 10.7611 38.7677C10.7611 39.2562 10.4983 39.4099 9.66619 39.4099H5.63687C4.89233 39.4099 4.62954 39.2562 4.62954 38.7677C4.62614 38.6148 4.68077 38.4662 4.78239 38.3521C4.88401 38.238 5.02505 38.1668 5.17701 38.153H5.61497C5.69985 38.1483 5.78135 38.118 5.84876 38.0661C5.91617 38.0142 5.96635 37.9431 5.99272 37.8621C6.0593 37.5819 6.08147 37.2929 6.05842 37.0058V27.0765C6.08867 26.7814 6.07391 26.4834 6.01462 26.1928C5.98671 26.1132 5.93597 26.0436 5.86876 25.9928C5.80156 25.942 5.72088 25.9123 5.63687 25.9073H5.1989C5.12165 25.9078 5.04517 25.8919 4.9745 25.8606C4.90382 25.8293 4.84055 25.7834 4.78884 25.7258C4.73713 25.6683 4.69815 25.6004 4.67447 25.5267C4.65079 25.453 4.64294 25.3751 4.65144 25.2981C4.65144 24.8096 4.8978 24.6504 5.62045 24.6504H13.7229C14.0787 24.6504 14.1444 24.6504 14.2703 24.7382C14.438 24.8646 14.5608 25.0416 14.6207 25.2432L15.1682 26.7471C15.2195 26.8614 15.2492 26.9842 15.2558 27.1094C15.2558 27.255 15.1981 27.3946 15.0954 27.4975C14.9928 27.6005 14.8535 27.6583 14.7083 27.6583" fill="#262626"/>
<path fill-rule="evenodd" clip-rule="evenodd" d="M35.7091 38.1477C33.2236 38.1477 31.7509 35.8973 31.7509 32.11C31.7509 28.3227 33.2236 25.9296 35.6817 25.9296C38.1398 25.9296 39.6672 28.2953 39.6672 32.088C39.6672 35.8808 38.1453 38.1258 35.72 38.1258L35.7091 38.1477ZM21.6667 38.1258C19.1812 38.1258 17.7031 35.8754 17.7031 32.088C17.7031 28.3007 19.1812 25.9021 21.6284 25.9021C24.0755 25.9021 25.6139 28.2678 25.6139 32.0606C25.6139 35.8534 24.092 38.0983 21.6667 38.0983V38.1258ZM35.6817 24.3652C31.9918 24.3652 29.4297 26.451 28.6687 29.8541C27.9297 26.4455 25.3402 24.3652 21.6284 24.3652C17.1939 24.3652 14.3745 27.3731 14.3745 32.088C14.3745 36.7151 17.2213 39.7395 21.5846 39.7395C25.3128 39.7395 27.8968 37.6318 28.6578 34.1958C29.3969 37.6043 31.9754 39.7395 35.6324 39.7395C40.1107 39.7395 42.9465 36.7151 42.9465 31.9892C42.9465 27.2633 40.1216 24.3652 35.6817 24.3652Z" fill="#262626"/>
<path fill-rule="evenodd" clip-rule="evenodd" d="M49.0614 25.8251C48.4819 25.7986 47.9084 25.952 47.419 26.2642C47.1343 26.4838 47.0905 26.7527 47.0905 28.0097V36.3143C47.0905 37.198 47.0905 37.3737 47.2438 37.5987C47.4806 37.8056 47.7575 37.9612 48.0571 38.0556C48.3567 38.1501 48.6725 38.1814 48.9848 38.1476C51.7221 38.1476 53.2604 35.8972 53.2604 32.0056C53.2604 28.114 51.6947 25.8251 49.0723 25.8251H49.0614ZM53.9995 38.2135C52.702 39.2509 51.0049 39.7394 48.5632 39.7394C46.2693 39.7394 43.6361 39.2289 42.8751 38.6416C42.7985 38.5843 42.7353 38.5108 42.6899 38.4265C42.6445 38.3421 42.618 38.2488 42.6123 38.1531C42.6123 37.8183 42.8313 37.6042 43.2145 37.5603C43.8934 37.445 43.9317 37.4011 43.9536 36.8961V36.4076V27.7243V27.2358C43.9536 26.6594 43.866 26.5716 43.2747 26.5332C42.8532 26.5332 42.6123 26.2862 42.6123 25.9569C42.6144 25.8496 42.6412 25.7442 42.6906 25.649C42.74 25.5538 42.8106 25.4713 42.897 25.408C43.6689 24.8152 46.2474 24.3486 48.7384 24.3486C51.3826 24.3486 53.1892 24.9469 54.5305 26.3136C55.8718 27.6804 56.5342 29.607 56.5342 32.0111C56.5342 34.6841 55.6309 36.8961 53.9995 38.197" fill="#262626"/>
<path fill-rule="evenodd" clip-rule="evenodd" d="M61.2261 39.7388C60.4414 39.7462 59.6598 39.6409 58.9049 39.4259C58.7537 39.3628 58.5923 39.3274 58.4286 39.3216C58.3395 39.3203 58.2513 39.3394 58.1706 39.3775C58.09 39.4155 58.0191 39.4715 57.9633 39.5412C57.8255 39.6708 57.643 39.7416 57.4541 39.7388C57.0818 39.7388 56.9067 39.5412 56.7753 39.0088L56.2278 36.8132C56.1858 36.6706 56.1637 36.5228 56.1621 36.3741C56.1651 36.2287 56.2134 36.0879 56.3002 35.9714C56.3869 35.8549 56.5079 35.7686 56.6461 35.7244C56.7842 35.6802 56.9327 35.6805 57.0708 35.7251C57.2088 35.7698 57.3294 35.8566 57.4158 35.9734L57.7278 36.418C58.0952 36.9457 58.5818 37.3789 59.1479 37.6822C59.714 37.9855 60.3435 38.1505 60.9852 38.1635C62.4196 38.1635 63.3831 37.3676 63.3831 36.204C63.3658 35.5859 63.1154 34.9975 62.6824 34.5573C61.9669 33.8301 61.1738 33.184 60.3173 32.6307C58.226 31.1652 58.0235 31.0335 57.3446 30.2376C56.7917 29.5945 56.4936 28.7702 56.507 27.9213C56.507 25.7806 58.1494 24.3645 60.5637 24.3645C61.2159 24.3606 61.8669 24.4212 62.5072 24.5457C62.6863 24.6027 62.8692 24.6467 63.0546 24.6774C63.1566 24.7051 63.2612 24.7217 63.3667 24.7268C63.5509 24.7105 63.7262 24.6398 63.8704 24.5237C63.9325 24.4651 64.0056 24.4193 64.0855 24.3892C64.1654 24.359 64.2504 24.3451 64.3357 24.3481C64.6642 24.3481 64.8832 24.5731 64.9489 24.9683L65.4963 27.3559C65.5294 27.453 65.5443 27.5554 65.5401 27.6578C65.5353 27.7365 65.5148 27.8134 65.4797 27.884C65.4447 27.9546 65.3958 28.0173 65.336 28.0685C65.2763 28.1198 65.2068 28.1584 65.1318 28.1821C65.0568 28.2059 64.9779 28.2142 64.8996 28.2067C64.6587 28.2067 64.5273 28.1079 64.3521 27.828C64.0951 27.3554 63.7337 26.9479 63.2955 26.6369C62.6998 26.179 61.9713 25.9285 61.2207 25.9234C60.2078 25.9234 59.5454 26.5052 59.5454 27.4053C59.5313 27.7256 59.6175 28.0423 59.7918 28.311C60.0691 28.705 60.4116 29.0484 60.8046 29.3264C61.0674 29.524 61.4177 29.7655 61.8995 30.1059C62.9884 30.7876 63.9999 31.5864 64.916 32.488C65.6605 33.3194 66.0565 34.4066 66.0219 35.5234C66.0219 38.0866 64.1277 39.7662 61.2261 39.7662" fill="#262626"/>
<path fill-rule="evenodd" clip-rule="evenodd" d="M58.2916 20.1112L58.1986 20.3527L57.5197 21.9994C57.2953 22.5483 57.1201 22.6635 56.4248 22.6635H47.961C47.2329 22.6635 46.992 22.5098 46.992 22.0268C46.986 21.9511 46.9956 21.875 47.0204 21.8033C47.0452 21.7315 47.0846 21.6657 47.136 21.61C47.1875 21.5543 47.2499 21.5099 47.3194 21.4796C47.3888 21.4493 47.4638 21.4338 47.5395 21.434H47.961C48.0451 21.4266 48.1253 21.3953 48.1922 21.3437C48.2591 21.2922 48.31 21.2226 48.3388 21.1431C48.4258 20.8818 48.4556 20.6047 48.4264 20.3308V10.3685C48.4565 10.0783 48.4267 9.78491 48.3388 9.50674C48.3136 9.42549 48.2636 9.35423 48.1958 9.30302C48.128 9.2518 48.0459 9.22323 47.961 9.22132H47.5395C47.3831 9.21989 47.2336 9.15697 47.123 9.04611C47.0124 8.93525 46.9497 8.7853 46.9482 8.62852C46.9482 8.14001 47.211 7.98633 47.961 7.98633H52.0396C52.828 7.98633 53.0908 8.14001 53.0908 8.62852C53.0969 8.78275 53.0434 8.93339 52.9414 9.04897C52.8394 9.16456 52.6967 9.23614 52.5433 9.24876H52.0615C51.9646 9.2451 51.8687 9.27024 51.7859 9.32101C51.7031 9.37179 51.6371 9.44595 51.5962 9.53418C51.5186 9.81441 51.4962 10.1071 51.5305 10.3959V19.6392C51.5305 20.6107 51.5743 20.8412 51.8371 20.9894C52.0999 21.1376 52.4776 21.1651 53.9941 21.1651C55.3189 21.1651 55.5653 21.1651 55.9376 21.0114C56.3098 20.8577 56.5945 20.5668 57.1256 19.8148C57.3883 19.447 57.5197 19.3537 57.7825 19.3537C57.9253 19.3398 58.0677 19.3827 58.1793 19.473C58.2909 19.5633 58.3627 19.6939 58.3792 19.8368C58.3783 19.932 58.3558 20.0259 58.3135 20.1112" fill="#262626"/>
<path fill-rule="evenodd" clip-rule="evenodd" d="M69.4489 20.704L68.8084 22.186C68.6551 22.5647 68.5401 22.6525 68.1952 22.669H67.7682H59.1348C58.3902 22.669 58.1493 22.5208 58.1493 22.0323C58.1433 21.9566 58.153 21.8805 58.1777 21.8087C58.2025 21.737 58.2419 21.6712 58.2933 21.6155C58.3448 21.5597 58.4072 21.5153 58.4767 21.4851C58.5461 21.4548 58.6211 21.4393 58.6968 21.4395H59.1348C59.2162 21.4341 59.2939 21.403 59.3568 21.3508C59.4197 21.2986 59.4646 21.2278 59.4851 21.1486C59.5809 20.8645 59.6126 20.5627 59.5782 20.2649V10.385C59.61 10.0925 59.5783 9.79666 59.4851 9.51772C59.4692 9.43317 59.4265 9.35603 59.3634 9.29771C59.3003 9.23939 59.2201 9.20298 59.1348 9.19387H58.6749C58.5321 9.17885 58.399 9.11402 58.2989 9.0107C58.1989 8.90738 58.1382 8.77212 58.1274 8.62852C58.1274 8.14001 58.3957 7.98633 59.1402 7.98633H67.6204C68.0857 7.98633 68.2609 8.0961 68.3923 8.43092L69.0383 10.0776C69.0885 10.1952 69.1235 10.3188 69.1423 10.4453C69.1368 10.518 69.117 10.5888 69.0839 10.6537C69.0508 10.7186 69.0051 10.7762 68.9496 10.8232C68.894 10.8702 68.8297 10.9057 68.7603 10.9275C68.691 10.9493 68.618 10.9571 68.5456 10.9503C68.4596 10.9548 68.3746 10.9296 68.3047 10.879C68.1904 10.8268 68.0865 10.7543 67.9982 10.6649C67.9215 10.5317 67.8316 10.4067 67.7299 10.2916C67.2919 9.64945 66.8704 9.49576 65.4853 9.49576H64.0072C62.8028 9.49576 62.6659 9.64945 62.6659 10.8186V13.6453H65.4853C66.1258 13.6453 66.3448 13.8484 66.3448 14.3753C66.3448 14.9023 66.0601 15.1438 65.4853 15.1438H63.7663C63.1258 15.1438 62.9779 15.1438 62.863 15.2371C62.748 15.3304 62.6659 15.5445 62.6659 16.033V19.5239C62.6659 20.693 62.7371 20.9345 63.082 21.0663C63.703 21.2183 64.3443 21.2701 64.9816 21.2199C65.6652 21.2405 66.3494 21.213 67.0291 21.1376C67.3165 21.0621 67.5856 20.9288 67.8199 20.7457C68.0543 20.5626 68.249 20.3337 68.3923 20.0728C68.6606 19.6721 68.7701 19.5843 69.0548 19.5843C69.1289 19.5805 69.2031 19.592 69.2727 19.6179C69.3423 19.6438 69.4059 19.6837 69.4597 19.735C69.5135 19.7863 69.5563 19.8481 69.5855 19.9166C69.6147 19.985 69.6297 20.0587 69.6296 20.1332C69.6097 20.3472 69.5503 20.5556 69.4544 20.7479" fill="#262626"/>
<path d="M32.6541 21.4063H32.2161C32.1341 21.4052 32.0543 21.3788 31.9877 21.3307C31.9211 21.2826 31.8709 21.215 31.8439 21.1373C31.7502 20.8547 31.7184 20.5551 31.7508 20.2591V10.3407C31.7199 10.0497 31.7536 9.75546 31.8493 9.47899C31.8759 9.40005 31.9256 9.33103 31.9921 9.28105C32.0586 9.23107 32.1386 9.20248 32.2216 9.19906H32.6596C32.813 9.18644 32.9557 9.11486 33.0577 8.99927C33.1597 8.88369 33.2132 8.73304 33.2071 8.57882C33.2071 8.08482 32.9443 7.93114 32.1942 7.93114H28.2087C27.4587 7.93114 27.1904 8.08482 27.1904 8.57882C27.1919 8.73705 27.2552 8.8884 27.3668 9.00029C27.4784 9.11218 27.6294 9.17567 27.7872 9.1771H28.2087C28.294 9.18189 28.3763 9.21069 28.446 9.26021C28.5157 9.30972 28.5701 9.37794 28.6029 9.45704C28.6805 9.73726 28.7029 10.03 28.6686 10.3188V13.6121H23.8893V10.3188C23.8695 10.0299 23.8916 9.73959 23.955 9.45704C23.992 9.3766 24.0504 9.30794 24.1238 9.25857C24.1972 9.2092 24.2827 9.18101 24.371 9.1771H24.7926C24.8693 9.17292 24.9445 9.15349 25.0136 9.11995C25.0828 9.08641 25.1447 9.03943 25.1956 8.98173C25.2466 8.92403 25.2855 8.85675 25.3103 8.78382C25.3351 8.71089 25.3452 8.63374 25.34 8.55686C25.34 8.06287 25.0937 7.90918 24.3655 7.90918H17.0953C16.504 7.90918 16.2576 8.09031 16.2576 8.53491C16.2576 8.88071 16.4766 9.08379 16.9639 9.14417C17.4511 9.20455 17.7358 9.39117 17.7358 9.72599C17.7348 9.91282 17.7034 10.0982 17.6427 10.2749L15.0478 18.7332L12.4254 10.6481C12.3033 10.3527 12.2293 10.0395 12.2064 9.7205C12.2064 9.3253 12.3597 9.17162 12.9565 9.1277C13.4437 9.06184 13.6572 8.88071 13.6572 8.52942C13.6572 8.17813 13.4218 7.93114 12.9127 7.93114H8.59318C8.08952 7.93114 7.82674 8.17265 7.82674 8.60078C7.82674 8.93011 7.99645 9.08379 8.46179 9.19906C8.92714 9.31433 9.14612 9.43508 9.27751 9.74795C9.32131 9.84126 9.3651 10.0114 9.4527 10.2584L10.4655 13.2169L8.418 18.9582L5.44528 10.6481L5.26462 10.1486C5.21069 9.99142 5.18295 9.82637 5.1825 9.66012C5.1825 9.30884 5.37958 9.15515 5.86683 9.11124C6.35407 9.06733 6.65517 8.91364 6.65517 8.56235C6.65517 8.21107 6.43618 7.96407 5.92705 7.96407H1.39407C0.884926 7.96407 0.644043 8.16716 0.644043 8.5404C0.644043 8.91364 0.797332 9.05086 1.2572 9.13319C1.96342 9.29237 2.07292 9.40215 2.40687 10.3078L6.72087 21.8948C7.02744 22.7236 7.3395 22.9925 7.97455 22.9925C8.24426 22.9914 8.50673 22.905 8.72457 22.7455C8.93569 22.4999 9.08744 22.2088 9.16802 21.8948L11.325 15.857L13.3506 21.8948C13.6189 22.7071 13.9474 22.9925 14.6043 22.9925C15.2613 22.9925 15.5569 22.6852 15.8854 21.6039L19.3891 10.2749C19.63 9.50095 19.7888 9.29237 20.2432 9.1771H20.3527C20.436 9.18163 20.5162 9.21056 20.5834 9.26032C20.6505 9.31007 20.7016 9.37846 20.7304 9.45704C20.809 9.73708 20.8314 10.03 20.7961 10.3188V20.2591C20.8301 20.5534 20.8078 20.8514 20.7304 21.1373C20.7011 21.2146 20.6496 21.2815 20.5823 21.3294C20.5151 21.3773 20.4351 21.404 20.3527 21.4063H19.9147C19.7632 21.4214 19.6229 21.4929 19.5216 21.6068C19.4202 21.7206 19.3651 21.8684 19.3672 22.021C19.3672 22.504 19.63 22.6632 20.38 22.6632H24.3874C25.0937 22.6632 25.34 22.504 25.34 22.043C25.3475 21.9648 25.3392 21.8859 25.3154 21.811C25.2917 21.7362 25.2531 21.6669 25.2019 21.6074C25.1508 21.5479 25.0881 21.4994 25.0178 21.4648C24.9474 21.4303 24.8708 21.4103 24.7926 21.4063H24.371C24.2836 21.4046 24.1984 21.3785 24.1249 21.331C24.0514 21.2835 23.9926 21.2165 23.955 21.1373C23.8918 20.8492 23.8697 20.5535 23.8893 20.2591V16.2138C23.8893 15.1984 23.9769 15.116 24.7926 15.116H27.7872C28.2306 15.116 28.4496 15.1819 28.5591 15.3136C28.6686 15.4454 28.6686 15.5387 28.6686 16.3565V20.2646C28.7004 20.5589 28.6782 20.8566 28.6029 21.1428C28.567 21.2187 28.5116 21.2837 28.4423 21.331C28.373 21.3783 28.2924 21.4062 28.2087 21.4118H27.7872C27.6357 21.4269 27.4954 21.4984 27.3941 21.6122C27.2927 21.7261 27.2376 21.8739 27.2397 22.0265C27.2397 22.5095 27.4861 22.6687 28.2361 22.6687H32.2435C33.0154 22.6687 33.2563 22.5095 33.2563 22.0265C33.2624 21.8729 33.2087 21.7228 33.1066 21.6081C33.0044 21.4934 32.8618 21.423 32.7089 21.4118" fill="#262626"/>
<path fill-rule="evenodd" clip-rule="evenodd" d="M65.2826 41.1824C65.7402 41.164 66.1968 41.2385 66.6249 41.4013C67.0531 41.5642 67.444 41.8121 67.7743 42.1302C68.1045 42.4482 68.3673 42.8299 68.5467 43.2523C68.7262 43.6747 68.8187 44.1291 68.8187 44.5883C68.8187 45.0474 68.7262 45.5018 68.5467 45.9242C68.3673 46.3466 68.1045 46.7283 67.7743 47.0464C67.444 47.3645 67.0531 47.6124 66.6249 47.7752C66.1968 47.9381 65.7402 48.0125 65.2826 47.9941H5.4834C5.02583 48.0125 4.56926 47.9381 4.14109 47.7752C3.71293 47.6124 3.32199 47.3645 2.99174 47.0464C2.6615 46.7283 2.39875 46.3466 2.21927 45.9242C2.03978 45.5018 1.94727 45.0474 1.94727 44.5883C1.94727 44.1291 2.03978 43.6747 2.21927 43.2523C2.39875 42.8299 2.6615 42.4482 2.99174 42.1302C3.32199 41.8121 3.71293 41.5642 4.14109 41.4013C4.56926 41.2385 5.02583 41.164 5.4834 41.1824H65.2826ZM63.3391 43.378C63.3436 43.3489 63.3436 43.3193 63.3391 43.2902L63.153 42.8126C63.1419 42.7673 63.1193 42.7257 63.0873 42.6919C63.0464 42.6785 63.0023 42.6785 62.9614 42.6919H60.5142C60.3719 42.6919 60.3555 42.6919 60.3007 42.8401L60.1365 43.2792C60.1186 43.3191 60.1075 43.3618 60.1036 43.4054C60.1101 43.4427 60.1297 43.4765 60.1588 43.5006C60.1879 43.5248 60.2246 43.5377 60.2624 43.5372C60.3226 43.5372 60.3609 43.5372 60.4376 43.3999L60.4759 43.345C60.5205 43.2527 60.5935 43.1772 60.6843 43.1298C60.775 43.0823 60.8785 43.0654 60.9796 43.0816C61.3135 43.0816 61.3135 43.0816 61.3299 43.345V43.4932V45.8589C61.3466 45.933 61.3466 46.0099 61.3299 46.084C61.3205 46.1052 61.3051 46.1232 61.2857 46.1358C61.2663 46.1485 61.2436 46.1553 61.2204 46.1553H61.0672C61.0275 46.1582 60.9904 46.1763 60.9639 46.206C60.9373 46.2358 60.9233 46.2747 60.9248 46.3145C60.9248 46.4408 60.985 46.4792 61.1876 46.4792H62.2825C62.4796 46.4792 62.5508 46.4408 62.5508 46.3145C62.5508 46.2732 62.5348 46.2336 62.5062 46.2039C62.4776 46.1742 62.4386 46.1568 62.3975 46.1553H62.2497C62.2262 46.1568 62.2029 46.1507 62.1832 46.1378C62.1634 46.125 62.1484 46.1061 62.1402 46.084C62.1402 46.0456 62.1402 46.0071 62.1402 45.8589V43.345C62.1402 43.1035 62.173 43.0761 62.4358 43.0761C62.5585 43.0608 62.683 43.0778 62.7971 43.1255C62.8821 43.1755 62.9521 43.2475 62.9997 43.3341C63.0179 43.3585 63.0344 43.3842 63.049 43.4109C63.1092 43.4987 63.1585 43.5317 63.2187 43.5317C63.2553 43.5334 63.2913 43.5215 63.3196 43.4982C63.3479 43.4748 63.3666 43.4418 63.372 43.4054L63.3391 43.378ZM53.0797 45.8041C53.0798 45.7858 53.076 45.7677 53.0688 45.751C53.0615 45.7342 53.0508 45.7192 53.0374 45.7068C53.024 45.6944 53.0082 45.6849 52.991 45.679C52.9738 45.6731 52.9555 45.6708 52.9374 45.6723C52.8607 45.6723 52.8333 45.6723 52.7622 45.7986C52.7262 45.8663 52.6764 45.9258 52.616 45.9731C52.5557 46.0203 52.4861 46.0544 52.4118 46.073C52.2295 46.0863 52.0466 46.0863 51.8643 46.073C51.7009 46.0891 51.536 46.0761 51.3771 46.0346C51.284 46.0017 51.2676 45.9413 51.2676 45.6394V44.7447C51.2676 44.6185 51.2676 44.5581 51.3169 44.5416C51.3946 44.5266 51.4745 44.5266 51.5523 44.5416H51.9902C52.1435 44.5416 52.2092 44.4703 52.2092 44.333C52.2092 44.1958 52.1545 44.1519 51.9902 44.1519H51.2676V43.4329C51.2676 43.131 51.3004 43.0871 51.6125 43.0871H51.9902C52.3461 43.0871 52.4556 43.131 52.5706 43.2902C52.6089 43.3505 52.6308 43.3725 52.6362 43.389C52.658 43.412 52.6841 43.4307 52.7129 43.4438C52.7327 43.4487 52.7533 43.4487 52.7731 43.4438C52.8098 43.4472 52.8465 43.4367 52.8758 43.4143C52.9052 43.392 52.9252 43.3594 52.9319 43.3231C52.9361 43.2903 52.9361 43.2571 52.9319 43.2243L52.7622 42.8016C52.7293 42.7138 52.68 42.6864 52.5651 42.6864H50.3752C50.1781 42.6864 50.1125 42.7303 50.1125 42.8565C50.1117 42.8767 50.115 42.8969 50.122 42.9158C50.129 42.9347 50.1397 42.9521 50.1534 42.9668C50.1672 42.9816 50.1837 42.9936 50.202 43.0019C50.2203 43.0103 50.2401 43.015 50.2603 43.0157H50.3752C50.3965 43.0187 50.4164 43.0282 50.4321 43.0429C50.4478 43.0577 50.4585 43.0769 50.4628 43.098C50.4783 43.1723 50.4783 43.2489 50.4628 43.3231V45.8535C50.4779 45.9296 50.4779 46.0079 50.4628 46.084C50.4564 46.1034 50.4448 46.1208 50.4294 46.1343C50.414 46.1478 50.3953 46.157 50.3752 46.1608H50.2438C50.2247 46.1608 50.2057 46.1647 50.1881 46.1722C50.1704 46.1797 50.1545 46.1907 50.1412 46.2046C50.1279 46.2184 50.1175 46.2348 50.1107 46.2527C50.1039 46.2707 50.1008 46.2898 50.1015 46.309C50.1015 46.4353 50.1617 46.4737 50.3588 46.4737H52.6855C52.7676 46.4737 52.8005 46.4737 52.8388 46.3475L53.0085 45.9687C53.0292 45.916 53.0421 45.8605 53.0468 45.8041H53.0797ZM43.0447 46.3145C43.0447 46.2102 42.99 46.1663 42.8641 46.1553C42.7381 46.1444 42.7436 46.1553 42.7108 46.1059C42.6317 46.0353 42.5651 45.9518 42.5137 45.8589L41.4188 44.2123L42.0976 43.3286C42.1737 43.2301 42.26 43.14 42.3549 43.0596C42.4148 43.0221 42.482 42.9978 42.552 42.9883C42.6889 42.9553 42.7272 42.9279 42.7272 42.8346C42.7272 42.7413 42.667 42.6754 42.552 42.6754H41.6268C41.5009 42.6754 41.4297 42.7413 41.4297 42.8456C41.4297 42.9498 41.4899 42.9992 41.6651 43.0102C41.7527 43.0102 41.791 43.0486 41.791 43.109C41.797 43.1287 41.797 43.1497 41.791 43.1694L41.6761 43.3011L40.8439 44.355C40.807 44.3962 40.784 44.4481 40.7782 44.5032C40.784 44.5599 40.8069 44.6136 40.8439 44.6569L41.9389 46.3035C41.966 46.3575 42.0087 46.4021 42.0614 46.4314C42.1141 46.4608 42.1744 46.4736 42.2345 46.4682H42.8641C42.9955 46.4682 43.0666 46.4133 43.0666 46.3035L43.0447 46.3145ZM41.0574 46.3035C41.0577 46.264 41.0432 46.2258 41.0169 46.1964C40.9906 46.167 40.9543 46.1484 40.9151 46.1444H40.8001C40.7798 46.1437 40.7601 46.1364 40.7443 46.1235C40.7285 46.1106 40.7173 46.0929 40.7125 46.073C40.7125 46.0346 40.6852 46.0017 40.6852 45.848V43.3066C40.6759 43.2287 40.6853 43.1497 40.7125 43.0761C40.7175 43.0568 40.7289 43.0397 40.7448 43.0277C40.7607 43.0158 40.7802 43.0096 40.8001 43.0102H40.9151C40.935 43.0095 40.9546 43.0048 40.9726 42.9964C40.9907 42.9879 41.0068 42.9759 41.0201 42.961C41.0334 42.9462 41.0436 42.9288 41.05 42.9099C41.0564 42.891 41.0589 42.871 41.0574 42.851C41.0574 42.7248 41.0027 42.6809 40.8001 42.6809H39.7545C39.5629 42.6809 39.4972 42.7248 39.4972 42.851C39.4964 42.8712 39.4997 42.8914 39.5067 42.9103C39.5138 42.9292 39.5244 42.9466 39.5382 42.9614C39.5519 42.9761 39.5684 42.9881 39.5867 42.9965C39.6051 43.0048 39.6249 43.0095 39.645 43.0102H39.7545C39.7753 43.0112 39.7955 43.0179 39.8129 43.0295C39.8302 43.0411 39.8441 43.0572 39.853 43.0761C39.853 43.12 39.853 43.1584 39.853 43.3066V45.848C39.853 45.9962 39.853 46.0346 39.853 46.073C39.8444 46.0926 39.8307 46.1095 39.8134 46.1221C39.7961 46.1346 39.7757 46.1423 39.7545 46.1444H39.645C39.6048 46.1471 39.5672 46.1651 39.5397 46.1947C39.5123 46.2242 39.4971 46.2632 39.4972 46.3035C39.4972 46.4298 39.5629 46.4682 39.7545 46.4682H40.7782C40.9698 46.4682 41.0355 46.4298 41.0355 46.3035H41.0574ZM32.4732 46.3035C32.4736 46.2773 32.4672 46.2514 32.4548 46.2284C32.4423 46.2053 32.4242 46.1859 32.4021 46.1718C32.3511 46.1495 32.2979 46.133 32.2433 46.1224C32.0955 46.0895 32.0462 46.0511 31.9039 45.8205L31.1703 44.6239C31.3906 44.5858 31.5899 44.4694 31.7316 44.296C31.8733 44.1227 31.9481 43.9039 31.9422 43.6799C31.9422 42.9773 31.4331 42.5821 30.486 42.5821C29.998 42.5629 29.5123 42.6588 29.068 42.862C29.0497 42.8788 29.035 42.8992 29.0247 42.9218C29.0143 42.9444 29.0086 42.9689 29.0078 42.9938C29.0078 43.0926 29.068 43.1365 29.1775 43.1365C29.287 43.1365 29.3472 43.1804 29.3472 43.3341V45.826C29.3612 45.9004 29.3612 45.9767 29.3472 46.0511C29.3387 46.0718 29.3243 46.0896 29.3059 46.1023C29.2874 46.115 29.2656 46.122 29.2432 46.1224H29.1118C29.0717 46.1252 29.034 46.1432 29.0066 46.1727C28.9791 46.2023 28.9639 46.2412 28.964 46.2816C28.964 46.4078 29.0242 46.4463 29.2159 46.4463H30.2615C30.4531 46.4463 30.5133 46.4078 30.5133 46.2816C30.5149 46.2417 30.5009 46.2028 30.4743 46.1731C30.4477 46.1434 30.4107 46.1252 30.371 46.1224H30.2615C30.2394 46.1207 30.2182 46.1132 30.1999 46.1007C30.1817 46.0882 30.167 46.0711 30.1575 46.0511C30.1467 45.9764 30.1467 45.9006 30.1575 45.826V43.4823C30.1575 43.2517 30.1575 43.1365 30.256 43.0706C30.2951 43.0313 30.3424 43.0011 30.3944 42.9821C30.4464 42.9631 30.502 42.9559 30.5571 42.9608C30.8966 42.9608 31.1046 43.2462 31.1046 43.6799C31.1046 44.1135 30.9349 44.3385 30.5571 44.3989C30.4038 44.3989 30.3491 44.4538 30.3491 44.5745C30.3559 44.6684 30.3902 44.7581 30.4476 44.8325L31.3017 46.2926C31.3262 46.3487 31.3684 46.3951 31.4218 46.4249C31.4752 46.4546 31.5368 46.466 31.5973 46.4572H32.2433C32.3966 46.4572 32.4787 46.4023 32.4787 46.2871L32.4732 46.3035ZM19.6298 44.9368H20.4619L20.0404 43.603L19.6243 44.9368H19.6298ZM21.743 46.4572H20.5605C20.5391 46.4603 20.5172 46.4589 20.4964 46.4529C20.4756 46.4469 20.4562 46.4366 20.4397 46.4226C20.4231 46.4086 20.4097 46.3912 20.4004 46.3717C20.391 46.3521 20.3859 46.3307 20.3853 46.309C20.3853 46.1993 20.451 46.1444 20.6043 46.1334C20.7576 46.1224 20.7685 46.084 20.7685 45.9962C20.7731 45.945 20.7731 45.8936 20.7685 45.8425L20.6645 45.5186V45.4363C20.6317 45.3485 20.5879 45.321 20.4619 45.321H19.6791C19.6265 45.3165 19.5736 45.326 19.5258 45.3485C19.5037 45.3632 19.4865 45.3842 19.4765 45.4089C19.4672 45.4466 19.4544 45.4833 19.4382 45.5186L19.3342 45.8425C19.3263 45.8934 19.3263 45.9452 19.3342 45.9962C19.3342 46.073 19.378 46.1224 19.4929 46.1334C19.6079 46.1444 19.69 46.1883 19.69 46.2926C19.69 46.3969 19.6189 46.4572 19.4984 46.4572H18.6772C18.5404 46.4572 18.4801 46.4078 18.4801 46.309C18.4801 46.2102 18.5294 46.1663 18.6389 46.1499C18.7484 46.1334 18.7703 46.1499 18.8031 46.073C18.8435 45.9996 18.8765 45.9224 18.9017 45.8425L19.8652 42.9553C19.9638 42.6644 20.0349 42.5931 20.2046 42.5931C20.3743 42.5931 20.4674 42.6809 20.5605 42.9553L21.5131 45.7766C21.6061 46.0456 21.6335 46.073 21.7649 46.1224H21.8415C21.8719 46.1312 21.8982 46.1501 21.9162 46.1762C21.9341 46.2022 21.9426 46.2336 21.9401 46.2651C21.9401 46.3804 21.8744 46.4353 21.743 46.4353V46.4572ZM11.4507 46.2871C11.4522 46.2458 11.4377 46.2055 11.4101 46.1747C11.3825 46.144 11.3441 46.1252 11.3029 46.1224H11.2098C11.1869 46.1246 11.164 46.1186 11.145 46.1056C11.126 46.0925 11.1121 46.0733 11.1058 46.0511C11.0782 45.9814 11.0687 45.9058 11.0785 45.8315V43.2737C11.0785 43.12 11.0785 43.0871 11.1058 43.0432C11.1144 43.0224 11.1287 43.0046 11.1472 42.9919C11.1657 42.9792 11.1875 42.9722 11.2098 42.9718H11.3029C11.3228 42.9711 11.3424 42.9664 11.3604 42.958C11.3785 42.9495 11.3946 42.9375 11.4079 42.9226C11.4212 42.9078 11.4314 42.8903 11.4378 42.8714C11.4442 42.8525 11.4467 42.8325 11.4453 42.8126C11.4453 42.6919 11.385 42.648 11.2098 42.648H10.5638C10.5292 42.6434 10.4941 42.6494 10.4629 42.665C10.4317 42.6807 10.4058 42.7053 10.3887 42.7358L10.3449 42.8071L9.40322 44.3605L8.37947 42.8291C8.30283 42.7083 8.29188 42.6919 8.2426 42.6809H8.14954H7.53638C7.34477 42.6809 7.28455 42.7248 7.28455 42.8456C7.28304 42.8659 7.28574 42.8864 7.29249 42.9056C7.29924 42.9249 7.30989 42.9426 7.32377 42.9575C7.33765 42.9725 7.35446 42.9844 7.37315 42.9925C7.39183 43.0006 7.41199 43.0048 7.43236 43.0047H7.53638C7.55844 43.0064 7.57967 43.0139 7.59793 43.0264C7.6162 43.039 7.63084 43.0561 7.6404 43.0761C7.65104 43.1526 7.65104 43.2301 7.6404 43.3066V45.8644C7.65024 45.9373 7.65024 46.0111 7.6404 46.084C7.6325 46.1052 7.61827 46.1234 7.59966 46.1362C7.58104 46.1489 7.55894 46.1556 7.53638 46.1553H7.43236C7.41174 46.156 7.39147 46.1609 7.37276 46.1696C7.35406 46.1783 7.3373 46.1908 7.3235 46.2061C7.3097 46.2215 7.29913 46.2395 7.29244 46.2591C7.28575 46.2787 7.28306 46.2994 7.28455 46.32C7.28455 46.4298 7.34477 46.4682 7.53638 46.4682H8.2426C8.44517 46.4682 8.50539 46.4298 8.50539 46.32C8.50612 46.2991 8.50273 46.2783 8.49542 46.2587C8.48811 46.2391 8.47702 46.2211 8.46279 46.2058C8.44855 46.1905 8.43145 46.1782 8.41245 46.1695C8.39346 46.1609 8.37295 46.1561 8.3521 46.1553H8.2426C8.22005 46.1556 8.19795 46.1489 8.17933 46.1362C8.16071 46.1234 8.14648 46.1052 8.13859 46.084C8.12533 46.0114 8.12533 45.937 8.13859 45.8644V43.7567L9.0857 45.1673C9.16234 45.2771 9.18971 45.2991 9.25541 45.2991C9.2955 45.2964 9.33408 45.2826 9.36691 45.2594C9.39974 45.2362 9.42556 45.2043 9.44155 45.1673L10.3065 43.7896V45.8425C10.3065 45.9907 10.3065 46.0181 10.3065 46.062C10.3015 46.0828 10.2895 46.1012 10.2726 46.1142C10.2557 46.1272 10.2348 46.134 10.2135 46.1334H10.1094C10.0888 46.1341 10.0686 46.1389 10.0499 46.1476C10.0311 46.1564 10.0144 46.1688 10.0006 46.1842C9.98678 46.1996 9.97622 46.2176 9.96953 46.2371C9.96283 46.2567 9.96015 46.2774 9.96163 46.298C9.96163 46.4078 10.0219 46.4463 10.2135 46.4463H11.2098C11.385 46.4463 11.4507 46.4078 11.4507 46.298" fill="#262626"/>
</g>
<defs>
<clipPath id="clip0_7520_305850">
<rect width="69.298" height="48" fill="white" transform="translate(0.644043)"/>
</clipPath>
</defs>
</svg>

