<svg width="76" height="36" viewBox="0 0 76 36" fill="none" xmlns="http://www.w3.org/2000/svg">
<g clip-path="url(#clip0_7520_305840)">
<path d="M6 14.3467L15.4494 27.4376H22.3701L11.837 14.3467H6Z" fill="#262626"/>
<path d="M11.837 14.3463V14.3272L21.6856 1.23633H15.2022L6 14.3272V14.3463H11.837Z" fill="#262626"/>
<path d="M5.73388 1.23633H0.486328V27.4372H5.73388V1.23633Z" fill="#262626"/>
<path d="M40.2803 1.29387L45.4898 0V27.4947H40.2803V1.29387Z" fill="#262626"/>
<path d="M48.7788 1.29387L53.9693 0V27.4947H48.7788V1.29387Z" fill="#262626"/>
<path d="M75.644 10.0273L68.324 27.4946L64.7306 35.9999H59.6352L63.4377 27.3043L56.1748 10.0273H61.4794L65.9094 21.3868L70.3394 10.0273H75.644Z" fill="#262626"/>
<path d="M37.6946 18.4186C37.6946 13.167 34.4624 9.62793 29.6522 9.62793C24.6138 9.62793 21.2104 13.2622 21.2104 18.685C21.2104 24.241 24.7468 27.8182 30.2035 27.8182C33.0174 27.8182 35.6412 26.8668 37.2383 25.2685L37.5425 24.9641L34.9948 21.8816L34.6145 22.2241C33.5878 23.1755 32.0288 23.7273 30.3176 23.7273C27.96 23.7273 26.382 22.5286 25.8686 20.3594H37.6756L37.6946 18.4186ZM26.0017 16.5159C26.5531 14.6892 27.8459 13.6808 29.6522 13.6808C31.3253 13.6808 32.5041 14.6892 32.9604 16.5159H26.0017Z" fill="#262626"/>
<path d="M72.1079 26.1436H72.3741L72.8304 26.8857H73.1536L72.6593 26.1246C72.7923 26.1056 72.9064 26.0675 72.9825 25.9914C73.0775 25.9153 73.1156 25.8011 73.1156 25.6489C73.1156 25.4776 73.0585 25.3445 72.9444 25.2683C72.8304 25.1922 72.6783 25.1542 72.4691 25.1542H71.8037V26.8667H72.0889L72.1079 26.1436ZM72.1079 25.8963V25.4015H72.4691C72.5072 25.4015 72.5642 25.4015 72.6022 25.4015C72.6402 25.4015 72.6973 25.4206 72.7353 25.4396L72.8304 25.5157C72.8494 25.5538 72.8684 25.5918 72.8684 25.6489C72.8684 25.706 72.8494 25.7631 72.8304 25.8011L72.7353 25.8772C72.6973 25.8963 72.6593 25.9153 72.6022 25.9153C72.5452 25.9153 72.5071 25.9153 72.4501 25.9153L72.1079 25.8963ZM73.8761 25.3445C73.8 25.1542 73.686 24.9829 73.5338 24.8497C73.3817 24.7165 73.2296 24.6024 73.0395 24.5263C72.8494 24.4502 72.6593 24.4121 72.4501 24.4121C72.241 24.4121 72.0318 24.4502 71.8417 24.5263C71.6516 24.6024 71.4805 24.6975 71.3284 24.8497C71.1762 24.9829 71.0622 25.1542 70.9861 25.3445C70.9101 25.5347 70.853 25.744 70.853 25.9724C70.853 26.2007 70.8911 26.391 70.9671 26.5812C71.0432 26.7715 71.1572 26.9428 71.2903 27.076C71.4234 27.2091 71.5945 27.3233 71.7847 27.3994C71.9748 27.4755 72.1839 27.5136 72.4311 27.5136C72.6402 27.5136 72.8304 27.4755 73.0205 27.3994C73.2106 27.3233 73.3817 27.2282 73.5148 27.076C73.6669 26.9428 73.781 26.7715 73.8571 26.5812C73.9331 26.391 73.9902 26.1817 73.9902 25.9533C74.0092 25.744 73.9521 25.5347 73.8761 25.3445ZM73.5719 26.5051C73.5148 26.6574 73.4198 26.7905 73.3057 26.9047C73.1916 27.0189 73.0585 27.114 72.9064 27.1711C72.7543 27.2282 72.6022 27.2662 72.4311 27.2662C72.241 27.2662 72.0699 27.2282 71.9178 27.1711C71.7656 27.095 71.6326 27.0189 71.5375 26.9047C71.4234 26.7905 71.3474 26.6574 71.2903 26.5051C71.2333 26.3529 71.2143 26.1817 71.2143 26.0104C71.2143 25.8201 71.2523 25.6489 71.3093 25.4967C71.3664 25.3445 71.4614 25.2113 71.5755 25.0971C71.6896 24.9829 71.8227 24.8878 71.9748 24.8307C72.1269 24.7736 72.279 24.7356 72.4691 24.7356C72.6402 24.7356 72.7923 24.7736 72.9444 24.8307C73.0966 24.8878 73.2296 24.9829 73.3437 25.0971C73.4578 25.2113 73.5338 25.3445 73.6099 25.4967C73.6669 25.6489 73.705 25.8201 73.705 26.0104C73.6669 26.1817 73.6289 26.3529 73.5719 26.5051Z" fill="#262626"/>
</g>
<defs>
<clipPath id="clip0_7520_305840">
<rect width="75.1579" height="36" fill="white" transform="translate(0.486328)"/>
</clipPath>
</defs>
</svg>

