<svg width="134" height="40" viewBox="0 0 134 40" fill="none" xmlns="http://www.w3.org/2000/svg">
<g clip-path="url(#clip0_7520_305800)">
<path d="M5.20942 0V13.3057C5.99649 12.4152 6.96158 11.6997 8.04236 11.2054C9.12313 10.7111 10.2955 10.449 11.4839 10.436C12.7589 10.4048 14.025 10.6549 15.1924 11.1684C16.3598 11.6819 17.3997 12.4463 18.2383 13.4072C20.0496 15.4673 21.0096 18.1393 20.9234 20.8812C21.0254 23.6777 20.0549 26.4075 18.2106 28.5121C17.3694 29.4814 16.3244 30.2528 15.1504 30.7713C13.9764 31.2897 12.7023 31.5423 11.4193 31.511C10.2611 31.5053 9.11584 31.2663 8.05204 30.8081C6.98825 30.35 6.02773 29.682 5.22787 28.8443V30.9389H0.614258V0H5.20942ZM16.1806 21.1211C16.2546 19.4229 15.6993 17.7571 14.6212 16.4429C14.1439 15.8559 13.5397 15.3849 12.854 15.0652C12.1684 14.7456 11.4191 14.5856 10.6627 14.5975C9.88309 14.5735 9.10777 14.7215 8.39176 15.0309C7.67575 15.3403 7.03659 15.8034 6.51967 16.3875C5.42553 17.6684 4.86122 19.3185 4.94183 21.0012C4.85541 22.6955 5.41241 24.3599 6.50123 25.6609C7.0088 26.246 7.64123 26.7098 8.35188 27.018C9.06253 27.3263 9.8333 27.471 10.6074 27.4417C11.3608 27.4582 12.1084 27.307 12.7963 26.999C13.4841 26.691 14.0948 26.2339 14.5843 25.6609C15.6722 24.4045 16.2427 22.7819 16.1806 21.1211Z" fill="#262626"/>
<path d="M40.5218 10.9898H45.1354V30.939H40.5218V28.8444C39.6693 29.7168 38.6459 30.4039 37.5157 30.8627C36.3855 31.3216 35.1728 31.5423 33.9534 31.5111C32.7341 31.4799 31.5342 31.1975 30.429 30.6815C29.3237 30.1655 28.3368 29.427 27.5299 28.5122C25.7085 26.396 24.75 23.6719 24.8448 20.8813C24.7548 18.1333 25.715 15.4542 27.5299 13.3888C28.3651 12.4275 29.4014 11.6614 30.5653 11.1448C31.7293 10.6282 32.9926 10.3737 34.2658 10.3992C35.4513 10.4131 36.6208 10.6756 37.6984 11.17C38.7761 11.6643 39.738 12.3794 40.5218 13.2689V10.9898ZM29.5691 20.9182C29.4917 22.6123 30.0365 24.2762 31.1009 25.5964C31.5828 26.185 32.1918 26.6568 32.8822 26.9765C33.5726 27.2961 34.3264 27.4552 35.087 27.4419C35.8646 27.4699 36.6388 27.3265 37.3547 27.0219C38.0707 26.7174 38.7109 26.259 39.23 25.6795C40.2417 24.3542 40.7898 22.7331 40.7898 21.0659C40.7898 19.3986 40.2417 17.7775 39.23 16.4523C38.7212 15.868 38.0888 15.4043 37.3786 15.0947C36.6685 14.785 35.8983 14.6373 35.1239 14.6622C34.3652 14.6529 33.6141 14.8139 32.9259 15.1333C32.2376 15.4527 31.6298 15.9223 31.147 16.5076C30.1044 17.7383 29.5438 19.3055 29.5691 20.9182Z" fill="#262626"/>
<path d="M57.6568 27.2476L48.688 10.9893H54.049L60.1574 22.4771L65.8691 10.9893H71.0824L56.9925 40.0088H51.7145L57.6568 27.2476Z" fill="#262626"/>
<path d="M88.2171 10.99H92.8308V30.9393H88.2171V28.8447C87.3646 29.7171 86.3412 30.4041 85.211 30.863C84.0808 31.3218 82.8681 31.5426 81.6488 31.5114C80.4294 31.4802 79.2296 31.1978 78.1243 30.6818C77.019 30.1658 76.0321 29.4273 75.2252 28.5125C73.4038 26.3962 72.4453 23.6722 72.5401 20.8816C72.4501 18.1336 73.4103 15.4544 75.2252 13.3891C76.0592 12.4263 77.0952 11.6592 78.2595 11.1424C79.4237 10.6257 80.6876 10.372 81.9611 10.3995C83.1466 10.4133 84.3161 10.6759 85.3937 11.1702C86.4714 11.6646 87.4333 12.3796 88.2171 13.2691V10.99ZM77.2921 20.9185C77.2181 22.6136 77.7662 24.2774 78.8331 25.5967C79.3151 26.1853 79.9241 26.6571 80.6144 26.9767C81.3048 27.2963 82.0586 27.4555 82.8192 27.4421C83.5968 27.4701 84.371 27.3268 85.0869 27.0222C85.8029 26.7176 86.4432 26.2593 86.9623 25.6797C87.974 24.3545 88.522 22.7334 88.522 21.0661C88.522 19.3988 87.974 17.7778 86.9623 16.4525C86.453 15.8688 85.8205 15.4054 85.1105 15.0958C84.4004 14.7862 83.6304 14.6382 82.8561 14.6624C82.0975 14.6532 81.3464 14.8142 80.6581 15.1336C79.9699 15.4529 79.362 15.9226 78.8792 16.5079C77.8304 17.7356 77.266 19.304 77.2921 20.9185Z" fill="#262626"/>
<path d="M98.6812 10.9899H103.295V12.7707C103.94 12.0377 104.701 11.4144 105.546 10.9253C106.288 10.5703 107.104 10.3964 107.927 10.4178C109.285 10.46 110.605 10.8715 111.747 11.6081L109.634 15.8342C108.896 15.2657 107.999 14.9429 107.069 14.9114C104.55 14.9114 103.295 16.8215 103.295 20.6231V30.9391H98.6812V10.9899Z" fill="#262626"/>
<path d="M128.854 0H133.467V30.9389H128.854V28.8443C128.055 29.6805 127.096 30.3475 126.034 30.8056C124.972 31.2637 123.828 31.5036 122.672 31.511C121.386 31.5405 120.11 31.2873 118.933 30.769C117.756 30.2508 116.708 29.4803 115.862 28.5121C114.038 26.3968 113.076 23.6728 113.168 20.8812C113.084 18.1381 114.047 15.4659 115.862 13.4072C116.663 12.4746 117.655 11.7238 118.769 11.2048C119.884 10.6858 121.097 10.4105 122.327 10.3974C123.556 10.3843 124.774 10.6337 125.9 11.1288C127.026 11.6239 128.033 12.3535 128.854 13.2687V0ZM117.892 20.9181C117.818 22.6133 118.366 24.277 119.433 25.5963C119.914 26.1837 120.521 26.6547 121.21 26.9743C121.899 27.2939 122.651 27.4537 123.41 27.4417C124.187 27.4697 124.962 27.3264 125.678 27.0218C126.393 26.7172 127.034 26.2589 127.553 25.6793C128.57 24.3566 129.122 22.7346 129.122 21.0657C129.122 19.3969 128.57 17.7749 127.553 16.4521C127.045 15.8686 126.415 15.4052 125.706 15.0956C124.997 14.786 124.229 14.6379 123.456 14.6621C122.696 14.6534 121.944 14.8146 121.254 15.1339C120.564 15.4532 119.955 15.9225 119.47 16.5075C118.427 17.7382 117.867 19.3054 117.892 20.9181Z" fill="#262626"/>
</g>
<defs>
<clipPath id="clip0_7520_305800">
<rect width="132.9" height="40" fill="white" transform="translate(0.586426)"/>
</clipPath>
</defs>
</svg>

